<svg width="120" height="120" viewBox="0 0 120 120" fill="none" xmlns="http://www.w3.org/2000/svg">
<circle cx="60" cy="60" r="60" fill="#D1DD48"/>
<path d="M30.9997 88.5002H84.9997V77.0002C84.9997 69.4002 78.9997 66.1668 75.9998 65.5002C67.8331 65.3335 48.9997 65.1002 38.9997 65.5002C28.9997 65.9002 29.4997 81.0002 30.9997 88.5002Z" fill="#1C4F80"/>
<path d="M57 78.5L48.5 65.5H66L57 78.5Z" fill="white" stroke="black"/>
<ellipse cx="39.5" cy="45.5" rx="4.5" ry="5.5" fill="#F5CEB8"/>
<ellipse cx="77.5" cy="45.5" rx="4.5" ry="5.5" fill="#F5CEB8"/>
<ellipse cx="58.5" cy="43.5" rx="18.5" ry="21.5" fill="#F5CEB8"/>
<path d="M73.3285 63.5848H68.3078C72.2224 61.2735 75.1939 57.418 76.5216 52.9526C80.6332 52.6666 83.8914 49.2102 83.8914 45.0272C83.8914 41.0923 81.0084 37.853 77.2436 37.2406C76.6171 27.6111 68.5823 20 58.7898 20H57.4839C47.6914 20 39.6559 27.5998 39.0296 37.2294C35.2648 37.8418 32.3818 41.0924 32.3818 45.0272C32.3818 49.2104 35.6398 52.6777 39.7515 52.9636C41.0796 57.4292 44.0509 61.2735 47.9657 63.5847H42.9445C35.6636 63.5847 29.6035 69.4207 29.6035 76.703V88.5897C29.6035 89.3198 30.3317 89.9999 31.0609 89.9999H85.2118C85.9412 89.9999 86.3958 89.3198 86.3958 88.5897V76.703C86.3961 69.421 80.6095 63.5848 73.3285 63.5848ZM77.1509 47.653V39.8959C79.4622 40.4847 81.1815 42.5483 81.1815 45.005C81.1815 47.5246 79.3735 49.6341 77.0105 50.1593C77.1222 49.339 77.1509 48.5033 77.1509 47.653ZM34.955 45.005C34.955 42.5483 36.8678 40.4846 38.8488 39.8959V47.653C38.8488 48.5033 38.9459 49.3392 39.0576 50.1595C36.6946 49.6341 34.955 47.5246 34.955 45.005ZM41.4904 38.3948C41.4904 29.659 48.7403 22.6415 57.4839 22.6415H58.7898C67.5327 22.6415 74.5092 29.659 74.5092 38.3948V39.5005C65.9244 37.9134 62.6437 32.6684 62.5024 32.4385C62.276 32.0619 61.9111 31.8221 61.4725 31.7988C61.023 31.7808 60.5597 31.9742 60.2966 32.3264C54.3029 40.3176 45.1225 41.9473 41.4904 42.2789V38.3948ZM41.4904 47.653V44.9402C45.1225 44.662 54.4787 43.1771 61.2752 35.2593C63.0734 37.3249 67.2451 40.9645 74.5092 42.1826V47.653C74.5092 56.3888 67.5327 63.585 58.7898 63.585H57.4839C48.7403 63.5848 41.4904 56.3888 41.4904 47.653ZM56.0187 87.3585H32.2452V76.7031C32.2452 70.8772 37.1206 66.2264 42.9447 66.2264H47.5056L56.0188 79.73L56.0187 87.3585ZM57.4762 76.7254C57.439 76.7254 57.404 76.767 57.3675 76.7699L50.637 66.2264H57.4839H58.7898H64.3153L57.5848 76.7589C57.5484 76.7556 57.5134 76.7254 57.4762 76.7254ZM83.7545 87.3585H58.6602V79.73L67.4469 66.2264H73.3285C79.1526 66.2264 83.7547 70.8772 83.7547 76.7031L83.7545 87.3585Z" fill="#1C4F80"/>
<path d="M50.873 43.6841C49.4161 43.6841 48.2314 44.8694 48.2314 46.3256C48.2314 47.7818 49.4161 48.9672 50.873 48.9672C52.3299 48.9672 53.5145 47.7818 53.5145 46.3256C53.5145 44.8693 52.3299 43.6841 50.873 43.6841Z" fill="#1C4F80"/>
<path d="M65.4013 43.6841C63.9444 43.6841 62.7598 44.8694 62.7598 46.3256C62.7598 47.7818 63.9444 48.9672 65.4013 48.9672C66.8582 48.9672 68.0429 47.7818 68.0429 46.3256C68.0429 44.8693 66.8582 43.6841 65.4013 43.6841Z" fill="#1C4F80"/>
<path d="M66.3775 53.3617C65.8881 52.8226 65.0529 52.7825 64.5119 53.2727C63.4053 54.28 59.9828 56.8919 57.4761 56.8919C55.1022 56.8919 52.6599 54.4039 51.919 53.4442C51.4727 52.8677 50.6434 52.7594 50.0676 53.2043C49.4903 53.6493 49.3807 54.4761 49.8245 55.0538C49.9645 55.237 53.307 59.5333 57.4762 59.5333C61.4384 59.5333 65.8044 55.6678 66.2894 55.2279C66.829 54.7365 66.8684 53.902 66.3775 53.3617Z" fill="#1C4F80"/>
<path d="M61 33.5C57.4 40.3 45.8333 42.6667 40.5 43C40.5 34.5 42.5 22.5 58.5 21C71.3 19.8 74.8333 33.8334 75 41C72.1667 40.3334 65.4 37.9 61 33.5Z" fill="#C16A2B"/>
</svg>
