<svg width="120" height="120" viewBox="0 0 120 120" fill="none" xmlns="http://www.w3.org/2000/svg">
<circle cx="60" cy="60" r="60" fill="#D1DD48"/>
<g clip-path="url(#clip0)">
<path d="M73.4996 57.5C72.6996 63.9 62.8329 75.5 57.9996 80.5C45.9997 71.5 42.4996 57.5 41.4996 56C40.4996 54.5 41.9996 33.5 57.9996 35C73.9996 36.5 74.4996 49.5 73.4996 57.5Z" fill="#00AEEF"/>
<path d="M57.9998 79.5999C57.6798 79.5999 57.3578 79.4859 57.1018 79.2579C56.4778 78.7039 41.7998 65.5019 41.7998 52.7179C41.7998 43.7199 49.0678 36.3999 57.9998 36.3999C66.9318 36.3999 74.1998 43.7199 74.1998 52.7179C74.1998 65.5019 59.5218 78.7039 58.8978 79.2599C58.6418 79.4859 58.3198 79.5999 57.9998 79.5999V79.5999Z" fill="white" fill-opacity="0.1"/>
<path d="M58.0004 60.0999C53.5344 60.0999 49.9004 56.4659 49.9004 51.9999C49.9004 47.5339 53.5344 43.8999 58.0004 43.8999C62.4664 43.8999 66.1004 47.5339 66.1004 51.9999C66.1004 56.4659 62.4664 60.0999 58.0004 60.0999Z" fill="#D3DD48"/>
<path d="M58 82C57.644 82 57.288 81.874 57.002 81.622C56.308 81.004 40 66.336 40 52.13C40 42.132 48.076 34 58 34C67.924 34 76 42.132 76 52.13C76 66.336 59.692 81.004 58.998 81.62C58.712 81.874 58.356 82 58 82ZM58 37C49.728 37 43 43.788 43 52.13C43 63.086 54.5 75.054 58 78.44C61.5 75.054 73 63.084 73 52.13C73 43.788 66.272 37 58 37V37Z" fill="#1C4F80"/>
<path d="M58 62C52.486 62 48 57.514 48 52C48 46.486 52.486 42 58 42C63.514 42 68 46.486 68 52C68 57.514 63.514 62 58 62ZM58 45C54.14 45 51 48.14 51 52C51 55.86 54.14 59 58 59C61.86 59 65 55.86 65 52C65 48.14 61.86 45 58 45Z" fill="#1C4F80"/>
<circle cx="58" cy="52" r="7" fill="white"/>
</g>
<defs>
<clipPath id="clip0">
<rect width="48" height="48" fill="white" transform="translate(34 34)"/>
</clipPath>
</defs>
</svg>
