<svg width="55" height="55" viewBox="0 0 55 55" fill="none" xmlns="http://www.w3.org/2000/svg">
<g clip-path="url(#clip0_1234_1306)">
<path d="M45.3045 44.6802C54.9335 34.9821 54.9335 19.2582 45.3045 9.56C35.6755 -0.138188 20.0638 -0.138188 10.4348 9.56C0.80584 19.2582 0.80584 34.9821 10.4348 44.6802C20.0638 54.3784 35.6755 54.3784 45.3045 44.6802Z" fill="#00AEEF"/>
<path d="M43.0195 20.8947C43.0195 20.8947 42.7171 18.755 41.7905 17.8037C40.6139 16.5643 39.2968 16.5577 38.6856 16.4869C34.3599 16.1709 27.8689 16.1709 27.8689 16.1709H27.8559C27.8559 16.1709 21.3665 16.1709 17.0392 16.4869C16.4346 16.5593 15.1174 16.5659 13.9343 17.8037C13.0077 18.7484 12.7053 20.8947 12.7053 20.8947C12.5131 22.5679 12.41 24.2502 12.3965 25.9345V28.2981C12.41 29.9824 12.5131 31.6648 12.7053 33.3379C12.7053 33.3379 13.0077 35.4776 13.9343 36.429C15.1109 37.6684 16.6552 37.6305 17.3432 37.7589C19.8173 37.9992 27.8559 38.0733 27.8559 38.0733C27.8559 38.0733 34.3534 38.0634 38.6791 37.7441C39.2837 37.6717 40.6009 37.6651 41.784 36.4273C42.7106 35.4809 43.0129 33.3363 43.0129 33.3363C43.2052 31.6631 43.3083 29.9807 43.3218 28.2965V25.9345C43.3105 24.2504 43.2095 22.568 43.0195 20.8947V20.8947ZM24.6757 31.1604V22.4106L33.033 26.8019L24.6757 31.1604Z" fill="white"/>
</g>
<defs>
<clipPath id="clip0_1234_1306">
<rect width="55" height="55" fill="white"/>
</clipPath>
</defs>
</svg>
