<svg width="49" height="50" viewBox="0 0 49 50" fill="none" xmlns="http://www.w3.org/2000/svg">
<g filter="url(#filter0_d_2919_1987)">
<path fill-rule="evenodd" clip-rule="evenodd" d="M40.9192 14.7233C41.4893 15.2971 41.8988 16.0107 42.1066 16.7925C42.875 19.6782 42.875 25.696 42.875 25.696C42.875 25.696 42.875 31.7138 42.1066 34.5995C41.8988 35.3814 41.4893 36.0949 40.9192 36.6688C40.349 37.2426 39.638 37.6567 38.8576 37.8695C35.9844 38.642 24.5 38.642 24.5 38.642C24.5 38.642 13.0156 38.642 10.1424 37.8695C9.36196 37.6567 8.65104 37.2426 8.08085 36.6688C7.51065 36.0949 7.10118 35.3814 6.89341 34.5995C6.125 31.7138 6.125 25.696 6.125 25.696C6.125 25.696 6.125 19.6782 6.89341 16.7925C7.10118 16.0107 7.51065 15.2971 8.08085 14.7233C8.65104 14.1494 9.36196 13.7354 10.1424 13.5226C13.0156 12.75 24.5 12.75 24.5 12.75C24.5 12.75 35.9844 12.75 38.8576 13.5226C39.638 13.7354 40.349 14.1494 40.9192 14.7233ZM30.3468 25.6963L20.7417 20.2318V31.1607L30.3468 25.6963Z" fill="#0090CC"/>
</g>
<defs>
<filter id="filter0_d_2919_1987" x="-4.33333" y="-3.83333" width="57.6667" height="57.6667" filterUnits="userSpaceOnUse" color-interpolation-filters="sRGB">
<feFlood flood-opacity="0" result="BackgroundImageFix"/>
<feColorMatrix in="SourceAlpha" type="matrix" values="0 0 0 0 0 0 0 0 0 0 0 0 0 0 0 0 0 0 127 0" result="hardAlpha"/>
<feOffset/>
<feGaussianBlur stdDeviation="2.16667"/>
<feColorMatrix type="matrix" values="0 0 0 0 1 0 0 0 0 1 0 0 0 0 1 0 0 0 1 0"/>
<feBlend mode="normal" in2="BackgroundImageFix" result="effect1_dropShadow_2919_1987"/>
<feBlend mode="normal" in="SourceGraphic" in2="effect1_dropShadow_2919_1987" result="shape"/>
</filter>
</defs>
</svg>
