<svg width="120" height="120" viewBox="0 0 120 120" fill="none" xmlns="http://www.w3.org/2000/svg">
<circle cx="60" cy="60" r="60" fill="#D1DD48"/>
<rect x="31" y="50" width="58" height="43" fill="white"/>
<rect x="61" y="61" width="20" height="20" fill="#00AEEF"/>
<rect x="38" y="62" width="15" height="30" fill="#C7EEFF"/>
<path d="M70.5 28H82L93.5 46.5L92.5 50.5L88 55L84 55.5L78.5 51.5L77 46L70.5 28Z" fill="#C7EEFF"/>
<path d="M70 28H60V44.5L61 51.5C62.6667 52.6667 66.5 55.1 68.5 55.5C70.5 55.9 74.3333 52.6667 76 51L76.5 46.5L70 28Z" fill="#00AEEF" stroke="black"/>
<path d="M27 46.5L36.5 27.5L48 28L42 46.5L43 48L41.5 51.5C40.3333 52.6667 37.7 55.1 36.5 55.5C35.3 55.9 30.6667 54.3333 28.5 53.5L27 46.5Z" fill="#00AEEF"/>
<path d="M48.5 28H59.5V47.5L58.5 52.5L55.5 54.5L52.5 55.5C51 55 47.5 53.9 45.5 53.5C43.5 53.1 42.6667 48 42.5 45.5L48.5 28Z" fill="#C7EEFF" stroke="black"/>
<path d="M81.1571 59.7642H60.7076C60.0784 59.7642 59.4492 60.2361 59.4492 61.0226V81.472C59.6065 82.2586 60.0784 82.7305 60.7076 82.7305H81.1571C81.7863 82.7305 82.4155 82.2586 82.4155 81.472V61.0226C82.4155 60.3934 81.9436 59.7642 81.1571 59.7642ZM80.056 80.3709H61.9661V62.281H80.056V80.3709Z" fill="#1E4D7C"/>
<path d="M42.4616 73.6069C41.8323 73.6069 41.2031 74.0788 41.2031 74.8654V79.5845C41.2031 80.2137 41.675 80.8429 42.4616 80.8429C43.2481 80.8429 43.72 80.371 43.72 79.5845V74.8654C43.72 74.0788 43.2481 73.6069 42.4616 73.6069Z" fill="#1E4D7C"/>
<path d="M93.7416 91.2246H89.809V55.3594C92.7978 53.7864 94.8427 50.6403 94.8427 47.0223C94.8427 46.865 94.8427 46.5504 94.6854 46.3931L82.8876 26.8875C82.7303 26.5729 82.2584 26.2583 81.9438 26.2583H36.7978C36.3258 26.2583 36.0112 26.5729 35.6966 26.8875L25.1573 46.3931C25 46.5504 25 46.7077 25 47.0223C25 50.6403 27.0449 53.7864 30.191 55.5167V91.3819H26.1011V91.2246C25.4719 91.2246 25 91.6965 25 92.483C25 93.1122 25.4719 93.7415 26.1011 93.7415H31.4494H38.3708H53.4719H88.5506H93.7416C94.3708 93.7415 95 93.2695 95 92.483C95 91.8538 94.5281 91.2246 93.7416 91.2246ZM81 28.6179L91.382 45.7639H78.0112L72.0337 28.6179H81V28.6179ZM61.0225 28.6179H69.5169L75.4944 45.7639H61.0225V28.6179V28.6179ZM75.3371 48.1235C74.7079 51.5841 71.8764 54.101 68.2584 54.101C64.6404 54.101 61.809 51.4268 61.1798 48.1235H75.3371ZM58.6629 28.6179V45.7639H43.2472L49.2247 28.6179H58.6629V28.6179ZM58.6629 48.1235C58.0337 51.5841 55.2022 54.101 51.5843 54.101C47.9663 54.101 45.1348 51.4268 44.5056 48.1235H58.6629ZM37.427 28.6179H46.7079L40.8876 45.7639H28.1461L37.427 28.6179ZM27.5169 48.1235H41.8315C41.2022 51.5841 38.3708 54.101 34.7528 54.101C31.1348 54.101 28.1461 51.4268 27.5169 48.1235ZM52.2135 91.2246H39.4719V62.2808H52.2135V91.2246V91.2246ZM87.2921 91.3819H54.573V61.1797C54.573 60.5504 54.1011 59.9212 53.3146 59.9212H38.2135C37.5843 59.9212 36.9551 60.3931 36.9551 61.1797V91.3819H32.3933V56.3032H32.5506C33.1798 56.4606 33.9663 56.6179 34.7528 56.6179C38.3708 56.6179 41.5169 54.5729 43.0899 51.5841C44.6629 54.5729 47.809 56.6179 51.427 56.6179C55.0449 56.6179 58.191 54.5729 59.764 51.5841C61.3371 54.5729 64.4831 56.6179 68.1011 56.6179C71.7191 56.6179 75.0225 54.5729 76.5955 51.4268C78.1685 54.5729 81.3146 56.6179 85.0899 56.6179C85.8764 56.6179 86.5056 56.4606 87.2921 56.3032V91.3819ZM85.2472 54.101C81.6292 54.101 78.7978 51.4268 78.1685 48.1235H92.3258C91.6966 51.5841 88.7079 54.101 85.2472 54.101Z" fill="#1E4D7C"/>
</svg>
