<svg width="160" height="160" viewBox="0 0 160 160" fill="none" xmlns="http://www.w3.org/2000/svg">
<circle cx="80" cy="80" r="76.5" fill="white" stroke="#D3DD48" stroke-width="7"/>
<path d="M114.43 65.0278L127.201 86.3127V105.469L123.653 108.307H98.1113V65.0278H114.43Z" fill="#18416D"/>
<rect x="32.8379" y="93.4077" width="63.8545" height="15.6089" rx="3" fill="white"/>
<path d="M117.268 69.2852L126.491 85.6035V86.313H103.788V69.9947L117.268 69.2852Z" fill="white"/>
<circle cx="47.0276" cy="109.016" r="8.51393" fill="#C7EEFF"/>
<circle cx="110.882" cy="109.016" r="8.51393" fill="#C7EEFF"/>
<path d="M119.396 93.4078C119.396 91.705 124.126 91.2793 126.491 91.2793L127.201 96.9553C126.964 97.1918 126.066 97.6647 124.363 97.6647C122.234 97.6647 119.396 95.5363 119.396 93.4078Z" fill="white"/>
<rect x="32.8379" y="50.8379" width="63.8545" height="43.9887" rx="3" fill="#00AEEF"/>
<path d="M45.6089 85.835L51.514 79.5095L49.0035 79.8424C55.1915 84.5403 61.3441 79.5095 60.3717 71.7598C57.0302 71.7598 55.0854 70.4836 55.0854 68.4121C55.0854 67.0989 55.9164 65.6747 57.596 64.1581L55.6865 64.3061C63.6249 74.0163 72.624 77.9929 83.9216 74.9226C81.9591 64.0471 74.728 57.0188 61.4325 55.0952C62.7585 62.9189 64.7034 66.2296 71.9345 69.8363V65.9707C67.7974 63.8252 66.2946 61.3468 65.5697 58.5909L64.668 59.2013C72.5356 60.6994 78.8297 65.8597 79.9789 73.3505L80.916 72.1112C70.414 73.5354 64.9155 69.8548 56.4291 60.2925C53.1583 62.8819 51.7969 65.8597 51.7969 68.3751C51.7969 72.4072 54.7848 74.8116 59.859 74.8116L57.3838 72.8881C57.6313 78.6402 53.8655 79.8424 49.6576 76.3837L45.6089 80.7117V85.835ZM49.6399 69.2814C48.367 68.6895 47.0056 68.0977 45.6089 67.5428V71.3714C47.0056 71.9263 48.367 72.4997 49.6399 73.1655V69.2814ZM62.8646 75.4405V79.9164C66.7896 82.9682 70.3079 86.4639 73.897 90.5699H78.2816C73.4019 84.4294 68.3631 79.5465 62.8646 75.4405ZM74.728 78.4183V83.2271C75.9479 84.5403 77.1678 85.8905 78.4231 87.3332H82.7017C80.1381 84.0225 77.5391 80.9337 74.728 78.4183Z" fill="white"/>
<path d="M30 53.6073V104.874C30 106.361 30.5908 107.787 31.6423 108.839C32.6939 109.891 34.1201 110.481 35.6073 110.481H38.1466C38.5273 112.719 39.6876 114.75 41.422 116.214C43.1564 117.678 45.3531 118.481 47.6229 118.481C49.8928 118.481 52.0894 117.678 53.8238 116.214C55.5582 114.75 56.7185 112.719 57.0992 110.481H100.628C101.009 112.719 102.169 114.75 103.903 116.214C105.638 117.678 107.834 118.481 110.104 118.481C112.374 118.481 114.571 117.678 116.305 116.214C118.04 114.75 119.2 112.719 119.581 110.481H123.722C125.209 110.481 126.635 109.891 127.687 108.839C128.738 107.787 129.329 106.361 129.329 104.874V86.45C129.331 86.1692 129.258 85.8929 129.119 85.649L116.302 63.2198C116.161 62.9756 115.958 62.773 115.714 62.6323C115.47 62.4917 115.192 62.418 114.91 62.4188H98.8896V53.6073C98.8896 52.1201 98.2988 50.6939 97.2473 49.6423C96.1957 48.5908 94.7695 48 93.2823 48H35.6073C34.1201 48 32.6939 48.5908 31.6423 49.6423C30.5908 50.6939 30 52.1201 30 53.6073ZM124.966 84.8479H105.298V70.4292H116.727L124.966 84.8479ZM126.125 96.0625H122.921C122.496 96.0625 122.088 95.8937 121.788 95.5933C121.488 95.2928 121.319 94.8853 121.319 94.4604C121.319 94.0355 121.488 93.628 121.788 93.3276C122.088 93.0271 122.496 92.8583 122.921 92.8583H126.125V96.0625ZM103.696 108.879C103.696 107.612 104.072 106.373 104.776 105.319C105.48 104.265 106.481 103.444 107.652 102.959C108.823 102.474 110.111 102.347 111.354 102.594C112.598 102.841 113.739 103.452 114.636 104.348C115.532 105.244 116.142 106.386 116.389 107.629C116.637 108.872 116.51 110.161 116.025 111.332C115.54 112.503 114.718 113.503 113.664 114.208C112.611 114.912 111.372 115.288 110.104 115.288C108.405 115.288 106.775 114.612 105.573 113.411C104.371 112.209 103.696 110.579 103.696 108.879ZM98.8896 65.6229H113.981L114.896 67.225H103.696C103.271 67.225 102.863 67.3938 102.563 67.6942C102.263 67.9947 102.094 68.4022 102.094 68.8271V86.45C102.094 86.8749 102.263 87.2824 102.563 87.5829C102.863 87.8833 103.271 88.0521 103.696 88.0521H126.125V89.6542H122.921C121.646 89.6542 120.424 90.1606 119.522 91.0619C118.621 91.9633 118.115 93.1857 118.115 94.4604C118.115 95.7351 118.621 96.9576 119.522 97.859C120.424 98.7603 121.646 99.2667 122.921 99.2667H126.125V104.874C126.125 105.511 125.872 106.123 125.421 106.573C124.971 107.024 124.359 107.277 123.722 107.277H119.581C119.2 105.039 118.04 103.009 116.305 101.544C114.571 100.08 112.374 99.2769 110.104 99.2769C107.834 99.2769 105.638 100.08 103.903 101.544C102.169 103.009 101.009 105.039 100.628 107.277H98.8896V65.6229ZM41.2146 108.879C41.2146 107.612 41.5904 106.373 42.2946 105.319C42.9987 104.265 43.9996 103.444 45.1706 102.959C46.3415 102.474 47.63 102.347 48.8731 102.594C50.1162 102.841 51.2581 103.452 52.1543 104.348C53.0505 105.244 53.6609 106.386 53.9081 107.629C54.1554 108.872 54.0285 110.161 53.5434 111.332C53.0584 112.503 52.237 113.503 51.1832 114.208C50.1294 114.912 48.8904 115.288 47.6229 115.288C45.9233 115.288 44.2933 114.612 43.0915 113.411C41.8898 112.209 41.2146 110.579 41.2146 108.879ZM33.2042 96.0625H95.6854V107.277H57.0992C56.7185 105.039 55.5582 103.009 53.8238 101.544C52.0894 100.08 49.8928 99.2769 47.6229 99.2769C45.3531 99.2769 43.1564 100.08 41.422 101.544C39.6876 103.009 38.5273 105.039 38.1466 107.277H35.6073C34.9699 107.277 34.3587 107.024 33.908 106.573C33.4574 106.123 33.2042 105.511 33.2042 104.874V96.0625ZM33.2042 53.6073C33.2042 52.9699 33.4574 52.3587 33.908 51.908C34.3587 51.4574 34.9699 51.2042 35.6073 51.2042H93.2823C93.9197 51.2042 94.5309 51.4574 94.9816 51.908C95.4323 52.3587 95.6854 52.9699 95.6854 53.6073V92.8583H33.2042V53.6073Z" fill="#1C4F80"/>
<path d="M47.6503 105.323C46.994 105.323 46.3525 105.517 45.8068 105.882C45.2611 106.247 44.8358 106.765 44.5846 107.371C44.3335 107.978 44.2678 108.645 44.3958 109.288C44.5238 109.932 44.8399 110.523 45.3039 110.987C45.768 111.452 46.3593 111.768 47.003 111.896C47.6467 112.024 48.3139 111.958 48.9202 111.707C49.5266 111.456 50.0448 111.03 50.4094 110.485C50.774 109.939 50.9687 109.297 50.9687 108.641C50.9676 107.761 50.6177 106.918 49.9956 106.296C49.3735 105.674 48.5301 105.324 47.6503 105.323V105.323Z" fill="#1C4F80"/>
<path d="M110.15 105.323C109.493 105.322 108.851 105.515 108.305 105.879C107.758 106.243 107.332 106.761 107.08 107.367C106.828 107.973 106.761 108.641 106.889 109.285C107.016 109.929 107.332 110.521 107.795 110.985C108.259 111.45 108.851 111.767 109.494 111.895C110.138 112.024 110.806 111.958 111.412 111.707C112.019 111.456 112.538 111.031 112.903 110.485C113.268 109.939 113.462 109.298 113.462 108.641C113.462 107.762 113.113 106.919 112.492 106.297C111.871 105.675 111.029 105.325 110.15 105.323V105.323Z" fill="#1C4F80"/>
</svg>
