<svg width="160" height="160" viewBox="0 0 160 160" fill="none" xmlns="http://www.w3.org/2000/svg">
<circle cx="80" cy="80" r="76.5" fill="white" stroke="#D3DD48" stroke-width="7"/>
<g clip-path="url(#clip0_1166_1268)">
<rect x="38.5142" y="64.4746" width="82.3014" height="61.0165" fill="white"/>
<rect x="81.0835" y="80.0835" width="28.3798" height="28.3798" fill="#00AEEF"/>
<rect x="48.4468" y="81.5024" width="21.2848" height="42.5697" fill="#C7EEFF"/>
<path d="M94.564 33.2568H110.882L127.201 59.5081L125.782 65.1841L119.396 71.5695L113.72 72.279L105.916 66.6031L103.787 58.7986L94.564 33.2568Z" fill="#C7EEFF"/>
<path d="M93.8544 33.2568H79.6646V56.6701L81.0835 66.6031C83.4485 68.2586 88.888 71.7114 91.726 72.279C94.5639 72.8466 100.003 68.2586 102.368 65.8936L103.078 59.5081L93.8544 33.2568Z" fill="#00AEEF" stroke="black"/>
<path d="M32.8379 59.5081L46.3183 32.5474L62.6367 33.2569L54.1227 59.5081L55.5417 61.6366L53.4132 66.6031C51.7577 68.2586 48.0211 71.7115 46.3183 72.279C44.6155 72.8466 38.0409 70.6236 34.9664 69.4411L32.8379 59.5081Z" fill="#00AEEF"/>
<path d="M63.3465 33.2568H78.9553V60.9271L77.5363 68.0221L73.2794 70.86L69.0224 72.279C66.8939 71.5695 61.9275 70.0086 59.0895 69.4411C56.2515 68.8735 55.069 61.6366 54.8325 58.0891L63.3465 33.2568Z" fill="#C7EEFF" stroke="black"/>
<path d="M109.687 78.3301H80.669C79.7761 78.3301 78.8833 78.9997 78.8833 80.1158V109.133C79.1065 110.249 79.7761 110.919 80.669 110.919H109.687C110.579 110.919 111.472 110.249 111.472 109.133V80.1158C111.472 79.2229 110.803 78.3301 109.687 78.3301ZM108.124 107.571H82.4547V81.9015H108.124V107.571Z" fill="#1E4D7C"/>
<path d="M54.7764 97.9722C53.8836 97.9722 52.9907 98.6418 52.9907 99.7579V106.454C52.9907 107.347 53.6604 108.24 54.7764 108.24C55.8925 108.24 56.5621 107.57 56.5621 106.454V99.7579C56.5621 98.6418 55.8925 97.9722 54.7764 97.9722Z" fill="#1E4D7C"/>
<path d="M127.544 122.972H121.963V72.0798C126.204 69.8477 129.106 65.3835 129.106 60.2496C129.106 60.0264 129.106 59.58 128.883 59.3567L112.142 31.6785C111.919 31.2321 111.249 30.7856 110.803 30.7856H46.7409C46.0712 30.7856 45.6248 31.2321 45.1784 31.6785L30.2232 59.3567C30 59.58 30 59.8032 30 60.2496C30 65.3835 32.9018 69.8477 37.366 72.303V123.195H31.5625V122.972C30.6696 122.972 30 123.642 30 124.758C30 125.651 30.6696 126.543 31.5625 126.543H39.1517H48.973H70.4013H120.178H127.544C128.436 126.543 129.329 125.874 129.329 124.758C129.329 123.865 128.66 122.972 127.544 122.972ZM109.463 34.1338L124.195 58.4639H105.222L96.7403 34.1338H109.463V34.1338ZM81.1155 34.1338H93.1689L101.651 58.4639H81.1155V34.1338V34.1338ZM101.428 61.8121C100.535 66.7227 96.5171 70.2941 91.3832 70.2941C86.2494 70.2941 82.2315 66.4995 81.3387 61.8121H101.428ZM77.7673 34.1338V58.4639H55.8926L64.3746 34.1338H77.7673V34.1338ZM77.7673 61.8121C76.8745 66.7227 72.8566 70.2941 67.7228 70.2941C62.5889 70.2941 58.5711 66.4995 57.6783 61.8121H77.7673ZM47.6337 34.1338H60.8032L52.5444 58.4639H34.4642L47.6337 34.1338ZM33.5714 61.8121H53.8837C52.9908 66.7227 48.973 70.2941 43.8391 70.2941C38.7053 70.2941 34.4642 66.4995 33.5714 61.8121ZM68.6156 122.972H50.5355V81.9011H68.6156V122.972V122.972ZM118.392 123.195H71.9638V80.3387C71.9638 79.4458 71.2942 78.553 70.1781 78.553H48.7498C47.8569 78.553 46.9641 79.2226 46.9641 80.3387V123.195H40.491V73.4191H40.7142C41.607 73.6423 42.7231 73.8655 43.8391 73.8655C48.973 73.8655 53.4372 70.9638 55.6693 66.7227C57.9015 70.9638 62.3657 73.8655 67.4996 73.8655C72.6334 73.8655 77.0977 70.9638 79.3298 66.7227C81.5619 70.9638 86.0261 73.8655 91.16 73.8655C96.2939 73.8655 100.981 70.9638 103.213 66.4995C105.446 70.9638 109.91 73.8655 115.267 73.8655C116.383 73.8655 117.276 73.6423 118.392 73.4191V123.195ZM115.49 70.2941C110.356 70.2941 106.338 66.4995 105.446 61.8121H125.535C124.642 66.7227 120.401 70.2941 115.49 70.2941Z" fill="#1E4D7C"/>
</g>
<defs>
<clipPath id="clip0_1166_1268">
<rect width="99.3292" height="99.3292" fill="white" transform="translate(30 29)"/>
</clipPath>
</defs>
</svg>
