<svg width="160" height="160" viewBox="0 0 160 160" fill="none" xmlns="http://www.w3.org/2000/svg">
<circle cx="80" cy="80" r="76.5" fill="white" stroke="#D3DD48" stroke-width="7"/>
<ellipse cx="113.044" cy="108.463" rx="14.1899" ry="14.1899" fill="white"/>
<path d="M103.111 114.326L106.173 110.783L104.871 110.97C108.08 113.601 111.27 110.783 110.766 106.444C109.033 106.444 108.025 105.729 108.025 104.569C108.025 103.833 108.456 103.036 109.327 102.187L108.337 102.269C112.453 107.707 117.119 109.934 122.977 108.215C121.96 102.124 118.21 98.1885 111.316 97.1113C112.004 101.493 113.012 103.347 116.762 105.366V103.202C114.616 102 113.837 100.612 113.461 99.0689L112.994 99.4107C117.073 100.25 120.337 103.139 120.933 107.334L121.419 106.64C115.973 107.438 113.122 105.377 108.722 100.022C107.026 101.472 106.32 103.139 106.32 104.548C106.32 106.806 107.869 108.153 110.5 108.153L109.217 107.075C109.345 110.297 107.393 110.97 105.211 109.033L103.111 111.457V114.326ZM105.202 105.056C104.541 104.724 103.836 104.393 103.111 104.082V106.226C103.836 106.537 104.541 106.858 105.202 107.231V105.056ZM112.059 108.505V111.011C114.094 112.72 115.918 114.678 117.779 116.977H120.053C117.523 113.538 114.91 110.804 112.059 108.505ZM118.21 110.172V112.865C118.843 113.601 119.475 114.357 120.126 115.165H122.345C121.015 113.311 119.668 111.581 118.21 110.172Z" fill="#0090CC"/>
<circle cx="80.4074" cy="70.1506" r="21.2848" fill="#F5CEB8"/>
<path d="M52.7371 101.368C43.088 104.206 41.6217 117.214 42.0947 123.363H108.787C105.476 120.998 98.5704 115.133 97.4353 110.592C96.3001 106.051 97.9083 101.605 98.8542 99.9493L88.9213 97.1114L79.6979 106.335L70.4745 95.6924C68.5825 96.4019 62.3863 98.5304 52.7371 101.368Z" fill="#00AEEF"/>
<ellipse cx="57.7037" cy="68.7316" rx="4.25697" ry="4.25697" fill="#F5CEB8"/>
<ellipse cx="101.693" cy="70.1505" rx="4.25697" ry="4.25697" fill="#F5CEB8"/>
<path d="M71.1841 97.1116L70.4746 90.0166L88.9215 88.5977V97.1116L79.698 106.335L71.1841 97.1116Z" fill="#F5CEB8"/>
<path d="M79.698 55.2511L60.5416 61.6366L56.9941 56.6701L57.7036 53.8322V49.5752L59.1226 43.8992V38.2233L71.184 34.6758L82.5359 33.9663L100.983 39.6423L102.402 53.8322V61.6366L98.8543 63.0556L91.7594 59.5081L79.698 55.2511Z" fill="#00AEEF"/>
<path d="M79.7143 78.6614C81.423 78.7334 83.1279 78.4468 84.7192 77.8199C86.3105 77.1931 87.7528 76.24 88.9534 75.0219L86.6083 72.9888C85.6945 73.8636 84.6117 74.5426 83.4263 74.9843C82.2408 75.426 80.9777 75.621 79.7143 75.5574C78.4508 75.621 77.1877 75.426 76.0022 74.9843C74.8168 74.5426 73.734 73.8636 72.8202 72.9888L70.4751 75.0219C71.6757 76.24 73.118 77.1931 74.7093 77.8199C76.3006 78.4468 78.0055 78.7334 79.7143 78.6614V78.6614Z" fill="#1E4D7C" stroke="#1C4F80" stroke-width="0.5"/>
<path d="M112.601 91.0807C110.177 91.0822 107.781 91.6016 105.573 92.6039C103.366 93.6063 101.398 95.0686 99.8016 96.893L90.8729 94.5402V89.7056C93.4925 88.203 95.7679 86.1678 97.5523 83.7314C99.3367 81.2949 100.59 78.5114 101.233 75.5605H101.737C103.328 75.5011 104.835 74.8328 105.947 73.6937C107.06 72.5546 107.692 71.0318 107.713 69.4399C107.734 67.8481 107.143 66.3088 106.062 65.1404C104.981 63.9719 103.492 63.2634 101.903 63.1615C102.455 62.8906 102.948 62.5131 103.354 62.0506C103.759 61.5882 104.069 61.05 104.265 60.4672L104.731 59.0703C105.106 57.997 105.169 56.8396 104.914 55.7317C104.659 54.6238 104.096 53.6107 103.289 52.8095V43.0147C103.289 41.3113 102.729 39.6552 101.694 38.3019C100.66 36.9486 99.2089 35.9732 97.5652 35.5262C91.8041 33.9664 84.0983 32.104 80.0087 32.104C74.676 32.104 66.635 34.2039 62.3157 35.4548C60.7046 35.9268 59.2896 36.9078 58.2825 38.2509C57.2753 39.5941 56.7301 41.2272 56.7285 42.9061V52.8095C55.9221 53.6105 55.3587 54.6233 55.1033 55.7308C54.8479 56.8383 54.9109 57.9955 55.2851 59.0688L55.7507 60.4656C55.947 61.0484 56.2568 61.5866 56.6622 62.0491C57.0677 62.5115 57.5607 62.8891 58.1129 63.1599C56.5211 63.2582 55.0283 63.9652 53.9438 65.1345C52.8593 66.3037 52.2664 67.8455 52.2879 69.4401C52.3095 71.0347 52.9438 72.5599 54.0595 73.6994C55.1752 74.8389 56.6867 75.5053 58.2805 75.5605H58.7942C59.4354 78.51 60.6878 81.2922 62.4706 83.7278C64.2534 86.1634 66.5269 88.1982 69.1446 89.701V94.5402L54.7108 98.3488C50.398 99.4777 46.5811 102.004 43.8571 105.533C41.1331 109.062 39.6558 113.395 39.6563 117.853V123.673C39.6563 124.085 39.8198 124.48 40.1108 124.771C40.4019 125.062 40.7966 125.225 41.2083 125.225H112.601C117.129 125.225 121.471 123.426 124.673 120.225C127.875 117.023 129.673 112.681 129.673 108.153C129.673 103.625 127.875 99.2827 124.673 96.0811C121.471 92.8794 117.129 91.0807 112.601 91.0807V91.0807ZM72.2486 91.1894C77.2433 93.1128 82.7742 93.1128 87.7688 91.1894V95.1625L80.0087 104.215L72.2486 95.1625V91.1894ZM104.841 69.3525C104.841 70.1757 104.514 70.9652 103.932 71.5473C103.35 72.1295 102.56 72.4565 101.737 72.4565V66.2484C102.56 66.2484 103.35 66.5755 103.932 67.1576C104.514 67.7397 104.841 68.5292 104.841 69.3525ZM100.185 43.0147V51.0386C98.1767 50.5497 95.948 50.0376 93.6805 49.558L98.0416 39.099C98.6983 39.5199 99.2387 40.099 99.6132 40.7832C99.9877 41.4674 100.184 42.2347 100.185 43.0147ZM95.1021 38.0855L90.578 48.9372C87.0988 48.1987 83.5628 47.7595 80.0087 47.6242C76.0328 47.7931 72.0795 48.3124 68.1948 49.1762L64.4886 38.0684C69.5344 36.52 74.7424 35.5602 80.0087 35.208C85.1259 35.6426 90.1841 36.6069 95.1021 38.0855V38.0855ZM61.6127 39.2604L65.1342 49.8141C63.2842 50.2176 61.4854 50.6382 59.8325 51.0402V42.9061C59.8349 42.2034 59.9963 41.5105 60.3046 40.8791C60.6129 40.2478 61.0601 39.6943 61.6127 39.2604V39.2604ZM58.4574 55.6031C58.6634 55.2258 58.9465 54.8959 59.2882 54.635C59.6299 54.374 60.0226 54.1878 60.4409 54.0884C65.575 52.8328 74.9585 50.7282 80.0087 50.7282C85.059 50.7282 94.4425 52.8328 99.5766 54.0884C99.9937 54.1899 100.385 54.377 100.726 54.6376C101.068 54.8982 101.351 55.2268 101.559 55.6025C101.766 55.9783 101.894 56.393 101.933 56.8205C101.972 57.2481 101.923 57.6791 101.787 58.0864L101.321 59.4832C101.256 59.6834 101.149 59.868 101.009 60.0253C100.869 60.1826 100.698 60.3092 100.506 60.3973C100.312 60.4871 100.102 60.5364 99.8888 60.542C99.6753 60.5476 99.4629 60.5094 99.2646 60.4299C98.2015 60.0062 96.9133 59.4226 95.4932 58.7817C90.6137 56.5778 84.5391 53.8323 80.0087 53.8323C75.4784 53.8323 69.4038 56.5778 64.5242 58.7848C63.1042 59.4257 61.816 60.0093 60.7544 60.433C60.5561 60.5124 60.3437 60.5504 60.1302 60.5448C59.9167 60.5392 59.7066 60.4901 59.5128 60.4004C59.3213 60.3124 59.1502 60.1857 59.0099 60.0284C58.8697 59.8711 58.7635 59.6865 58.698 59.4863L58.2324 58.0895C58.0938 57.6823 58.0423 57.2507 58.081 56.8224C58.1198 56.3941 58.248 55.9787 58.4574 55.6031V55.6031ZM58.2805 72.4565C57.4572 72.4565 56.6677 72.1295 56.0856 71.5473C55.5035 70.9652 55.1764 70.1757 55.1764 69.3525C55.1764 68.5292 55.5035 67.7397 56.0856 67.1576C56.6677 66.5755 57.4572 66.2484 58.2805 66.2484V72.4565ZM61.3845 70.9045V63.4641C61.56 63.4251 61.7331 63.3759 61.9029 63.3167C63.0017 62.879 64.3349 62.2768 65.8031 61.6094C70.1674 59.6399 76.1473 56.9363 80.0087 56.9363C83.8702 56.9363 89.8501 59.6399 94.2144 61.6125C95.6826 62.2768 97.008 62.879 98.1146 63.3198C98.2843 63.3814 98.4573 63.4332 98.633 63.475V70.9045C98.633 75.8439 96.6708 80.5811 93.1781 84.0738C89.6853 87.5665 84.9482 89.5287 80.0087 89.5287C75.0693 89.5287 70.3321 87.5665 66.8394 84.0738C63.3467 80.5811 61.3845 75.8439 61.3845 70.9045V70.9045ZM70.1519 97.4859L78.8308 107.611C78.9765 107.781 79.1572 107.917 79.3605 108.011C79.5638 108.104 79.785 108.153 80.0087 108.153C80.2325 108.153 80.4537 108.104 80.657 108.011C80.8603 107.917 81.041 107.781 81.1867 107.611L89.8672 97.4859L91.8274 98.0012L80.0087 111.96L68.1901 98.0027L70.1519 97.4859ZM59.8325 122.121V111.257H56.7285V122.121H42.7603V117.853C42.7597 114.081 44.0092 110.416 46.3133 107.43C48.6174 104.444 51.8462 102.306 55.4946 101.35L64.8641 98.8796L78.8245 115.364C78.9702 115.536 79.1517 115.674 79.3562 115.769C79.5607 115.863 79.7833 115.912 80.0087 115.912C80.2341 115.912 80.4568 115.863 80.6613 115.769C80.8658 115.674 81.0472 115.536 81.1929 115.364L95.1611 98.8781L97.8616 99.5889C95.702 103.28 95.0133 107.65 95.933 111.826C96.8527 116.002 99.3131 119.679 102.823 122.121H59.8325ZM112.601 122.121C109.838 122.121 107.138 121.302 104.841 119.767C102.544 118.232 100.753 116.051 99.6962 113.498C98.639 110.946 98.3624 108.137 98.9014 105.428C99.4403 102.718 100.771 100.229 102.724 98.2759C104.678 96.3225 107.167 94.9921 109.876 94.4532C112.586 93.9142 115.394 94.1908 117.947 95.248C120.499 96.3052 122.68 98.0956 124.215 100.393C125.75 102.69 126.569 105.39 126.569 108.153C126.565 111.856 125.092 115.406 122.473 118.025C119.855 120.643 116.304 122.117 112.601 122.121V122.121Z" fill="#1E4D7C" stroke="#1C4F80" stroke-width="0.5"/>
<path d="M70.6966 66.2486C71.5537 66.2486 72.2486 65.5537 72.2486 64.6966C72.2486 63.8394 71.5537 63.1445 70.6966 63.1445C69.8394 63.1445 69.1445 63.8394 69.1445 64.6966C69.1445 65.5537 69.8394 66.2486 70.6966 66.2486Z" fill="#1E4D7C" stroke="#1C4F80" stroke-width="0.5"/>
<path d="M89.3211 66.2486C90.1782 66.2486 90.8731 65.5537 90.8731 64.6966C90.8731 63.8394 90.1782 63.1445 89.3211 63.1445C88.4639 63.1445 87.769 63.8394 87.769 64.6966C87.769 65.5537 88.4639 66.2486 89.3211 66.2486Z" fill="#1E4D7C" stroke="#1C4F80" stroke-width="0.5"/>
</svg>
