<svg width="160" height="160" viewBox="0 0 160 160" fill="none" xmlns="http://www.w3.org/2000/svg">
<circle cx="80" cy="80" r="76.5" fill="white" stroke="#D3DD48" stroke-width="7"/>
<g clip-path="url(#clip0_1166_1305)">
<path d="M104.665 45.2207H54.894V117.986H104.665V45.2207Z" fill="#00AEEF"/>
<path d="M58.6316 129.907C58.4935 129.842 58.3508 129.787 58.2047 129.743C55.1148 128.977 53.2211 126.644 53.1045 123.445C53.1045 123.258 53.1045 123.071 53.1045 122.884C53.1045 95.6916 53.1045 68.4948 53.1045 41.2929C53.1045 39.1346 53.6182 37.1535 55.3109 35.7637C56.2142 35.0152 57.4006 34.6334 58.4578 34.0845H101.175C101.797 34.2598 102.406 34.4766 103 34.7332C105.553 36.0282 106.881 38.1266 106.891 41.0234C106.903 45.2951 106.891 49.5667 106.891 53.8384C106.891 69.3356 106.891 94.8134 106.891 110.311C106.91 110.745 106.871 111.179 106.774 111.603C106.702 111.911 106.516 112.181 106.254 112.356C105.992 112.532 105.673 112.601 105.362 112.549C105.047 112.541 104.747 112.414 104.521 112.194C104.294 111.974 104.158 111.677 104.139 111.361C104.106 110.989 104.097 110.614 104.111 110.241C104.111 92.9969 104.111 65.7751 104.111 48.5313V47.3311H55.9636V116.728H104.111V113.3C104.111 111.523 104.111 109.744 104.111 107.968C104.111 106.887 104.583 106.323 105.442 106.301C106.34 106.278 106.886 106.87 106.889 107.975C106.889 113.088 106.931 118.205 106.876 123.315C106.841 126.531 104.856 128.944 101.783 129.738C101.639 129.784 101.498 129.841 101.362 129.907H58.6316ZM56.0033 44.4417H104.106C104.106 43.2116 104.106 42.0963 104.106 40.9835C104.077 38.5832 102.451 36.9115 100.078 36.9115C86.5887 36.9015 73.104 36.9015 59.6243 36.9115C57.7629 36.9115 56.2763 38.0617 56.0529 39.9056C55.8593 41.4027 56.0033 42.9322 56.0033 44.4417ZM55.8842 119.627V122.744C55.8842 125.686 57.2889 127.098 60.2125 127.098H99.7731C100.051 127.098 100.332 127.098 100.61 127.098C102.233 126.983 103.742 125.815 103.938 124.208C104.116 122.711 103.975 121.184 103.975 119.637L55.8842 119.627Z" fill="#1E4D7C" stroke="#1C4F80" stroke-width="0.75"/>
<path d="M56.003 44.4419C56.003 42.9324 55.859 41.3979 56.0402 39.9058C56.2635 38.0544 57.7502 36.9116 59.6116 36.9116C73.1012 36.9116 86.59 36.9116 100.078 36.9116C102.451 36.9116 104.076 38.5883 104.104 40.9887C104.118 42.1015 104.104 43.2168 104.104 44.4469L56.003 44.4419ZM79.9205 39.282C79.4678 39.2818 79.0329 39.4593 78.7084 39.7767C78.3839 40.094 78.1955 40.5262 78.1832 40.9812C78.1871 41.4375 78.3684 41.8742 78.6884 42.1978C79.0085 42.5215 79.4418 42.7063 79.8957 42.7128C80.3488 42.7129 80.7841 42.5351 81.1086 42.2172C81.4332 41.8993 81.6213 41.4665 81.633 41.0111C81.6285 40.5552 81.4469 40.1191 81.1269 39.7961C80.8069 39.473 80.374 39.2885 79.9205 39.282V39.282Z" fill="white"/>
<path d="M55.8843 119.628H103.975C103.975 121.175 104.116 122.707 103.938 124.199C103.742 125.806 102.233 126.974 100.61 127.088C100.332 127.108 100.051 127.088 99.7732 127.088H60.2126C57.289 127.088 55.8892 125.676 55.8843 122.734V119.628ZM79.9259 121.661C79.092 121.661 78.2556 121.641 77.4217 121.661C76.5878 121.681 76.0418 122.203 75.9922 122.954C75.9768 123.142 76.0002 123.331 76.0608 123.509C76.1214 123.688 76.218 123.851 76.3445 123.99C76.471 124.13 76.6247 124.241 76.7959 124.318C76.9672 124.394 77.1524 124.435 77.3398 124.436C79.0771 124.481 80.802 124.483 82.5294 124.436C82.7091 124.428 82.8855 124.384 83.0484 124.307C83.2112 124.23 83.3572 124.122 83.4779 123.987C83.5987 123.853 83.6917 123.696 83.7517 123.526C83.8117 123.355 83.8374 123.174 83.8274 122.994C83.8222 122.814 83.782 122.637 83.7088 122.474C83.6357 122.31 83.5311 122.162 83.4011 122.039C83.2711 121.915 83.1182 121.819 82.9512 121.755C82.7842 121.691 82.6062 121.661 82.4276 121.666C81.5962 121.639 80.7598 121.661 79.9259 121.661V121.661Z" fill="white"/>
<path d="M79.9209 39.2822C80.3743 39.2887 80.8073 39.4732 81.1273 39.7963C81.4472 40.1194 81.6289 40.5554 81.6334 41.0114C81.6217 41.4667 81.4335 41.8995 81.109 42.2174C80.7844 42.5353 80.3492 42.7132 79.8961 42.713C79.4422 42.7065 79.0089 42.5217 78.6888 42.1981C78.3688 41.8744 78.1874 41.4377 78.1836 40.9814C78.1959 40.5264 78.3843 40.0943 78.7088 39.7769C79.0333 39.4596 79.4682 39.2821 79.9209 39.2822V39.2822Z" fill="#1E4D7C" stroke="#1C4F80" stroke-width="0.75"/>
<path d="M79.9256 121.661C80.7595 121.661 81.5959 121.639 82.4273 121.661C82.6063 121.656 82.7847 121.686 82.952 121.751C83.1194 121.815 83.2725 121.911 83.4025 122.035C83.5326 122.159 83.637 122.307 83.7099 122.472C83.7828 122.636 83.8226 122.814 83.8271 122.994C83.8364 123.174 83.8102 123.354 83.7499 123.524C83.6896 123.694 83.5964 123.851 83.4758 123.984C83.3551 124.118 83.2093 124.226 83.0469 124.303C82.8844 124.379 82.7084 124.423 82.5291 124.431C80.7918 124.486 79.0694 124.483 77.3395 124.431C77.1521 124.43 76.9669 124.389 76.7956 124.313C76.6244 124.236 76.4707 124.125 76.3442 123.985C76.2177 123.846 76.1211 123.682 76.0605 123.504C75.9999 123.326 75.9765 123.137 75.9919 122.949C76.0415 122.2 76.59 121.681 77.4214 121.656C78.2529 121.631 79.0917 121.661 79.9256 121.661Z" fill="#1E4D7C" stroke="#1C4F80" stroke-width="0.75"/>
<path d="M63.1211 95.1379L68.4447 89.3991L66.1812 89.7011C71.758 93.9577 77.3049 89.3992 76.4288 82.3754C73.4158 82.3754 71.6636 81.2201 71.6636 79.3413C71.6636 78.1511 72.4082 76.8611 73.9271 75.4863L72.2047 75.6211C79.3598 84.4214 87.473 88.0243 97.6585 85.2423C95.8889 75.3865 89.3691 69.0239 77.3843 67.2773C78.5805 74.3685 80.3327 77.3676 86.8525 80.6363V77.1431C83.1298 75.1994 81.7672 72.9538 81.1145 70.4561L80.3005 71.0101C87.3936 72.3674 93.0671 77.0433 94.1045 83.8325L94.9483 82.7097C85.4826 83.9997 80.5238 80.6637 72.8748 71.9981C69.9264 74.346 68.7003 77.0433 68.7003 79.3238C68.7003 82.9767 71.3931 85.1574 75.9672 85.1574L73.7335 83.4108C73.9569 88.6232 70.5617 89.7135 66.767 86.5797L63.1187 90.502L63.1211 95.1379ZM66.7546 80.1372C65.6079 79.6008 64.3794 79.0643 63.1211 78.5603V82.031C64.3592 82.5104 65.5719 83.0534 66.7546 83.6579V80.1372ZM78.6674 85.7188V89.7759C82.204 92.5405 85.3684 95.7093 88.6097 99.4296H92.5633C88.1754 93.8654 83.6336 89.4391 78.6773 85.7188H78.6674ZM89.3592 88.4186V92.7751C90.4611 93.9652 91.5581 95.1903 92.6923 96.4978H96.5466C94.2484 93.4961 91.9031 90.6966 89.3691 88.4186H89.3592Z" fill="white"/>
</g>
<defs>
<clipPath id="clip0_1166_1305">
<rect width="54" height="96" fill="white" transform="translate(53 34)"/>
</clipPath>
</defs>
</svg>
