<svg width="120" height="120" viewBox="0 0 120 120" fill="none" xmlns="http://www.w3.org/2000/svg">
<circle cx="60" cy="60" r="60" fill="#D1DD48"/>
<g clip-path="url(#clip0)">
<path d="M75 62H80.5V64.5L76.5 72L73 72.5V76.5H83.5L89 70.5L92 71V78L90 81.5L89.5 84.5H82.5L83.5 89V93L79 92L74 89L70.5 90L49.5 81V74L34.5 56.5L32 58.5V62L41 75V82.5L37.5 83L35.5 79L35 75.5L30.5 74L28.5 71V67.5L26 64.5V57L24 53V46H29.5L40 52L46 51L70.5 55L75 62Z" fill="white"/>
<path d="M75.9995 48.5L62.4995 68.5C59.2995 71.3 57.1662 69 56.4995 67.5L44.4995 48.5C42.3329 40.6667 42.3995 24.8 59.9995 24C77.5995 25.2 77.9995 40.8333 75.9995 48.5Z" fill="#00AEEF"/>
<circle cx="60" cy="41" r="10" fill="#D1DD48"/>
<path d="M60.2581 52.553C66.4836 52.553 71.5484 47.454 71.5484 41.1864C71.5484 34.9189 66.4836 29.8198 60.2581 29.8198C54.0326 29.8198 48.9678 34.9189 48.9678 41.1864C48.9678 47.454 54.0326 52.553 60.2581 52.553ZM60.2581 32.0931C65.2383 32.0931 69.2904 36.1726 69.2904 41.1864C69.2904 46.2002 65.2383 50.2797 60.2581 50.2797C55.2779 50.2797 51.2258 46.2002 51.2258 41.1864C51.2258 36.1726 55.2779 32.0931 60.2581 32.0931Z" fill="#1E4D7C"/>
<path d="M89.1455 69.6031L83.5003 75.2864H73.8065V73.0131H76.6685L81.7097 65.4009V60.5098H75.5169L72.4889 56.2428L75.404 51.728C77.3132 48.7704 78.3226 45.3422 78.3226 41.8163V41.1866C78.3226 31.159 70.2184 23 60.2581 23C50.2977 23 42.1935 31.159 42.1935 41.1866V41.8163C42.1935 44.783 42.9161 47.6746 44.2789 50.2799H40.2279L30.0666 44.5966H23V52.8214L25.2581 57.3681V64.2631L27.5161 67.673V71.083L30.2066 75.1443L34.2903 76.1741V77.828L36.9797 83.243H42.1935V74.942L33.1613 61.3021V58.7071L34.235 57.6261L48.9677 74.5771V81.7074L70.3606 91.2804L73.671 90.1687L79.1389 93.473H85.0968V89.7947L83.9677 87.5214V85.5164H90.7419V82.3746L93 77.828V69.6031H89.1455ZM44.4516 41.1866C44.4516 32.4116 51.5419 25.2733 60.2581 25.2733C68.9742 25.2733 76.0645 32.4116 76.0645 41.1866V41.8163C76.0645 44.9023 75.1816 47.902 73.5095 50.489L62.7995 67.0786C62.2384 67.947 61.2889 68.4664 60.2581 68.4664C59.2273 68.4664 58.2777 67.947 57.7166 67.0774L47.0066 50.4879C45.3345 47.9008 44.4516 44.9023 44.4516 41.8163V41.1866ZM90.7419 77.2915L88.4839 81.8381V83.243H81.7097V88.0579L82.8387 90.3312V91.1997H79.7644L73.9419 87.6828L70.4781 88.8445L51.2258 80.232V73.7224L34.3456 54.3002L30.9032 57.7659V61.9909L39.9355 75.6308V80.9697H38.3752L36.5484 77.2915V74.3987L31.5998 73.154L29.7742 70.3953V66.9854L27.5161 63.5754V56.8304L25.2581 52.2838V46.8699H29.4818L39.6431 52.5532H45.645L55.8221 68.3164C56.8021 69.8338 58.4595 70.7398 60.2581 70.7398C62.0566 70.7398 63.714 69.8338 64.694 68.3164L71.1679 58.2899L74.354 62.7831H79.4516V64.712L75.4605 70.7398H71.5484V77.5597H84.4352L90.0803 71.8764H90.7419V77.2915Z" fill="#1E4D7C"/>
</g>
<defs>
<clipPath id="clip0">
<rect width="70" height="70.473" fill="white" transform="translate(23 23)"/>
</clipPath>
</defs>
</svg>
