<svg width="120" height="120" viewBox="0 0 120 120" fill="none" xmlns="http://www.w3.org/2000/svg">
<circle cx="60" cy="60" r="60" fill="#D1DD48"/>
<path d="M33.9997 87.5002H87.9997V76.0002C87.9997 68.4002 81.9997 65.1668 78.9998 64.5002C70.8331 64.3335 51.9997 64.1002 41.9997 64.5002C31.9997 64.9002 32.4997 80.0002 33.9997 87.5002Z" fill="#00AEEF"/>
<path d="M60 77.5L51.5 64.5H69L60 77.5Z" fill="#F5CEB8" stroke="black"/>
<ellipse cx="42.5" cy="44.5" rx="4.5" ry="5.5" fill="#F5CEB8"/>
<ellipse cx="80.5" cy="44.5" rx="4.5" ry="5.5" fill="#F5CEB8"/>
<ellipse cx="61.5" cy="42.5" rx="18.5" ry="21.5" fill="#F5CEB8"/>
<path d="M76.3285 62.5848H71.3078C75.2224 60.2735 78.1939 56.418 79.5216 51.9526C83.6332 51.6666 86.8914 48.2102 86.8914 44.0272C86.8914 40.0923 84.0084 36.853 80.2436 36.2406C79.6171 26.6111 71.5823 19 61.7898 19H60.4839C50.6914 19 42.6559 26.5998 42.0296 36.2294C38.2648 36.8418 35.3818 40.0924 35.3818 44.0272C35.3818 48.2104 38.6398 51.6777 42.7515 51.9636C44.0796 56.4292 47.0509 60.2735 50.9657 62.5847H45.9445C38.6636 62.5847 32.6035 68.4207 32.6035 75.703V87.5897C32.6035 88.3198 33.3317 88.9999 34.0609 88.9999H88.2118C88.9412 88.9999 89.3958 88.3198 89.3958 87.5897V75.703C89.3961 68.421 83.6095 62.5848 76.3285 62.5848ZM80.1509 46.653V38.8959C82.4622 39.4847 84.1815 41.5483 84.1815 44.005C84.1815 46.5246 82.3735 48.6341 80.0105 49.1593C80.1222 48.339 80.1509 47.5033 80.1509 46.653ZM37.955 44.005C37.955 41.5483 39.8678 39.4846 41.8488 38.8959V46.653C41.8488 47.5033 41.9459 48.3392 42.0576 49.1595C39.6946 48.6341 37.955 46.5246 37.955 44.005ZM44.4904 37.3948C44.4904 28.659 51.7403 21.6415 60.4839 21.6415H61.7898C70.5327 21.6415 77.5092 28.659 77.5092 37.3948V38.5005C68.9244 36.9134 65.6437 31.6684 65.5024 31.4385C65.276 31.0619 64.9111 30.8221 64.4725 30.7988C64.023 30.7808 63.5597 30.9742 63.2966 31.3264C57.3029 39.3176 48.1225 40.9473 44.4904 41.2789V37.3948ZM44.4904 46.653V43.9402C48.1225 43.662 57.4787 42.1771 64.2752 34.2593C66.0734 36.3249 70.2451 39.9645 77.5092 41.1826V46.653C77.5092 55.3888 70.5327 62.585 61.7898 62.585H60.4839C51.7403 62.5848 44.4904 55.3888 44.4904 46.653ZM59.0187 86.3585H35.2452V75.7031C35.2452 69.8772 40.1206 65.2264 45.9447 65.2264H50.5056L59.0188 78.73L59.0187 86.3585ZM60.4762 75.7254C60.439 75.7254 60.404 75.767 60.3675 75.7699L53.637 65.2264H60.4839H61.7898H67.3153L60.5848 75.7589C60.5484 75.7556 60.5134 75.7254 60.4762 75.7254ZM86.7545 86.3585H61.6602V78.73L70.4469 65.2264H76.3285C82.1526 65.2264 86.7547 69.8772 86.7547 75.7031L86.7545 86.3585Z" fill="#1C4F80"/>
<path d="M53.872 42.6841C52.4151 42.6841 51.2305 43.8694 51.2305 45.3256C51.2305 46.7818 52.4151 47.9672 53.872 47.9672C55.3289 47.9672 56.5136 46.7818 56.5136 45.3256C56.5136 43.8693 55.3289 42.6841 53.872 42.6841Z" fill="#1C4F80"/>
<path d="M68.4013 42.6841C66.9444 42.6841 65.7598 43.8694 65.7598 45.3256C65.7598 46.7818 66.9444 47.9672 68.4013 47.9672C69.8582 47.9672 71.0429 46.7818 71.0429 45.3256C71.0429 43.8693 69.8582 42.6841 68.4013 42.6841Z" fill="#1C4F80"/>
<path d="M69.3785 52.3617C68.8891 51.8226 68.0539 51.7825 67.5129 52.2727C66.4063 53.28 62.9838 55.8919 60.477 55.8919C58.1032 55.8919 55.6609 53.4039 54.92 52.4442C54.4737 51.8677 53.6444 51.7594 53.0685 52.2043C52.4913 52.6493 52.3817 53.4761 52.8254 54.0538C52.9654 54.237 56.3079 58.5333 60.4772 58.5333C64.4394 58.5333 68.8054 54.6678 69.2903 54.2279C69.83 53.7365 69.8693 52.902 69.3785 52.3617Z" fill="#1C4F80"/>
<path d="M64 32.5C60.4 39.3 48.8333 41.6667 43.5 42C43.5 33.5 45.5 21.5 61.5 20C74.3 18.8 77.8333 32.8334 78 40C75.1667 39.3334 68.4 36.9 64 32.5Z" fill="#432929"/>
</svg>
