<svg width="120" height="120" viewBox="0 0 120 120" fill="none" xmlns="http://www.w3.org/2000/svg">
<circle cx="60" cy="60" r="60" fill="#D1DD48"/>
<circle cx="84" cy="81" r="10" fill="white"/>
<path d="M77 85.1314L79.1578 82.635L78.2404 82.7664C80.5016 84.6204 82.7499 82.635 82.3946 79.5766C81.1735 79.5766 80.4629 79.073 80.4629 78.2555C80.4629 77.7372 80.7665 77.1752 81.3802 76.5766L80.6825 76.635C83.5833 80.4672 86.8717 82.0365 91 80.8248C90.2829 76.5328 87.6405 73.7591 82.7822 73C83.2667 76.0876 83.9774 77.3942 86.6198 78.8175V77.292C85.108 76.4453 84.5588 75.4672 84.294 74.3796L83.9645 74.6204C86.8394 75.2117 89.1394 77.2482 89.5593 80.2044L89.9017 79.7153C86.0641 80.2774 84.0549 78.8248 80.9539 75.0511C79.7587 76.073 79.2612 77.2482 79.2612 78.2409C79.2612 79.8321 80.353 80.781 82.2072 80.781L81.3027 80.0219C81.3932 82.292 80.0171 82.7664 78.4795 81.4015L77 83.1095V85.1314ZM78.473 78.5985C78.0078 78.365 77.5104 78.1314 77 77.9124V79.4234C77.5104 79.6423 78.0078 79.8686 78.473 80.1314V78.5985ZM83.3055 81.0292V82.7956C84.7397 84 86.0254 85.3796 87.3369 87H88.9391C87.156 84.5766 85.3147 82.6496 83.3055 81.0292ZM87.6405 82.2044V84.1022C88.0863 84.6204 88.5321 85.1533 88.9908 85.7226H90.5542C89.6174 84.4161 88.6677 83.1971 87.6405 82.2044Z" fill="#0090CC"/>
<circle cx="61" cy="54" r="15" fill="#F5CEB8"/>
<path d="M41.5 76C34.7 78 33.6667 87.1667 34 91.5H81C78.6667 89.8333 73.8 85.7 73 82.5C72.2 79.3 73.3333 76.1667 74 75L67 73L60.5 79.5L54 72C52.6667 72.5 48.3 74 41.5 76Z" fill="#00AEEF"/>
<circle cx="45" cy="53" r="3" fill="#F5CEB8"/>
<circle cx="76" cy="54" r="3" fill="#F5CEB8"/>
<path d="M54.5 73L54 68L67 67V73L60.5 79.5L54.5 73Z" fill="#F5CEB8"/>
<path d="M60.5 43.5L47 48L44.5 44.5L45 42.5V39.5L46 35.5V31.5L54.5 29L62.5 28.5L75.5 32.5L76.5 42.5V48L74 49L69 46.5L60.5 43.5Z" fill="#00AEEF"/>
<path d="M60.5111 59.9977C61.7153 60.0484 62.9168 59.8464 64.0382 59.4047C65.1596 58.9629 66.1761 58.2912 67.0222 57.4328L65.3695 56C64.7255 56.6165 63.9625 57.0951 63.1271 57.4063C62.2916 57.7176 61.4015 57.855 60.5111 57.8102C59.6207 57.855 58.7305 57.7176 57.8951 57.4063C57.0597 57.0951 56.2966 56.6165 55.6527 56L54 57.4328C54.8461 58.2912 55.8626 58.9629 56.984 59.4047C58.1054 59.8464 59.3069 60.0484 60.5111 59.9977V59.9977Z" fill="#1E4D7C" stroke="#1C4F80" stroke-width="0.5"/>
<path d="M83.6875 68.75C81.979 68.7511 80.2905 69.117 78.7349 69.8235C77.1792 70.5299 75.7925 71.5604 74.6673 72.8461L68.375 71.188V67.7809C70.2211 66.722 71.8247 65.2877 73.0822 63.5707C74.3397 61.8537 75.2232 59.8921 75.6758 57.8125H76.0312C77.1524 57.7706 78.2146 57.2997 78.9984 56.4969C79.7822 55.6942 80.2276 54.621 80.2426 53.4991C80.2577 52.3773 79.8411 51.2926 79.0791 50.4691C78.3171 49.6457 77.2679 49.1464 76.1483 49.0745C76.5374 48.8837 76.8849 48.6176 77.1706 48.2917C77.4563 47.9658 77.6746 47.5865 77.813 47.1758L78.1411 46.1914C78.4053 45.435 78.45 44.6193 78.2702 43.8386C78.0904 43.0578 77.6934 42.3439 77.125 41.7792V34.8766C77.125 33.6761 76.7301 32.509 76.0011 31.5553C75.2721 30.6016 74.2496 29.9142 73.0913 29.5992C69.0313 28.5 63.6008 27.1875 60.7188 27.1875C56.9606 27.1875 51.2939 28.6673 48.25 29.5489C47.1146 29.8815 46.1174 30.5728 45.4077 31.5194C44.6979 32.466 44.3137 33.6169 44.3125 34.8V41.7792C43.7442 42.3437 43.3472 43.0574 43.1672 43.8379C42.9872 44.6185 43.0316 45.434 43.2953 46.1903L43.6234 47.1747C43.7618 47.5854 43.9801 47.9647 44.2658 48.2906C44.5515 48.6165 44.899 48.8826 45.2881 49.0734C44.1664 49.1427 43.1143 49.641 42.3501 50.465C41.5858 51.289 41.1679 52.3755 41.1831 53.4993C41.1983 54.623 41.6454 55.6978 42.4316 56.5009C43.2179 57.3039 44.2831 57.7736 45.4062 57.8125H45.7683C46.2202 59.8911 47.1028 61.8518 48.3591 63.5682C49.6155 65.2846 51.2178 66.7186 53.0625 67.7777V71.188L42.8906 73.872C39.8513 74.6676 37.1614 76.4481 35.2417 78.9352C33.322 81.4222 32.2809 84.4755 32.2813 87.6172V91.7188C32.2813 92.0088 32.3965 92.287 32.6016 92.4921C32.8067 92.6973 33.0849 92.8125 33.375 92.8125H83.6875C86.8784 92.8125 89.9386 91.5449 92.1949 89.2886C94.4512 87.0323 95.7188 83.9721 95.7188 80.7812C95.7188 77.5904 94.4512 74.5302 92.1949 72.2739C89.9386 70.0176 86.8784 68.75 83.6875 68.75V68.75ZM55.25 68.8266C58.7698 70.1821 62.6677 70.1821 66.1875 68.8266V71.6266L60.7188 78.0064L55.25 71.6266V68.8266ZM78.2188 53.4375C78.2188 54.0177 77.9883 54.5741 77.578 54.9843C77.1678 55.3945 76.6114 55.625 76.0312 55.625V51.25C76.6114 51.25 77.1678 51.4805 77.578 51.8907C77.9883 52.3009 78.2188 52.8573 78.2188 53.4375ZM74.9375 34.8766V40.5312C73.5222 40.1867 71.9516 39.8258 70.3536 39.4878L73.427 32.117C73.8898 32.4137 74.2706 32.8218 74.5345 33.304C74.7985 33.7861 74.937 34.3269 74.9375 34.8766ZM71.3555 31.4028L68.1672 39.0503C65.7153 38.5299 63.2234 38.2203 60.7188 38.125C57.9168 38.244 55.1308 38.61 52.3931 39.2188L49.7812 31.3908C53.3372 30.2996 57.0074 29.6232 60.7188 29.375C64.3249 29.6812 67.8896 30.3608 71.3555 31.4028V31.4028ZM47.7545 32.2308L50.2363 39.6683C48.9325 39.9527 47.6648 40.2491 46.5 40.5323V34.8C46.5017 34.3048 46.6155 33.8165 46.8327 33.3716C47.05 32.9266 47.3651 32.5366 47.7545 32.2308V32.2308ZM45.5309 43.748C45.6761 43.482 45.8756 43.2496 46.1164 43.0657C46.3572 42.8818 46.634 42.7505 46.9288 42.6805C50.5469 41.7956 57.1597 40.3125 60.7188 40.3125C64.2778 40.3125 70.8906 41.7956 74.5088 42.6805C74.8027 42.7521 75.0786 42.8839 75.3191 43.0675C75.5595 43.2512 75.7592 43.4827 75.9056 43.7475C76.052 44.0123 76.1418 44.3046 76.1695 44.6059C76.1971 44.9072 76.162 45.211 76.0663 45.498L75.7381 46.4823C75.6919 46.6235 75.6171 46.7535 75.5183 46.8644C75.4195 46.9752 75.2988 47.0645 75.1639 47.1266C75.0273 47.1899 74.8793 47.2246 74.7288 47.2285C74.5783 47.2325 74.4286 47.2056 74.2889 47.1495C73.5397 46.8509 72.6319 46.4397 71.6311 45.988C68.1923 44.4348 63.9114 42.5 60.7188 42.5C57.5261 42.5 53.2452 44.4348 49.8064 45.9902C48.8056 46.4419 47.8978 46.8531 47.1497 47.1517C47.01 47.2076 46.8603 47.2344 46.7098 47.2305C46.5594 47.2265 46.4113 47.1919 46.2747 47.1288C46.1398 47.0667 46.0191 46.9774 45.9203 46.8666C45.8215 46.7557 45.7467 46.6257 45.7005 46.4845L45.3723 45.5002C45.2747 45.2133 45.2384 44.9091 45.2657 44.6072C45.293 44.3054 45.3834 44.0127 45.5309 43.748V43.748ZM45.4062 55.625C44.8261 55.625 44.2697 55.3945 43.8595 54.9843C43.4492 54.5741 43.2188 54.0177 43.2188 53.4375C43.2188 52.8573 43.4492 52.3009 43.8595 51.8907C44.2697 51.4805 44.8261 51.25 45.4062 51.25V55.625ZM47.5938 54.5312V49.2878C47.7175 49.2604 47.8394 49.2257 47.9591 49.1839C48.7334 48.8755 49.673 48.4511 50.7077 47.9808C53.7833 46.5928 57.9975 44.6875 60.7188 44.6875C63.44 44.6875 67.6542 46.5928 70.7298 47.983C71.7645 48.4511 72.6986 48.8755 73.4784 49.1861C73.598 49.2295 73.72 49.2661 73.8438 49.2955V54.5312C73.8438 58.0122 72.4609 61.3506 69.9995 63.812C67.5381 66.2734 64.1997 67.6562 60.7188 67.6562C57.2378 67.6562 53.8994 66.2734 51.438 63.812C48.9766 61.3506 47.5938 58.0122 47.5938 54.5312V54.5312ZM53.7723 73.2639L59.8886 80.3995C59.9913 80.5192 60.1186 80.6153 60.2619 80.6812C60.4052 80.747 60.561 80.7811 60.7188 80.7811C60.8765 80.7811 61.0323 80.747 61.1756 80.6812C61.3189 80.6153 61.4462 80.5192 61.5489 80.3995L67.6663 73.2639L69.0477 73.627L60.7188 83.4642L52.3898 73.6281L53.7723 73.2639ZM46.5 90.625V82.9688H44.3125V90.625H34.4688V87.6172C34.4683 84.9593 35.3489 82.3762 36.9726 80.2719C38.5964 78.1676 40.8718 76.6609 43.443 75.9873L50.0459 74.2461L59.8842 85.8628C59.9869 85.984 60.1147 86.0814 60.2589 86.1482C60.403 86.215 60.5599 86.2496 60.7188 86.2496C60.8776 86.2496 61.0345 86.215 61.1786 86.1482C61.3228 86.0814 61.4506 85.984 61.5533 85.8628L71.397 74.245L73.3002 74.7459C71.7782 77.3472 71.2929 80.4265 71.941 83.3698C72.5891 86.313 74.3231 88.9037 76.7969 90.625H46.5ZM83.6875 90.625C81.7406 90.625 79.8374 90.0477 78.2186 88.966C76.5998 87.8844 75.3381 86.347 74.5931 84.5483C73.848 82.7496 73.6531 80.7703 74.0329 78.8608C74.4127 76.9513 75.3502 75.1973 76.7269 73.8207C78.1036 72.444 79.8576 71.5065 81.7671 71.1266C83.6766 70.7468 85.6558 70.9418 87.4545 71.6868C89.2532 72.4319 90.7906 73.6936 91.8723 75.3124C92.9539 76.9312 93.5312 78.8343 93.5312 80.7812C93.5281 83.391 92.4899 85.8929 90.6446 87.7383C88.7992 89.5837 86.2972 90.6218 83.6875 90.625V90.625Z" fill="#1E4D7C" stroke="#1C4F80" stroke-width="0.5"/>
<path d="M54.1562 51.25C54.7603 51.25 55.25 50.7603 55.25 50.1562C55.25 49.5522 54.7603 49.0625 54.1562 49.0625C53.5522 49.0625 53.0625 49.5522 53.0625 50.1562C53.0625 50.7603 53.5522 51.25 54.1562 51.25Z" fill="#1E4D7C" stroke="#1C4F80" stroke-width="0.5"/>
<path d="M67.2812 51.25C67.8853 51.25 68.375 50.7603 68.375 50.1562C68.375 49.5522 67.8853 49.0625 67.2812 49.0625C66.6772 49.0625 66.1875 49.5522 66.1875 50.1562C66.1875 50.7603 66.6772 51.25 67.2812 51.25Z" fill="#1E4D7C" stroke="#1C4F80" stroke-width="0.5"/>
</svg>
