<svg width="50" height="50" viewBox="0 0 50 50" fill="none" xmlns="http://www.w3.org/2000/svg">
<path d="M24.6565 49.6675C38.274 49.6675 49.3131 38.5491 49.3131 24.8338C49.3131 11.1185 38.274 0 24.6565 0C11.0391 0 0 11.1185 0 24.8338C0 38.5491 11.0391 49.6675 24.6565 49.6675Z" fill="#00AEEF"/>
<path d="M17.6695 35.5313L18.144 35.813C20.138 36.9967 22.4245 37.6221 24.7559 37.6236H24.7609C31.9217 37.6236 37.7492 31.7967 37.7521 24.636C37.7536 21.1657 36.403 17.9028 33.9504 15.4472C31.4977 12.9931 28.2369 11.6404 24.766 11.639C17.6001 11.639 11.7719 17.4644 11.7697 24.6259C11.769 27.0799 12.4551 29.4698 13.7558 31.5375L14.0649 32.0286L12.7519 36.8212L17.6695 35.5313ZM9 40.5327L11.2172 32.4359C9.84933 30.0663 9.13 27.3782 9.13072 24.6244C9.13433 16.0091 16.1456 9 24.7616 9C28.9425 9.00144 32.8671 10.6293 35.818 13.5825C38.769 16.5356 40.3933 20.4616 40.3918 24.6374C40.3882 33.252 33.3755 40.2625 24.7616 40.2625C24.7609 40.2625 24.7616 40.2625 24.7616 40.2625H24.7551C22.1393 40.2618 19.5689 39.6053 17.286 38.3602L9 40.5327Z" fill="white"/>
<path d="M9.13144 24.6251C9.13072 27.3789 9.85005 30.067 11.2179 32.4366L9 40.5327L17.286 38.3602C19.5689 39.6053 22.1393 40.2611 24.7551 40.2625H24.7616C33.3755 40.2625 40.3882 33.252 40.3918 24.6374C40.3933 20.4623 38.769 16.5363 35.818 13.5825C32.8671 10.6293 28.9425 9.00144 24.7616 9C16.1456 9 9.13433 16.0091 9.13144 24.6251ZM14.0649 32.0286L13.7558 31.5375C12.4551 29.4698 11.769 27.0799 11.7697 24.6259C11.7726 17.4651 17.6001 11.639 24.766 11.639C28.2362 11.6404 31.4977 12.9931 33.9511 15.4479C36.4037 17.9028 37.7536 21.1657 37.7528 24.636C37.75 31.7967 31.9217 37.6236 24.7616 37.6236H24.7566C22.4253 37.6221 20.1387 36.9967 18.1447 35.813L17.6702 35.5313L12.7526 36.8205L14.0649 32.0286Z" fill="url(#paint0_linear_5_38)"/>
<path fill-rule="evenodd" clip-rule="evenodd" d="M20.7952 18.0898C20.5027 17.4391 20.1951 17.4261 19.9163 17.4153C19.6888 17.4059 19.4281 17.4059 19.1681 17.4059C18.9073 17.4059 18.4841 17.5034 18.1266 17.8941C17.7684 18.2848 16.7595 19.2295 16.7595 21.1513C16.7595 23.0731 18.1591 24.9299 18.3541 25.1906C18.5491 25.4506 21.0559 29.5203 25.0252 31.0854C28.3243 32.3861 28.996 32.1275 29.7117 32.0625C30.4274 31.9975 32.0221 31.1179 32.3478 30.2064C32.6735 29.2943 32.6735 28.5128 32.576 28.3496C32.4785 28.1871 32.2178 28.0889 31.8271 27.8939C31.4363 27.6989 29.5167 26.7535 29.1585 26.6235C28.8003 26.4935 28.5403 26.4285 28.2795 26.8192C28.0195 27.21 27.2713 28.0889 27.0431 28.3496C26.8156 28.6103 26.5874 28.6428 26.1967 28.4478C25.8059 28.2521 24.5478 27.8397 23.0558 26.5094C21.8944 25.4745 21.1108 24.1962 20.8833 23.8047C20.6558 23.414 20.8588 23.2024 21.0545 23.0081C21.23 22.8333 21.4452 22.5524 21.6402 22.3242C21.8352 22.096 21.9002 21.9335 22.0302 21.6727C22.1602 21.412 22.0952 21.1838 21.9977 20.9888C21.9009 20.7931 21.1419 18.8619 20.7952 18.0898Z" fill="white"/>
<defs>
<linearGradient id="paint0_linear_5_38" x1="24.6948" y1="40.5328" x2="24.6948" y2="35.3908" gradientUnits="userSpaceOnUse">
<stop stop-color="#F9F9F9"/>
<stop offset="1" stop-color="white"/>
</linearGradient>
</defs>
</svg>
