<svg width="49" height="50" viewBox="0 0 49 50" fill="none" xmlns="http://www.w3.org/2000/svg">
<g filter="url(#filter0_d_2919_1979)">
<path d="M24.5771 7.21814C14.491 7.21814 6.28267 15.3877 6.27911 25.4278C6.27674 28.6385 7.12081 31.772 8.72121 34.532L6.125 43.9681L15.8258 41.4361C18.5242 42.8946 21.5246 43.6555 24.5699 43.6533H24.5771C34.6632 43.6533 42.8714 35.4826 42.875 25.4425C42.8774 20.5792 40.9759 16.0014 37.5202 12.5604C34.0657 9.11811 29.4719 7.21936 24.5771 7.21814ZM24.5771 40.5773H24.5711C21.8421 40.5773 19.1653 39.8472 16.8299 38.4679L16.2727 38.1396L10.5184 39.6414L12.0548 34.0554L11.6932 33.4834C10.1745 31.0899 9.36603 28.2899 9.3673 25.4278C9.37085 17.0818 16.1945 10.2941 24.583 10.2941C28.6445 10.2953 32.4629 11.8719 35.3353 14.7323C38.2077 17.5927 39.788 21.3963 39.7856 25.4412C39.7821 33.7872 32.9596 40.5773 24.5759 40.5773H24.5771ZM32.9193 29.24C32.4617 29.0133 30.214 27.9121 29.7944 27.7589C29.3759 27.6083 29.0712 27.5299 28.7666 27.9856C28.4631 28.4413 27.5858 29.4666 27.3203 29.7692C27.0523 30.073 26.7856 30.1097 26.328 29.8831C25.8704 29.6552 24.3969 29.175 22.6518 27.6242C21.2921 26.4188 20.3745 24.9292 20.1078 24.4723C19.841 24.0178 20.0793 23.7716 20.3081 23.5449C20.5132 23.3428 20.7657 23.0145 20.9933 22.7487C21.221 22.4829 21.2968 22.293 21.4509 21.9892C21.6027 21.6866 21.5268 21.4196 21.4118 21.1929C21.2968 20.9639 20.384 18.7246 20.0011 17.8144C19.6312 16.9275 19.2542 17.0463 18.9733 17.0316C18.7065 17.0194 18.4031 17.0157 18.096 17.0157C17.7937 17.0157 17.297 17.1296 16.8773 17.5853C16.4589 18.041 15.2769 19.1411 15.2769 21.3804C15.2769 23.6209 16.9153 25.7842 17.1441 26.088C17.3729 26.3906 20.3686 30.988 24.9552 32.9603C26.0459 33.427 26.897 33.7075 27.5621 33.9182C28.6575 34.2649 29.6545 34.2147 30.4416 34.0983C31.3189 33.9672 33.1469 32.9983 33.5263 31.9362C33.908 30.8741 33.908 29.9627 33.7942 29.7728C33.6828 29.583 33.3769 29.469 32.9193 29.24V29.24Z" fill="#0090CC"/>
</g>
<defs>
<filter id="filter0_d_2919_1979" x="-4.33333" y="-3.83333" width="57.6667" height="57.6667" filterUnits="userSpaceOnUse" color-interpolation-filters="sRGB">
<feFlood flood-opacity="0" result="BackgroundImageFix"/>
<feColorMatrix in="SourceAlpha" type="matrix" values="0 0 0 0 0 0 0 0 0 0 0 0 0 0 0 0 0 0 127 0" result="hardAlpha"/>
<feOffset/>
<feGaussianBlur stdDeviation="2.16667"/>
<feColorMatrix type="matrix" values="0 0 0 0 1 0 0 0 0 1 0 0 0 0 1 0 0 0 1 0"/>
<feBlend mode="normal" in2="BackgroundImageFix" result="effect1_dropShadow_2919_1979"/>
<feBlend mode="normal" in="SourceGraphic" in2="effect1_dropShadow_2919_1979" result="shape"/>
</filter>
</defs>
</svg>
