<svg width="49" height="50" viewBox="0 0 49 50" fill="none" xmlns="http://www.w3.org/2000/svg">
<g filter="url(#filter0_d_2919_1983)">
<path fill-rule="evenodd" clip-rule="evenodd" d="M16.9246 6.73525C18.8846 6.64583 19.5094 6.625 24.5 6.625C29.4919 6.625 30.1154 6.64705 32.0742 6.73525C34.0305 6.82468 35.3682 7.13705 36.5368 7.58908C37.7625 8.05073 38.8728 8.77392 39.7905 9.70832C40.7252 10.6262 41.4484 11.737 41.9097 12.9632C42.3642 14.1318 42.6753 15.4683 42.7648 17.4246C42.8542 19.3846 42.875 20.0094 42.875 25C42.875 29.9907 42.8542 30.6154 42.7648 32.5754C42.6753 34.5317 42.3642 35.8682 41.9109 37.0368C41.4493 38.2625 40.7261 39.3728 39.7917 40.2905C38.8729 41.2264 37.7619 41.9491 36.5368 42.4097C35.3682 42.8642 34.0317 43.1753 32.0754 43.2648C30.1154 43.3542 29.4907 43.375 24.5 43.375C19.5094 43.375 18.8846 43.3542 16.9246 43.2648C14.9683 43.1753 13.6318 42.8642 12.4632 42.4109C11.2375 41.9492 10.1273 41.226 9.20955 40.2917C8.27365 39.3729 7.5509 38.2619 7.0903 37.0368C6.63582 35.8682 6.32468 34.5317 6.23525 32.5754C6.14583 30.6154 6.125 29.9919 6.125 25C6.125 20.0081 6.14705 19.3846 6.23525 17.4258C6.32468 15.4695 6.63705 14.1318 7.08908 12.9632C7.55073 11.7375 8.27392 10.6272 9.20832 9.70955C10.1271 8.77365 11.2381 8.0509 12.4632 7.5903C13.6318 7.13582 14.9683 6.82468 16.9246 6.73525ZM31.926 10.0428C29.988 9.95455 29.4061 9.93618 24.5 9.93618C19.5939 9.93618 19.012 9.95455 17.074 10.0428C15.2831 10.1248 14.3104 10.4237 13.6624 10.6761C12.8642 10.97 12.1421 11.4393 11.5493 12.0493C10.9074 12.6924 10.508 13.3049 10.1761 14.1624C9.9225 14.8104 9.62483 15.7831 9.54275 17.574C9.45455 19.512 9.43618 20.0939 9.43618 25C9.43618 29.9061 9.45455 30.488 9.54275 32.426C9.62483 34.2169 9.92372 35.1896 10.1761 35.8376C10.4702 36.6357 10.9395 37.3577 11.5493 37.9507C12.1422 38.5606 12.8643 39.0298 13.6624 39.3239C14.3104 39.5775 15.2831 39.8752 17.074 39.9572C19.012 40.0454 19.5927 40.0638 24.5 40.0638C29.4074 40.0638 29.988 40.0454 31.926 39.9572C33.7169 39.8752 34.6896 39.5763 35.3376 39.3239C36.1358 39.03 36.8579 38.5607 37.4507 37.9507C38.0606 37.3578 38.5298 36.6357 38.8239 35.8376C39.0775 35.1896 39.3752 34.2169 39.4572 32.426C39.5454 30.488 39.5638 29.9061 39.5638 25C39.5638 20.0939 39.5454 19.512 39.4572 17.574C39.3752 15.7831 39.0763 14.8104 38.8239 14.1624C38.492 13.3049 38.0938 12.6924 37.4507 12.0493C36.8076 11.4074 36.1951 11.008 35.3376 10.6761C34.6896 10.4225 33.7169 10.1248 31.926 10.0428ZM22.1538 30.664C22.8976 30.9721 23.6949 31.1307 24.5 31.1307C26.1261 31.1307 27.6856 30.4847 28.8354 29.3349C29.9852 28.1851 30.6312 26.6256 30.6312 24.9996C30.6312 23.3735 29.9852 21.814 28.8354 20.6642C27.6856 19.5144 26.1261 18.8684 24.5 18.8684C23.6949 18.8684 22.8976 19.027 22.1538 19.3351C21.4099 19.6433 20.734 20.0949 20.1647 20.6642C19.5954 21.2335 19.1437 21.9094 18.8356 22.6533C18.5275 23.3972 18.3689 24.1944 18.3689 24.9996C18.3689 25.8047 18.5275 26.602 18.8356 27.3458C19.1437 28.0897 19.5954 28.7656 20.1647 29.3349C20.734 29.9043 21.4099 30.3559 22.1538 30.664ZM17.8216 18.3211C19.5928 16.5499 21.9951 15.5548 24.5 15.5548C27.0049 15.5548 29.4073 16.5499 31.1785 18.3211C32.9497 20.0924 33.9448 22.4947 33.9448 24.9996C33.9448 27.5045 32.9497 29.9068 31.1785 31.678C29.4073 33.4492 27.0049 34.4443 24.5 34.4443C21.9951 34.4443 19.5928 33.4492 17.8216 31.678C16.0504 29.9068 15.0553 27.5045 15.0553 24.9996C15.0553 22.4947 16.0504 20.0924 17.8216 18.3211ZM36.0386 16.962C36.4573 16.5433 36.6925 15.9754 36.6925 15.3833C36.6925 14.7912 36.4573 14.2233 36.0386 13.8047C35.6199 13.386 35.052 13.1508 34.4599 13.1508C33.8678 13.1508 33.2999 13.386 32.8812 13.8047C32.4626 14.2233 32.2273 14.7912 32.2273 15.3833C32.2273 15.9754 32.4626 16.5433 32.8812 16.962C33.2999 17.3807 33.8678 17.6159 34.4599 17.6159C35.052 17.6159 35.6199 17.3807 36.0386 16.962Z" fill="#0090CC"/>
</g>
<defs>
<filter id="filter0_d_2919_1983" x="-4.33333" y="-3.83333" width="57.6667" height="57.6667" filterUnits="userSpaceOnUse" color-interpolation-filters="sRGB">
<feFlood flood-opacity="0" result="BackgroundImageFix"/>
<feColorMatrix in="SourceAlpha" type="matrix" values="0 0 0 0 0 0 0 0 0 0 0 0 0 0 0 0 0 0 127 0" result="hardAlpha"/>
<feOffset/>
<feGaussianBlur stdDeviation="2.16667"/>
<feColorMatrix type="matrix" values="0 0 0 0 1 0 0 0 0 1 0 0 0 0 1 0 0 0 1 0"/>
<feBlend mode="normal" in2="BackgroundImageFix" result="effect1_dropShadow_2919_1983"/>
<feBlend mode="normal" in="SourceGraphic" in2="effect1_dropShadow_2919_1983" result="shape"/>
</filter>
</defs>
</svg>
