<svg width="55" height="55" viewBox="0 0 55 55" fill="none" xmlns="http://www.w3.org/2000/svg">
<path d="M27.6565 51.6675C41.274 51.6675 52.3131 40.5491 52.3131 26.8338C52.3131 13.1185 41.274 2 27.6565 2C14.0391 2 3 13.1185 3 26.8338C3 40.5491 14.0391 51.6675 27.6565 51.6675Z" fill="#00AEEF"/>
<path d="M27.7744 19.6277C26.3662 19.6277 24.9896 20.0483 23.8187 20.8363C22.6478 21.6243 21.7352 22.7443 21.1963 24.0546C20.6574 25.365 20.5164 26.807 20.7911 28.1981C21.0658 29.5892 21.744 30.867 22.7397 31.8699C23.7355 32.8728 25.0042 33.5558 26.3854 33.8325C27.7665 34.1092 29.1982 33.9672 30.4992 33.4244C31.8002 32.8816 32.9122 31.9625 33.6946 30.7832C34.477 29.6039 34.8946 28.2173 34.8946 26.799C34.8924 24.8977 34.1416 23.0749 32.8067 21.7305C31.4719 20.3861 29.6621 19.6299 27.7744 19.6277V19.6277ZM27.7744 31.3911C26.8723 31.3911 25.9904 31.1217 25.2403 30.6168C24.4902 30.112 23.9056 29.3944 23.5605 28.5549C23.2153 27.7154 23.1251 26.7917 23.3012 25.9005C23.4773 25.0094 23.9119 24.1909 24.5499 23.5485C25.1879 22.9061 26.0008 22.4687 26.8856 22.2916C27.7705 22.1146 28.6876 22.2058 29.521 22.5537C30.3544 22.9017 31.0666 23.4907 31.5676 24.2464C32.0685 25.002 32.3358 25.8904 32.3354 26.799C32.3341 28.0168 31.8531 29.1843 30.998 30.0453C30.1429 30.9062 28.9835 31.3903 27.7744 31.3911V31.3911Z" fill="white"/>
<path d="M33.4268 41.3572H21.8846C19.5824 41.3546 17.3752 40.4322 15.7475 38.7924C14.1197 37.1527 13.2043 34.9295 13.2021 32.6107V20.9855C13.2047 18.6671 14.1203 16.4443 15.748 14.8049C17.3757 13.1655 19.5826 12.2433 21.8846 12.2407H33.4268C35.729 12.2429 37.9363 13.1649 39.5644 14.8043C41.1924 16.4438 42.1083 18.6668 42.1108 20.9855V32.6107C42.1083 34.9296 41.1925 37.1528 39.5645 38.7925C37.9365 40.4322 35.7292 41.3546 33.4268 41.3572ZM21.8846 14.9828C20.3036 14.9846 18.7878 15.6179 17.6699 16.7439C16.552 17.8698 15.9232 19.3965 15.9214 20.9888V32.6107C15.9227 34.2034 16.5513 35.7304 17.6693 36.8567C18.7873 37.9831 20.3033 38.6166 21.8846 38.6184H33.4268C35.0082 38.6166 36.5244 37.9831 37.6426 36.8568C38.7608 35.7306 39.3898 34.2035 39.3916 32.6107V20.9855C39.389 19.3935 38.7596 17.8674 37.6414 16.7421C36.5232 15.6168 35.0075 14.9841 33.4268 14.9828H21.8846Z" fill="white"/>
</svg>
