<svg width="55" height="55" viewBox="0 0 55 55" fill="none" xmlns="http://www.w3.org/2000/svg">
<g clip-path="url(#clip0_1234_1304)">
<path d="M44.781 44.1532C54.3136 34.552 54.3136 18.9855 44.781 9.38442C35.2484 -0.216704 19.7929 -0.216705 10.2603 9.38442C0.727714 18.9855 0.727712 34.552 10.2603 44.1532C19.7929 53.7543 35.2484 53.7543 44.781 44.1532Z" fill="#00AEEF"/>
<path d="M30.3156 44.9487V28.3643H35.8424L36.6709 21.9008H30.3156V17.7744C30.3156 15.903 30.8304 14.6274 33.4957 14.6274H36.8932V8.84527C35.2491 8.66924 33.5966 8.58407 31.9432 8.59015C27.0407 8.59015 23.689 11.6022 23.689 17.1342V21.9073H18.1475V28.3709H23.689V44.9487H30.3156Z" fill="white"/>
</g>
<defs>
<clipPath id="clip0_1234_1304">
<rect width="55" height="55" fill="white"/>
</clipPath>
</defs>
</svg>
