<svg width="49" height="50" viewBox="0 0 49 50" fill="none" xmlns="http://www.w3.org/2000/svg">
<g filter="url(#filter0_d_2919_1975)">
<path fill-rule="evenodd" clip-rule="evenodd" d="M15.2651 39.3247C15.3325 38.3984 14.9421 37.4978 14.2199 36.9137C10.5931 33.9802 8.33636 29.6265 8.33636 24.7674C8.33636 16.0831 15.6906 8.83636 25.0173 8.83636C34.3211 8.83636 41.6774 16.0812 41.6774 24.7674C41.6774 33.4498 34.3043 40.6985 24.9965 40.6985C23.4513 40.6985 21.9882 40.5014 20.5802 40.1271C20.0441 39.9846 19.478 40.0025 18.9519 40.1784L15.1096 41.4635L15.2651 39.3247ZM13.686 44.9304C12.8737 45.222 12.0405 44.5555 12.103 43.7015L12.4362 39.119C8.18701 35.6821 5.5 30.5372 5.5 24.7674C5.5 14.4151 14.2276 6 25.0173 6C35.7862 6 44.5138 14.4151 44.5138 24.7674C44.5138 35.1197 35.7653 43.5349 24.9965 43.5349C23.2051 43.5349 21.4971 43.3057 19.8516 42.8683L13.686 44.9304ZM21.9018 19.8466C21.843 19.8374 21.7843 19.8282 21.7201 19.8189C20.5231 19.708 19.3688 20.2256 18.7489 21.0945C17.8191 22.37 16.8946 23.6456 15.9701 24.9211C15.0456 26.1968 14.1211 27.4724 13.1912 28.748C12.8706 29.2101 12.55 29.7093 13.1485 30.1529C13.7443 30.613 14.2553 30.2671 14.7449 29.9357L14.7517 29.9311C15.383 29.5136 16.0142 29.1006 16.6446 28.6881C17.8286 27.9135 19.0094 27.1409 20.1811 26.3447C20.9934 25.7901 21.6987 25.7162 22.5538 26.3077C23.3453 26.8554 24.1614 27.3679 24.9767 27.8799C25.4823 28.1975 25.9877 28.5149 26.4869 28.8404C28.3679 30.042 30.1207 29.8017 31.3605 28.1009C32.6762 26.3205 33.9694 24.5305 35.2646 22.7377C35.7581 22.0547 36.2518 21.3712 36.7472 20.6878C36.7591 20.671 36.7711 20.6542 36.7832 20.6373C37.1163 20.171 37.4722 19.6727 36.8327 19.2089C36.237 18.7673 35.726 19.1131 35.2364 19.4445L35.2295 19.4492C34.6052 19.862 33.9784 20.2705 33.3526 20.6784C32.1569 21.4577 30.9647 22.2347 29.8001 23.0356C28.9665 23.5902 28.2611 23.6456 27.4274 23.0541C27.0974 22.8258 26.7456 22.5633 26.3772 22.2884C25.0752 21.3171 23.5664 20.1914 22.0835 19.8744C22.0194 19.8651 21.9606 19.8559 21.9018 19.8466Z" fill="#0090CC"/>
</g>
<defs>
<filter id="filter0_d_2919_1975" x="-4.33333" y="-3.83333" width="57.6667" height="57.6667" filterUnits="userSpaceOnUse" color-interpolation-filters="sRGB">
<feFlood flood-opacity="0" result="BackgroundImageFix"/>
<feColorMatrix in="SourceAlpha" type="matrix" values="0 0 0 0 0 0 0 0 0 0 0 0 0 0 0 0 0 0 127 0" result="hardAlpha"/>
<feOffset/>
<feGaussianBlur stdDeviation="2.16667"/>
<feColorMatrix type="matrix" values="0 0 0 0 1 0 0 0 0 1 0 0 0 0 1 0 0 0 1 0"/>
<feBlend mode="normal" in2="BackgroundImageFix" result="effect1_dropShadow_2919_1975"/>
<feBlend mode="normal" in="SourceGraphic" in2="effect1_dropShadow_2919_1975" result="shape"/>
</filter>
</defs>
</svg>
