<svg width="49" height="50" viewBox="0 0 49 50" fill="none" xmlns="http://www.w3.org/2000/svg">
<g filter="url(#filter0_d_2919_1981)">
<path d="M42.875 25.1115C42.875 14.9011 34.6491 6.625 24.5 6.625C14.3509 6.625 6.125 14.9011 6.125 25.1115C6.125 34.3406 12.8429 41.9883 21.6286 43.375V30.4562H16.9638V25.1103H21.6286V21.0384C21.6286 16.4054 24.3714 13.8451 28.5695 13.8451C30.5785 13.8451 32.683 14.2065 32.683 14.2065V18.7562H30.3641C28.0819 18.7562 27.3714 20.1821 27.3714 21.6447V25.1115H32.4674L31.6528 30.4549H27.3714V43.375C36.1571 41.9883 42.875 34.3406 42.875 25.1115Z" fill="#0090CC"/>
</g>
<defs>
<filter id="filter0_d_2919_1981" x="-4.33333" y="-3.83333" width="57.6667" height="57.6667" filterUnits="userSpaceOnUse" color-interpolation-filters="sRGB">
<feFlood flood-opacity="0" result="BackgroundImageFix"/>
<feColorMatrix in="SourceAlpha" type="matrix" values="0 0 0 0 0 0 0 0 0 0 0 0 0 0 0 0 0 0 127 0" result="hardAlpha"/>
<feOffset/>
<feGaussianBlur stdDeviation="2.16667"/>
<feColorMatrix type="matrix" values="0 0 0 0 1 0 0 0 0 1 0 0 0 0 1 0 0 0 1 0"/>
<feBlend mode="normal" in2="BackgroundImageFix" result="effect1_dropShadow_2919_1981"/>
<feBlend mode="normal" in="SourceGraphic" in2="effect1_dropShadow_2919_1981" result="shape"/>
</filter>
</defs>
</svg>
