<svg width="50" height="50" viewBox="0 0 50 50" fill="none" xmlns="http://www.w3.org/2000/svg">
<path d="M24.6565 49.6675C38.274 49.6675 49.3131 38.5491 49.3131 24.8338C49.3131 11.1185 38.274 0 24.6565 0C11.0391 0 0 11.1185 0 24.8338C0 38.5491 11.0391 49.6675 24.6565 49.6675Z" fill="#00AEEF"/>
<path d="M16.8103 37.9994V18.4323H10.3793V37.9994H16.8109H16.8103ZM13.596 15.7612C15.8382 15.7612 17.2341 14.2586 17.2341 12.3809C17.1919 10.4606 15.8382 9 13.6387 9C11.4375 9 10 10.4606 10 12.3809C10 14.2586 11.3953 15.7612 13.5538 15.7612H13.5954H13.596ZM20.3698 37.9994H26.8002V27.0736C26.8002 26.4893 26.8424 25.904 27.0121 25.4868C27.4768 24.3178 28.535 23.1079 30.3119 23.1079C32.6384 23.1079 33.5695 24.902 33.5695 27.5328V37.9994H40V26.7803C40 20.7704 36.8278 17.9737 32.5968 17.9737C29.1278 17.9737 27.6044 19.9344 26.7581 21.2699H26.8008V18.4329H20.3703C20.4541 20.2686 20.3698 38 20.3698 38V37.9994Z" fill="white"/>
</svg>
