<svg width="50" height="50" viewBox="0 0 50 50" fill="none" xmlns="http://www.w3.org/2000/svg">
<path d="M24.6565 49.6675C38.274 49.6675 49.3131 38.5491 49.3131 24.8338C49.3131 11.1185 38.274 0 24.6565 0C11.0391 0 0 11.1185 0 24.8338C0 38.5491 11.0391 49.6675 24.6565 49.6675Z" fill="#00AEEF"/>
<mask id="path-2-inside-1_5_38" fill="white">
<path d="M25 8C15.6483 8 8 15.1998 8 24.1286C8 29.0105 10.3156 33.3445 13.913 36.2954V43L14.9986 42.4139L20.3342 39.6008C21.824 40.0052 23.3745 40.2572 25 40.2572C34.3517 40.2572 42 33.0574 42 24.1286C42 15.1998 34.3517 8 25 8ZM25 9.50033C33.6068 9.50033 40.5217 16.0702 40.5217 24.1286C40.5217 32.187 33.6068 38.7569 25 38.7569C23.4005 38.7569 21.8529 38.5224 20.4035 38.1005L20.1264 38.0301L19.8723 38.1708L15.3913 40.5385V35.6155L15.1141 35.4046C11.6668 32.7116 9.47826 28.6589 9.47826 24.1286C9.47826 16.0702 16.3932 9.50033 25 9.50033ZM23.3139 19.7917L14.4212 29.3563L22.413 24.8084L26.6861 29.4501L35.4633 19.7917L27.6793 24.2224L23.3139 19.7917Z"/>
</mask>
<path d="M25 8C15.6483 8 8 15.1998 8 24.1286C8 29.0105 10.3156 33.3445 13.913 36.2954V43L14.9986 42.4139L20.3342 39.6008C21.824 40.0052 23.3745 40.2572 25 40.2572C34.3517 40.2572 42 33.0574 42 24.1286C42 15.1998 34.3517 8 25 8ZM25 9.50033C33.6068 9.50033 40.5217 16.0702 40.5217 24.1286C40.5217 32.187 33.6068 38.7569 25 38.7569C23.4005 38.7569 21.8529 38.5224 20.4035 38.1005L20.1264 38.0301L19.8723 38.1708L15.3913 40.5385V35.6155L15.1141 35.4046C11.6668 32.7116 9.47826 28.6589 9.47826 24.1286C9.47826 16.0702 16.3932 9.50033 25 9.50033ZM23.3139 19.7917L14.4212 29.3563L22.413 24.8084L26.6861 29.4501L35.4633 19.7917L27.6793 24.2224L23.3139 19.7917Z" fill="white"/>
<path d="M13.913 36.2954H19.013V33.8825L17.1474 32.3522L13.913 36.2954ZM13.913 43H8.81304V51.549L16.3358 47.4878L13.913 43ZM14.9986 42.4139L12.6201 37.9026L12.5979 37.9142L12.5759 37.9261L14.9986 42.4139ZM20.3342 39.6008L21.6702 34.6789L19.7321 34.1528L17.9557 35.0894L20.3342 39.6008ZM20.4035 38.1005L21.8291 33.2038L21.7439 33.179L21.6578 33.1571L20.4035 38.1005ZM20.1264 38.0301L21.3807 33.0868L19.4231 32.5901L17.6563 33.5682L20.1264 38.0301ZM19.8723 38.1708L22.2549 42.68L22.2989 42.6568L22.3424 42.6327L19.8723 38.1708ZM15.3913 40.5385H10.2913V49.0015L17.7739 45.0477L15.3913 40.5385ZM15.3913 35.6155H20.4913V33.0882L18.4803 31.5575L15.3913 35.6155ZM15.1141 35.4046L11.9745 39.4236L11.9997 39.4433L12.0251 39.4626L15.1141 35.4046ZM23.3139 19.7917L26.9467 16.2123L23.207 12.4167L19.5788 16.319L23.3139 19.7917ZM14.4212 29.3563L10.6861 25.8837L16.9436 33.7889L14.4212 29.3563ZM22.413 24.8084L26.1652 21.3542L23.4171 18.3691L19.8906 20.3759L22.413 24.8084ZM26.6861 29.4501L22.934 32.9043L26.7105 37.0065L30.4605 32.88L26.6861 29.4501ZM35.4633 19.7917L39.2376 23.2216L32.9404 15.3594L35.4633 19.7917ZM27.6793 24.2224L24.0465 27.8018L26.7967 30.5931L30.2022 28.6546L27.6793 24.2224ZM25 2.9C13.0997 2.9 2.9 12.1224 2.9 24.1286H13.1C13.1 18.2773 18.1968 13.1 25 13.1V2.9ZM2.9 24.1286C2.9 30.6901 6.02307 36.4198 10.6786 40.2386L17.1474 32.3522C14.608 30.2693 13.1 27.331 13.1 24.1286H2.9ZM8.81304 36.2954V43H19.013V36.2954H8.81304ZM16.3358 47.4878L17.4214 46.9017L12.5759 37.9261L11.4903 38.5122L16.3358 47.4878ZM17.3772 46.9253L22.7128 44.1122L17.9557 35.0894L12.6201 37.9026L17.3772 46.9253ZM18.9983 44.5227C20.8363 45.0216 22.841 45.3572 25 45.3572V35.1572C23.908 35.1572 22.8118 34.9888 21.6702 34.6789L18.9983 44.5227ZM25 45.3572C36.9003 45.3572 47.1 36.1348 47.1 24.1286H36.9C36.9 29.9799 31.8032 35.1572 25 35.1572V45.3572ZM47.1 24.1286C47.1 12.1224 36.9003 2.9 25 2.9V13.1C31.8032 13.1 36.9 18.2773 36.9 24.1286H47.1ZM25 14.6003C31.0669 14.6003 35.4217 19.1558 35.4217 24.1286H45.6217C45.6217 12.9845 36.1468 4.40033 25 4.40033V14.6003ZM35.4217 24.1286C35.4217 29.1014 31.0669 33.6569 25 33.6569V43.8569C36.1468 43.8569 45.6217 35.2727 45.6217 24.1286H35.4217ZM25 33.6569C23.8988 33.6569 22.8309 33.4954 21.8291 33.2038L18.9779 42.9972C20.875 43.5495 22.9021 43.8569 25 43.8569V33.6569ZM21.6578 33.1571L21.3807 33.0868L18.8721 42.9735L19.1492 43.0438L21.6578 33.1571ZM17.6563 33.5682L17.4022 33.7089L22.3424 42.6327L22.5965 42.492L17.6563 33.5682ZM17.4896 33.6616L13.0087 36.0293L17.7739 45.0477L22.2549 42.68L17.4896 33.6616ZM20.4913 40.5385V35.6155H10.2913V40.5385H20.4913ZM18.4803 31.5575L18.2031 31.3465L12.0251 39.4626L12.3023 39.6736L18.4803 31.5575ZM18.2537 31.3855C15.9334 29.5729 14.5783 26.9541 14.5783 24.1286H4.37826C4.37826 30.3637 7.40012 35.8502 11.9745 39.4236L18.2537 31.3855ZM14.5783 24.1286C14.5783 19.1558 18.9331 14.6003 25 14.6003V4.40033C13.8532 4.40033 4.37826 12.9845 4.37826 24.1286H14.5783ZM19.5788 16.319L10.6861 25.8837L18.1563 32.829L27.0489 23.2643L19.5788 16.319ZM16.9436 33.7889L24.9355 29.241L19.8906 20.3759L11.8988 24.9238L16.9436 33.7889ZM18.6609 28.2626L22.934 32.9043L30.4383 25.9959L26.1652 21.3542L18.6609 28.2626ZM30.4605 32.88L39.2376 23.2216L31.689 16.3617L22.9118 26.0202L30.4605 32.88ZM32.9404 15.3594L25.1565 19.7901L30.2022 28.6546L37.9862 24.224L32.9404 15.3594ZM31.3122 20.6429L26.9467 16.2123L19.681 23.3711L24.0465 27.8018L31.3122 20.6429Z" fill="white" mask="url(#path-2-inside-1_5_38)"/>
</svg>
