<svg width="1438" height="304" viewBox="0 0 1438 304" fill="none" xmlns="http://www.w3.org/2000/svg">
<path d="M14.6815 184.836L35.3321 168.2C36.9272 166.919 38.5913 165.516 39.1549 163.56C39.5696 162.119 39.3198 160.578 39.0646 159.1L35.7628 139.966C43.8399 137.857 51.4599 134.281 58.2424 129.415C54.1713 121.857 51.0531 113.822 48.9592 105.497C46.6676 96.3867 45.7 86.3995 49.6504 77.858C54.0634 68.3385 63.6444 62.4812 72.7096 57.182C66.3832 52.8185 61.2622 46.9277 57.8224 40.0565C65.3245 37.6753 72.8797 34.4968 78.2444 28.7405C83.6092 22.9842 86.2463 14.0706 82.7744 7.01207C92.3979 6.68784 101.915 12.9279 105.435 21.8946C106.025 23.3934 106.498 25.0305 107.737 26.0776C108.976 27.1247 110.879 27.3745 112.586 27.3585C116.919 27.316 121.221 26.2955 125.538 26.5719C129.855 26.8483 134.502 28.8627 136.092 32.8916C132.381 38.5385 129.053 44.4286 126.133 50.5221C131.854 51.8456 136.853 55.3017 140.111 60.185C143.376 65.1175 144.631 71.1821 147.996 76.0508C153.51 84.0236 164.787 87.4625 173.815 83.8907C178.749 71.6658 180.881 58.4576 181.875 45.2972C193.294 44.8491 204.636 43.2157 215.717 40.4232L219.901 45.4248C213.015 52.3514 207.303 60.3527 202.988 69.1145L215.988 80.016C218.732 76.506 222.277 73.7054 226.328 71.8492C230.378 69.9929 234.815 69.1354 239.265 69.3484C243.713 69.6415 248.025 70.9981 251.839 73.304C255.652 75.6099 258.857 78.7976 261.181 82.5991L246.114 100.979C245.05 102.302 243.907 103.716 243.7 105.412C243.524 106.847 244.029 108.261 244.508 109.627C252.353 132.084 254.006 156.238 249.293 179.553C240.94 186.745 226.776 185.65 219.62 177.262C218.296 169.619 219.46 161.753 222.943 154.822C208.832 146.147 201.298 127.98 205.137 111.87L176.558 100.963L171.518 126.837C163.01 126.979 154.597 128.646 146.678 131.759C155.446 151.195 161.419 171.774 164.42 192.884L144.285 201.569C142.499 202.345 140.563 203.259 139.745 205.024C139.133 206.352 139.293 207.894 139.388 209.355C140.007 218.72 137.706 228.046 132.801 236.048L116.563 220.278C111.132 226.164 104.934 231.293 98.1348 235.527C94.7373 231.53 88.3837 232.753 83.3752 234.321L48.5073 245.238C45.3228 254.841 40.6276 263.875 34.5984 272L27.0485 268.779C23.9271 251.278 18.7017 234.219 11.486 217.971C10.7629 216.345 9.96542 214.66 8.54582 213.576C2.7983 209.191 -2.20489 209.573 1.00649 200.739C3.42566 194.127 9.37524 189.115 14.6815 184.836Z" fill="white" fill-opacity="0.6"/>
<path d="M1262.53 147.344L1261.17 203.196L1255.72 208.417L1263.44 216.591L1250.49 225.444L1262.99 255.413L1243.9 255.639L1236.63 248.6L1222.31 257.004L1221.85 266.992L1242.08 289.696L1274.81 290.831L1287.76 303.318L1294.81 304L1300.94 292.422L1321.85 291.513L1331.63 302.865L1338.45 299.683L1332.99 284.248L1343.9 257.23L1360.49 256.774L1359.81 282.657L1369.58 297.413H1376.17L1385.27 275.618L1405.04 273.804L1422.32 280.613L1430.73 267.674L1438 266.992V253.37L1433 242.018L1410.04 248.83L1401.86 228.622L1387.12 233.15L1377.54 213.183L1384.58 205.239L1389.81 167.552L1413 166.87L1412.77 160.739L1385.04 153.248L1371.18 125.096L1389.36 111.018L1380.04 90.8132L1398.22 70.6086L1379.59 59.9389L1357.99 73.1045L1346.4 62.8872L1339.36 39.5043L1350.72 29.287L1356.4 33.8263L1358.9 22.248L1341.18 17.0263L1340.27 2.04346L1335.26 0L1335.04 8.40004L1329.58 14.078L1327.99 29.9695L1313.22 35.6436L1308.45 47.2219L1295.26 51.7651L1312.08 60.1651L1315.49 71.7434L1309.13 89.4521L1297.99 102.618L1306.4 109.204L1315.95 109.43L1336.86 129.865L1334.35 133.948L1356.17 150.978L1357.08 158.47L1342.76 163.691L1342.54 173.683L1336.4 181.853L1319.36 175.726L1301.85 185.713L1276.4 146.209L1262.53 147.344Z" fill="white" fill-opacity="0.6"/>
<path d="M1062.49 28.3075L1059.74 21.6879L1077.09 14.2391L1096.65 17.5512L1105.19 1.27484L1125.84 1L1143.2 18.1009L1139.34 25L1168.81 45.6879L1151.73 53.6863L1152.01 65.5512L1150.36 69.413L1131.63 63.0683L1114.82 73L1086.45 29.1366L1062.49 28.3075Z" fill="white" fill-opacity="0.6"/>
</svg>
