<svg width="180" height="61" viewBox="0 0 180 61" fill="none" xmlns="http://www.w3.org/2000/svg">
<path d="M173.092 60.5482H7.0405C3.32095 60.5482 0.398438 57.2346 0.398438 53.0173V7.83213C0.398438 3.76547 3.32095 0.30127 7.0405 0.30127H173.092C176.811 0.30127 179.734 3.61485 179.734 7.83213V53.0173C179.734 57.2346 176.679 60.5482 173.092 60.5482Z" fill="black"/>
<path d="M173.092 1.50598C176.147 1.50598 178.672 4.36771 178.672 7.8319V53.0171C178.672 56.4813 176.147 59.343 173.092 59.343H7.0405C3.98515 59.343 1.46117 56.4813 1.46117 53.0171V7.8319C1.46117 4.36771 3.85231 1.50598 7.0405 1.50598H173.092ZM173.092 0.45166H7.0405C3.32095 0.45166 0.398438 3.76524 0.398438 7.98253V53.1677C0.398438 57.385 3.32095 60.6986 7.0405 60.6986H173.092C176.811 60.6986 179.734 57.385 179.734 53.1677V7.98253C179.734 3.76524 176.679 0.45166 173.092 0.45166Z" fill="#A6A6A6"/>
<path d="M90.7019 33.1882C87.4398 33.1882 84.8567 35.9411 84.8567 39.7647C84.8567 43.4353 87.4398 46.3412 90.7019 46.3412C93.9647 46.3412 96.5471 43.5882 96.5471 39.7647C96.5471 35.9411 93.8286 33.1882 90.7019 33.1882ZM90.7019 43.5882C88.9352 43.5882 87.4398 41.9058 87.4398 39.6118C87.4398 37.3177 88.9352 35.6353 90.7019 35.6353C92.4694 35.6353 93.9647 37.1647 93.9647 39.6118C93.9647 42.0588 92.4694 43.5882 90.7019 43.5882ZM78.0604 33.1882C74.7976 33.1882 72.2151 35.9411 72.2151 39.7647C72.2151 43.4353 74.7976 46.3412 78.0604 46.3412C81.3225 46.3412 83.9056 43.5882 83.9056 39.7647C83.7696 35.9411 81.1864 33.1882 78.0604 33.1882ZM78.0604 43.5882C76.293 43.5882 74.7976 41.9058 74.7976 39.6118C74.7976 37.3177 76.293 35.6353 78.0604 35.6353C79.8271 35.6353 81.3225 37.1647 81.3225 39.6118C81.3225 42.0588 79.8271 43.5882 78.0604 43.5882ZM62.9716 35.1764V37.9294H68.8168C68.6809 39.4588 68.1371 40.6823 67.4574 41.4471C66.6418 42.3647 65.2825 43.4353 62.9716 43.4353C59.3014 43.4353 56.5827 40.2235 56.5827 36.0941C56.5827 31.9647 59.4373 28.753 62.9716 28.753C64.8747 28.753 66.37 29.6705 67.4574 30.7412L69.2246 28.753C67.7293 27.2235 65.8262 26 63.1076 26C58.2139 26 54 30.5882 54 36.0941C54 41.6 58.2139 46.1882 63.1076 46.1882C65.8262 46.1882 67.7293 45.2706 69.3605 43.2824C70.9917 41.4471 71.5354 38.847 71.5354 36.8588C71.5354 36.247 71.5354 35.6353 71.3995 35.1764H62.9716ZM124.549 37.3177C124.006 35.7882 122.646 33.1882 119.656 33.1882C116.665 33.1882 114.219 35.7882 114.219 39.7647C114.219 43.4353 116.665 46.3412 119.928 46.3412C122.51 46.3412 124.142 44.5059 124.685 43.4353L122.783 41.9058C122.103 42.9764 121.287 43.7411 119.928 43.7411C118.569 43.7411 117.753 43.1294 117.073 41.7529L124.821 38.0823L124.549 37.3177ZM116.665 39.4588C116.665 37.0117 118.433 35.6353 119.656 35.6353C120.608 35.6353 121.559 36.247 121.831 37.0117L116.665 39.4588ZM110.412 45.8823H112.995V26.6117H110.412V45.8823ZM106.199 34.7176C105.519 33.9529 104.431 33.1882 103.072 33.1882C100.217 33.1882 97.4989 36.0941 97.4989 39.7647C97.4989 43.4353 100.081 46.1882 103.072 46.1882C104.431 46.1882 105.519 45.4235 106.063 44.6588H106.199V45.5764C106.199 48.0235 104.975 49.4 103.072 49.4C101.577 49.4 100.49 48.1765 100.217 47.1059L98.0424 48.1765C98.722 49.8588 100.353 52 103.208 52C106.199 52 108.645 50.0118 108.645 45.2706V33.6471H106.199V34.7176ZM103.344 43.5882C101.577 43.5882 100.081 41.9058 100.081 39.6118C100.081 37.3177 101.577 35.6353 103.344 35.6353C105.111 35.6353 106.47 37.3177 106.47 39.6118C106.335 42.0588 104.975 43.5882 103.344 43.5882ZM136.512 26.6117H130.394V45.7294H132.978V38.5412H136.512C139.366 38.5412 142.085 36.247 142.085 32.5765C142.085 28.9059 139.23 26.6117 136.512 26.6117ZM136.512 35.9411H132.842V29.3647H136.512C138.415 29.3647 139.503 31.2 139.503 32.5765C139.503 34.1058 138.415 35.9411 136.512 35.9411ZM152.144 33.1882C150.241 33.1882 148.338 34.1058 147.658 36.0941L149.969 37.1647C150.513 36.0941 151.328 35.7882 152.28 35.7882C153.639 35.7882 154.862 36.7059 154.999 38.2352V38.3882C154.591 38.0823 153.503 37.6235 152.416 37.6235C149.969 37.6235 147.523 39.1529 147.523 41.9058C147.523 44.5059 149.562 46.1882 151.737 46.1882C153.503 46.1882 154.319 45.2706 154.999 44.3529H155.135V45.8823H157.582V38.5412C157.31 35.0235 155.135 33.1882 152.144 33.1882ZM151.873 43.5882C151.057 43.5882 149.833 43.1294 149.833 41.9058C149.833 40.3765 151.328 39.9176 152.552 39.9176C153.639 39.9176 154.183 40.2235 154.862 40.5294C154.727 42.3647 153.368 43.5882 151.873 43.5882ZM166.282 33.6471L163.427 41.9058H163.291L160.3 33.6471H157.582L162.067 45.2706L159.485 51.5411H162.067L169 33.4941H166.282V33.6471ZM143.444 45.8823H146.027V26.6117H143.444V45.8823Z" fill="white"/>
<path d="M12.6539 12C12.2616 12.444 12 13.184 12 14.072V46.78C12 47.668 12.2616 48.4081 12.6539 48.852L12.7846 49L29 30.648V30.5V30.352L12.6539 12Z" fill="url(#paint0_linear_1166_1316)"/>
<path d="M34.6551 37L29 30.6547V30.5V30.3453L34.6551 24L34.7931 24.1548L41.5517 28.4881C43.4828 29.7262 43.4828 31.7381 41.5517 32.9762L34.6551 37Z" fill="url(#paint1_linear_1166_1316)"/>
<path d="M35 37.24L29.2156 31L12 49.4227C12.6887 50.1656 13.6527 50.1656 14.8922 49.5713L35 37.24Z" fill="url(#paint2_linear_1166_1316)"/>
<path d="M35 24.3481L14.8922 11.5085C13.6527 10.735 12.6887 10.8897 12 11.6632L29.2156 31L35 24.3481Z" fill="url(#paint3_linear_1166_1316)"/>
<path opacity="0.2" d="M35 37L14.9097 49.1988C13.8012 49.9426 12.8313 49.7939 12.1385 49.1988L12 49.3476L12.1385 49.4964C12.8313 50.0914 13.8012 50.2402 14.9097 49.4964L35 37Z" fill="black"/>
<path opacity="0.12" d="M41.6667 32.1667L35 36.8333L35.1333 37L41.6667 32.3333C42.6 31.6667 43 30.8333 43 30C43 30.8333 42.4666 31.6667 41.6667 32.1667Z" fill="black"/>
<path opacity="0.25" d="M15.3765 11.8233L41.6525 28.9895C42.461 29.6082 43 30.2268 43 31C43 30.2268 42.5957 29.4535 41.6525 28.8349L15.3765 11.514C13.4901 10.2769 12.0079 11.3594 12.0079 13.8339V13.9885C11.8731 11.514 13.4901 10.5861 15.3765 11.8233Z" fill="white"/>
<path d="M54 20V11H56.625C57.9375 11 59.1042 11.45 59.8333 12.2C60.7084 13.1 61 14.15 61 15.5C61 16.85 60.5625 17.9 59.8333 18.8C58.9584 19.7 57.9375 20 56.625 20H54ZM55.1667 18.95H56.7708C57.7917 18.95 58.5208 18.65 59.1042 18.05C59.6875 17.45 59.9792 16.55 59.9792 15.5C59.9792 14.45 59.6875 13.55 59.1042 12.95C58.5208 12.35 57.6459 12.05 56.7708 12.05H55.1667V18.95Z" fill="white" stroke="white" stroke-width="0.2" stroke-miterlimit="10"/>
<path d="M62 20V11H63V20H62Z" fill="white" stroke="white" stroke-width="0.2" stroke-miterlimit="10"/>
<path d="M67.561 20C67.0732 20 66.4634 19.8572 65.9756 19.4285C65.4878 19 65.1219 18.4286 65 17.7142L65.8536 17.2857C65.9756 17.7142 66.2195 18.1429 66.4634 18.4286C66.8292 18.7142 67.1951 18.8571 67.561 18.8571C67.9268 18.8571 68.2927 18.7142 68.6585 18.4286C68.9024 18.1429 69.1464 17.8571 69.1464 17.4286C69.1464 16.9999 69.0244 16.5714 68.6585 16.2857C68.4147 16 67.9268 15.7143 67.3171 15.5714C66.7073 15.2857 66.2195 15 65.8536 14.7143C65.4878 14.2857 65.3658 13.8571 65.3658 13.2857C65.3658 12.7142 65.6097 12.1428 65.9756 11.7142C66.3415 11.2857 66.9512 11 67.561 11C68.1708 11 68.6585 11.1428 69.0244 11.5714C69.3903 12 69.6342 12.2857 69.7561 12.7142L68.9024 13.1428C68.7805 12.8571 68.6585 12.5714 68.4147 12.4285C68.1708 12.1428 67.8049 12.1428 67.439 12.1428C67.0732 12.1428 66.8292 12.2857 66.4634 12.4285C66.2195 12.7142 66.0976 13 66.0976 13.2857C66.0976 13.5714 66.2195 13.8571 66.4634 14.1428C66.7073 14.4285 67.0732 14.5714 67.561 14.7143C67.9268 14.8571 68.1708 15 68.4147 15.1428C68.6585 15.2857 68.9024 15.4286 69.1464 15.7143C69.3903 15.8571 69.6342 16.1428 69.7561 16.5714C69.8781 16.9999 70 17.2857 70 17.7142C70 18.1429 69.8781 18.5714 69.7561 18.8571C69.6342 19.1429 69.3903 19.4285 69.1464 19.5714C68.9024 19.7142 68.6585 19.8572 68.4147 20C68.1708 19.8572 67.9268 20 67.561 20Z" fill="white" stroke="white" stroke-width="0.2" stroke-miterlimit="10"/>
<path d="M73.0257 20H72V11H74.5643C75.2053 11 75.718 11.3 76.2306 11.75C76.744 12.2 77 12.95 77 13.7C77 14.45 76.744 15.05 76.2306 15.65C75.718 16.1 75.2053 16.4 74.5643 16.4H72.8974V20H73.0257ZM73.0257 15.35H74.6927C75.077 15.35 75.4613 15.2 75.718 14.9C75.9747 14.6 76.103 14.15 76.103 13.85C76.103 13.55 75.9747 13.1 75.718 12.8C75.4613 12.35 75.077 12.2 74.6927 12.2H73.0257V15.35Z" fill="white" stroke="white" stroke-width="0.2" stroke-miterlimit="10"/>
<path d="M84.8383 18.6935C84.064 19.5645 83.1614 20 81.9996 20C80.8386 20 79.9352 19.5645 79.161 18.6935C78.3875 17.8225 78 16.8064 78 15.5C78 14.1935 78.3875 13.1774 79.161 12.3064C79.9352 11.4354 80.8386 11 81.9996 11C83.1614 11 84.064 11.4354 84.8383 12.3064C85.6125 13.1774 86 14.1935 86 15.5C86 16.6613 85.6125 17.8225 84.8383 18.6935ZM79.9352 17.9677C80.4519 18.5484 81.2254 18.9839 81.9996 18.9839C82.7739 18.9839 83.5481 18.6935 84.064 17.9677C84.5807 17.3871 84.9674 16.5161 84.9674 15.5C84.9674 14.4839 84.7091 13.6129 84.1932 12.8871C83.6773 12.3064 82.903 11.871 82.1288 11.871C81.3546 11.871 80.5803 12.1613 80.0644 12.8871C79.5485 13.4677 79.161 14.3387 79.161 15.3549C79.161 16.371 79.4193 17.2419 79.9352 17.9677Z" fill="white" stroke="white" stroke-width="0.2" stroke-miterlimit="10"/>
<path d="M88 19.8524V11H89.1743L92.9562 17.9344V16.1639V11H94V19.8524H92.9562L89.0438 12.7705V14.541V20H88V19.8524Z" fill="white" stroke="white" stroke-width="0.2" stroke-miterlimit="10"/>
<path d="M96 20V11H97V20H96Z" fill="white" stroke="white" stroke-width="0.2" stroke-miterlimit="10"/>
<path d="M99 19.8524V11H101.683C102.293 11 102.781 11.2951 103.147 11.7377C103.512 12.1803 103.757 12.7705 103.757 13.5081C103.757 13.9508 103.634 14.2459 103.512 14.6885C103.39 14.9836 103.147 15.2786 102.781 15.4262C103.147 15.5738 103.39 15.8688 103.634 16.1639C103.879 16.459 104 16.9016 104 17.4918C104 18.2295 103.757 18.8196 103.39 19.2623C102.903 19.7049 102.415 20 101.805 20H99V19.8524ZM99.976 14.836H101.683C102.049 14.836 102.293 14.6885 102.537 14.3934C102.781 14.0983 102.903 13.8033 102.903 13.5081C102.903 13.2131 102.781 12.918 102.537 12.623C102.415 12.3278 102.049 12.1803 101.683 12.1803H99.976V14.836ZM99.976 18.8196H101.927C102.293 18.8196 102.537 18.6721 102.781 18.377C103.025 18.0819 103.147 17.7868 103.147 17.3443C103.147 17.0491 103.025 16.6065 102.781 16.3115C102.537 16.0163 102.293 15.8688 101.927 15.8688H100.097V18.8196H99.976Z" fill="white" stroke="white" stroke-width="0.2" stroke-miterlimit="10"/>
<path d="M106 20V11H106.941V18.95H110V20H106Z" fill="white" stroke="white" stroke-width="0.2" stroke-miterlimit="10"/>
<path d="M116 12.2H112.915V15.05H115.771V16.1H112.915V18.95H116V20H112V11H116V12.2Z" fill="white" stroke="white" stroke-width="0.2" stroke-miterlimit="10"/>
<path d="M126 12.2H122.143V15.05H125.714V16.1H122.143V18.95H126V20H121V11H126V12.2Z" fill="white" stroke="white" stroke-width="0.2" stroke-miterlimit="10"/>
<path d="M127 19.8524V11H128.369L132.782 17.9344V16.1639V11H134V19.8524H132.782L128.065 12.7705V14.541V20H127V19.8524Z" fill="white" stroke="white" stroke-width="0.2" stroke-miterlimit="10"/>
<defs>
<linearGradient id="paint0_linear_1166_1316" x1="27.4958" y1="13.7164" x2="2.84687" y2="35.4955" gradientUnits="userSpaceOnUse">
<stop stop-color="#00A0FF"/>
<stop offset="0.00657445" stop-color="#00A1FF"/>
<stop offset="0.2601" stop-color="#00BEFF"/>
<stop offset="0.5122" stop-color="#00D2FF"/>
<stop offset="0.7604" stop-color="#00DFFF"/>
<stop offset="1" stop-color="#00E3FF"/>
</linearGradient>
<linearGradient id="paint1_linear_1166_1316" x1="44.0129" y1="30.4248" x2="10.6379" y2="30.4248" gradientUnits="userSpaceOnUse">
<stop stop-color="#FFE000"/>
<stop offset="0.4087" stop-color="#FFBD00"/>
<stop offset="0.7754" stop-color="#FFA500"/>
<stop offset="1" stop-color="#FF9C00"/>
</linearGradient>
<linearGradient id="paint2_linear_1166_1316" x1="31.8006" y1="34.3371" x2="-1.91453" y2="65.5909" gradientUnits="userSpaceOnUse">
<stop stop-color="#FF3A44"/>
<stop offset="1" stop-color="#C31162"/>
</linearGradient>
<linearGradient id="paint3_linear_1166_1316" x1="7.65793" y1="0.256383" x2="23.2734" y2="14.1587" gradientUnits="userSpaceOnUse">
<stop stop-color="#32A071"/>
<stop offset="0.0685" stop-color="#2DA771"/>
<stop offset="0.4762" stop-color="#15CF74"/>
<stop offset="0.8009" stop-color="#06E775"/>
<stop offset="1" stop-color="#00F076"/>
</linearGradient>
</defs>
</svg>
