<?xml version="1.0" encoding="utf-8"?>
<!-- Generator: Adobe Illustrator 24.0.0, SVG Export Plug-In . SVG Version: 6.00 Build 0)  -->
<svg version="1.1" id="Capa_1" xmlns="http://www.w3.org/2000/svg" xmlns:xlink="http://www.w3.org/1999/xlink" x="0px" y="0px"
	 viewBox="0 0 180 61" style="enable-background:new 0 0 180 61;" xml:space="preserve">
<style type="text/css">
	.st0{fill:#A6A6A6;}
	.st1{fill:#FFFFFF;}
	.st2{fill:url(#SVGID_1_);}
	.st3{fill:url(#SVGID_2_);}
	.st4{fill:url(#SVGID_3_);}
	.st5{fill:url(#SVGID_4_);}
	.st6{opacity:0.2;enable-background:new    ;}
	.st7{opacity:0.12;enable-background:new    ;}
	.st8{opacity:0.25;fill:#FFFFFF;enable-background:new    ;}
	.st9{fill:#FFFFFF;stroke:#FFFFFF;stroke-width:0.2;stroke-miterlimit:10;}
</style>
<path d="M173.4,56.4H7.1c-3.7,0-6.7-2.9-6.7-6.7V9.8c0-3.6,2.9-6.7,6.7-6.7h166.3c3.7,0,6.6,2.9,6.6,6.7v39.9
	C180,53.4,176.9,56.4,173.4,56.4z"/>
<path class="st0" d="M173.4,4.2c3.1,0,5.6,2.5,5.6,5.6v39.9c0,3.1-2.5,5.6-5.6,5.6H7.1c-3.1,0-5.6-2.5-5.6-5.6V9.8
	c0-3.1,2.4-5.6,5.6-5.6H173.4z M173.4,3.2H7.1c-3.7,0-6.7,2.9-6.7,6.7v39.9c0,3.7,2.9,6.7,6.7,6.7h166.3c3.7,0,6.6-2.9,6.6-6.7V9.9
	C180,6.2,176.9,3.2,173.4,3.2z"/>
<path class="st1" d="M90.9,32.2c-3.3,0-5.9,2.4-5.9,5.8c0,3.2,2.6,5.8,5.9,5.8c3.3,0,5.9-2.4,5.9-5.8C96.7,34.6,94,32.2,90.9,32.2z
	 M90.9,41.4c-1.8,0-3.3-1.5-3.3-3.5c0-2,1.5-3.5,3.3-3.5c1.8,0,3.3,1.4,3.3,3.5C94.1,40,92.6,41.4,90.9,41.4z M78.2,32.2
	c-3.3,0-5.9,2.4-5.9,5.8c0,3.2,2.6,5.8,5.9,5.8c3.3,0,5.9-2.4,5.9-5.8C83.9,34.6,81.3,32.2,78.2,32.2z M78.2,41.4
	c-1.8,0-3.3-1.5-3.3-3.5c0-2,1.5-3.5,3.3-3.5c1.8,0,3.3,1.4,3.3,3.5C81.5,40,80,41.4,78.2,41.4z M63.1,33.9v2.4H69
	c-0.1,1.4-0.7,2.4-1.4,3.1c-0.8,0.8-2.2,1.8-4.5,1.8c-3.7,0-6.4-2.8-6.4-6.5s2.9-6.5,6.4-6.5c1.9,0,3.4,0.8,4.5,1.8l1.8-1.8
	c-1.5-1.4-3.4-2.4-6.1-2.4c-4.9,0-9.1,4.1-9.1,8.9s4.2,8.9,9.1,8.9c2.7,0,4.6-0.8,6.3-2.6c1.6-1.6,2.2-3.9,2.2-5.7
	c0-0.5,0-1.1-0.1-1.5H63.1z M124.7,35.8c-0.5-1.4-1.9-3.6-4.9-3.6c-3,0-5.4,2.3-5.4,5.8c0,3.2,2.4,5.8,5.7,5.8
	c2.6,0,4.2-1.6,4.8-2.6l-1.9-1.4c-0.7,0.9-1.5,1.6-2.9,1.6c-1.4,0-2.2-0.5-2.9-1.8l7.8-3.2L124.7,35.8z M116.9,37.7
	c0-2.2,1.8-3.4,3-3.4c1,0,1.9,0.5,2.2,1.2L116.9,37.7z M110.6,43.4h2.6v-17h-2.6V43.4z M106.4,33.5c-0.7-0.7-1.8-1.4-3.1-1.4
	c-2.9,0-5.6,2.6-5.6,5.8c0,3.2,2.6,5.7,5.6,5.7c1.4,0,2.4-0.7,3-1.4h0.1v0.8c0,2.2-1.2,3.4-3.1,3.4c-1.5,0-2.6-1.1-2.9-2l-2.2,0.9
	c0.7,1.5,2.3,3.4,5.2,3.4c3,0,5.4-1.8,5.4-5.9V32.6h-2.4V33.5z M103.5,41.4c-1.8,0-3.3-1.5-3.3-3.5c0-2,1.5-3.5,3.3-3.5
	s3.1,1.5,3.1,3.5C106.5,40,105.2,41.4,103.5,41.4z M136.7,26.4h-6.1v16.9h2.6v-6.4h3.5c2.9,0,5.6-2,5.6-5.3
	C142.3,28.4,139.4,26.4,136.7,26.4z M136.7,34.6h-3.7v-5.8h3.7c1.9,0,3,1.6,3,2.8C139.7,33,138.6,34.6,136.7,34.6z M152.4,32.2
	c-1.9,0-3.8,0.8-4.5,2.6l2.3,0.9c0.5-0.9,1.4-1.2,2.3-1.2c1.4,0,2.6,0.8,2.7,2.2v0.1c-0.4-0.3-1.5-0.7-2.6-0.7
	c-2.4,0-4.9,1.4-4.9,3.8c0,2.3,2,3.8,4.2,3.8c1.8,0,2.6-0.8,3.3-1.6h0.1v1.4h2.4v-6.5C157.5,33.8,155.4,32.2,152.4,32.2z
	 M152.1,41.4c-0.8,0-2-0.4-2-1.5c0-1.4,1.5-1.8,2.7-1.8c1.1,0,1.6,0.3,2.3,0.5C155,40.3,153.6,41.4,152.1,41.4z M166.5,32.6
	l-2.9,7.3h-0.1l-3-7.3h-2.7l4.5,10.3l-2.6,5.5h2.6l6.9-16h-2.7V32.6z M143.7,43.4h2.6v-17h-2.6V43.4z"/>
<linearGradient id="SVGID_1_" gradientUnits="userSpaceOnUse" x1="28.9889" y1="46.522" x2="5.7534" y2="25.9918" gradientTransform="matrix(1 0 0 -1 0 62)">
	<stop  offset="0" style="stop-color:#00A0FF"/>
	<stop  offset="6.574450e-03" style="stop-color:#00A1FF"/>
	<stop  offset="0.2601" style="stop-color:#00BEFF"/>
	<stop  offset="0.5122" style="stop-color:#00D2FF"/>
	<stop  offset="0.7604" style="stop-color:#00DFFF"/>
	<stop  offset="1" style="stop-color:#00E3FF"/>
</linearGradient>
<path class="st2" d="M12.7,13.4c-0.4,0.4-0.7,1-0.7,1.8v28.9c0,0.8,0.3,1.4,0.7,1.8l0.1,0.1l16.2-16.2v-0.1v-0.1L12.7,13.4z"/>
<linearGradient id="SVGID_2_" gradientUnits="userSpaceOnUse" x1="44.1164" y1="32.205" x2="10.7015" y2="32.205" gradientTransform="matrix(1 0 0 -1 0 62)">
	<stop  offset="0" style="stop-color:#FFE000"/>
	<stop  offset="0.4087" style="stop-color:#FFBD00"/>
	<stop  offset="0.7754" style="stop-color:#FFA500"/>
	<stop  offset="1" style="stop-color:#FF9C00"/>
</linearGradient>
<path class="st3" d="M34.7,35.5l-5.7-5.6v-0.1v-0.1l5.7-5.6l0.1,0.1l6.8,3.8c1.9,1.1,1.9,2.9,0,4L34.7,35.5z"/>
<linearGradient id="SVGID_3_" gradientUnits="userSpaceOnUse" x1="32.1163" y1="28.9306" x2="-0.3362" y2="-1.1528" gradientTransform="matrix(1 0 0 -1 0 62)">
	<stop  offset="0" style="stop-color:#FF3A44"/>
	<stop  offset="1" style="stop-color:#C31162"/>
</linearGradient>
<path class="st4" d="M35.1,35.8l-5.8-5.5L12.1,46.5c0.7,0.7,1.7,0.7,2.9,0.1L35.1,35.8z"/>
<linearGradient id="SVGID_4_" gradientUnits="userSpaceOnUse" x1="6.1852" y1="57.8609" x2="21.1558" y2="44.5326" gradientTransform="matrix(1 0 0 -1 0 62)">
	<stop  offset="0" style="stop-color:#32A071"/>
	<stop  offset="6.850000e-02" style="stop-color:#2DA771"/>
	<stop  offset="0.4762" style="stop-color:#15CF74"/>
	<stop  offset="0.8009" style="stop-color:#06E775"/>
	<stop  offset="1" style="stop-color:#00F076"/>
</linearGradient>
<path class="st5" d="M35.1,24.4L15,13c-1.2-0.7-2.2-0.5-2.9,0.1l17.2,17.1L35.1,24.4z"/>
<path class="st6" d="M35.1,35.5L15,46.3c-1.1,0.7-2.1,0.5-2.8,0l-0.1,0.1l0.1,0.1c0.7,0.5,1.7,0.7,2.8,0L35.1,35.5z"/>
<path class="st7" d="M41.8,31.3l-6.7,4.1l0.1,0.1l6.5-4.1c0.9-0.6,1.3-1.3,1.3-2.1C43.1,30.1,42.6,30.8,41.8,31.3z"/>
<path class="st8" d="M15.4,13.3l26.3,15.2c0.8,0.5,1.3,1.1,1.3,1.8c0-0.7-0.4-1.4-1.3-1.9L15.4,13c-1.9-1.1-3.4-0.1-3.4,2.1v0.1
	C11.9,13,13.6,12.2,15.4,13.3z"/>
<path class="st9" d="M54.1,20.5v-8h2.6c1.3,0,2.5,0.4,3.2,1.1c0.9,0.8,1.2,1.7,1.2,2.9s-0.4,2.1-1.2,2.9c-0.9,0.8-1.9,1.1-3.2,1.1
	H54.1z M55.3,19.6h1.6c1,0,1.8-0.3,2.3-0.8c0.6-0.5,0.9-1.3,0.9-2.3c0-0.9-0.3-1.7-0.9-2.3c-0.6-0.5-1.5-0.8-2.3-0.8h-1.6V19.6z"/>
<path class="st9" d="M62.1,20.5v-8h1v8H62.1z"/>
<path class="st9" d="M67.7,20.5c-0.5,0-1.1-0.1-1.6-0.5c-0.5-0.4-0.9-0.9-1-1.5l0.9-0.4c0.1,0.4,0.4,0.8,0.6,1
	c0.4,0.3,0.7,0.4,1.1,0.4c0.4,0,0.7-0.1,1.1-0.4c0.2-0.3,0.5-0.5,0.5-0.9c0-0.4-0.1-0.8-0.5-1c-0.2-0.3-0.7-0.5-1.3-0.6
	c-0.6-0.3-1.1-0.5-1.5-0.8c-0.4-0.4-0.5-0.8-0.5-1.3c0-0.5,0.2-1,0.6-1.4c0.4-0.4,1-0.6,1.6-0.6s1.1,0.1,1.5,0.5
	c0.4,0.4,0.6,0.6,0.7,1L69,14.5c-0.1-0.3-0.2-0.5-0.5-0.6c-0.2-0.3-0.6-0.3-1-0.3c-0.4,0-0.6,0.1-1,0.3c-0.2,0.3-0.4,0.5-0.4,0.8
	c0,0.3,0.1,0.5,0.4,0.8c0.2,0.3,0.6,0.4,1.1,0.5c0.4,0.1,0.6,0.3,0.9,0.4c0.2,0.1,0.5,0.3,0.7,0.5c0.2,0.1,0.5,0.4,0.6,0.8
	c0.1,0.4,0.2,0.6,0.2,1c0,0.4-0.1,0.8-0.2,1c-0.1,0.3-0.4,0.5-0.6,0.6c-0.2,0.1-0.5,0.3-0.7,0.4C68.3,20.4,68.1,20.5,67.7,20.5z"/>
<path class="st9" d="M73.2,20.5h-1v-8h2.6c0.6,0,1.2,0.3,1.7,0.7c0.5,0.4,0.8,1.1,0.8,1.7s-0.3,1.2-0.8,1.7c-0.5,0.4-1,0.7-1.7,0.7
	H73v3.2H73.2z M73.2,16.4h1.7c0.4,0,0.8-0.1,1-0.4c0.3-0.3,0.4-0.7,0.4-0.9c0-0.3-0.1-0.7-0.4-0.9c-0.3-0.4-0.6-0.5-1-0.5h-1.7V16.4
	z"/>
<path class="st9" d="M85,19.4c-0.8,0.8-1.7,1.2-2.8,1.2c-1.2,0-2.1-0.4-2.8-1.2c-0.8-0.8-1.2-1.7-1.2-2.8c0-1.2,0.4-2.1,1.2-2.8
	c0.8-0.8,1.7-1.2,2.8-1.2c1.2,0,2.1,0.4,2.8,1.2c0.8,0.8,1.2,1.7,1.2,2.8C86.2,17.6,85.8,18.6,85,19.4z M80.1,18.7
	c0.5,0.5,1.3,0.9,2.1,0.9c0.8,0,1.6-0.3,2.1-0.9c0.5-0.5,0.9-1.3,0.9-2.2c0-0.9-0.3-1.7-0.8-2.3c-0.5-0.5-1.3-0.9-2.1-0.9
	c-0.8,0-1.6,0.3-2.1,0.9c-0.5,0.5-0.9,1.3-0.9,2.2C79.3,17.3,79.6,18.1,80.1,18.7z"/>
<path class="st9" d="M88.2,20.4v-7.8h1.2l3.8,6.1v-1.6v-4.6h1v7.8h-1l-3.9-6.3v1.6v4.8h-1V20.4z"/>
<path class="st9" d="M96.2,20.5v-8h1v8H96.2z"/>
<path class="st9" d="M99.2,20.4v-7.8h2.7c0.6,0,1.1,0.3,1.5,0.7c0.4,0.4,0.6,0.9,0.6,1.6c0,0.4-0.1,0.7-0.2,1
	c-0.1,0.3-0.4,0.5-0.7,0.7c0.4,0.1,0.6,0.4,0.9,0.7c0.2,0.3,0.4,0.7,0.4,1.2c0,0.7-0.2,1.2-0.6,1.6c-0.5,0.4-1,0.7-1.6,0.7h-2.8
	V20.4z M100.1,16h1.7c0.4,0,0.6-0.1,0.9-0.4c0.2-0.3,0.4-0.5,0.4-0.8c0-0.3-0.1-0.5-0.4-0.8c-0.1-0.3-0.5-0.4-0.9-0.4h-1.7V16z
	 M100.1,19.5h2c0.4,0,0.6-0.1,0.9-0.4c0.2-0.3,0.4-0.5,0.4-0.9c0-0.3-0.1-0.7-0.4-0.9c-0.2-0.3-0.5-0.4-0.9-0.4h-1.8v2.6H100.1z"/>
<path class="st9" d="M106.2,20.5v-8h0.9v7h3.1v0.9H106.2z"/>
<path class="st9" d="M116.2,13.6h-3.1v2.5h2.9v0.9h-2.9v2.5h3.1v0.9h-4v-8h4V13.6z"/>
<path class="st9" d="M126.2,13.6h-3.9v2.5h3.6v0.9h-3.6v2.5h3.9v0.9h-5v-8h5V13.6z"/>
<path class="st9" d="M127.2,20.4v-7.8h1.4l4.4,6.1v-1.6v-4.6h1.2v7.8H133l-4.7-6.3v1.6v4.8h-1.1V20.4z"/>
</svg>
