<?xml version="1.0" encoding="utf-8"?>
<!-- Generator: Adobe Illustrator 24.0.0, SVG Export Plug-In . SVG Version: 6.00 Build 0)  -->
<svg version="1.1" id="Capa_1" xmlns="http://www.w3.org/2000/svg" xmlns:xlink="http://www.w3.org/1999/xlink" x="0px" y="0px"
	 viewBox="0 0 181 61" style="enable-background:new 0 0 181 61;" xml:space="preserve">
<style type="text/css">
	.st0{clip-path:url(#SVGID_2_);fill:#B7B7B7;}
	.st1{clip-path:url(#SVGID_2_);fill:#000001;}
	.st2{clip-path:url(#SVGID_2_);fill:#FFFFFF;}
</style>
<g>
	<defs>
		<rect id="SVGID_1_" x="0.4" y="3.3" width="180.6" height="54.8"/>
	</defs>
	<clipPath id="SVGID_2_">
		<use xlink:href="#SVGID_1_"  style="overflow:visible;"/>
	</clipPath>
	<path class="st0" d="M166.5,3.3H14.7c-0.5,0-1.1,0-1.7,0c-0.5,0-0.9,0-1.4,0c-1.1,0-2,0.1-3,0.3C7.7,3.8,6.8,4,5.8,4.4
		c-0.9,0.4-1.7,1-2.4,1.6C2.7,6.8,2.1,7.5,1.6,8.3c-0.5,0.8-0.8,1.8-0.9,2.6c-0.2,1-0.3,1.9-0.3,2.7c0,0.4,0,0.8,0,1.2
		c0,0.5,0,1,0,1.5V45c0,0.5,0,1,0,1.5c0,0.4,0,0.8,0,1.2c0,1,0.2,1.8,0.3,2.7c0.2,1,0.5,1.8,0.9,2.6c0.5,1,1.1,1.6,1.8,2.3
		c0.8,0.7,1.5,1.2,2.4,1.6c0.9,0.4,1.8,0.7,2.9,0.8c1.1,0.1,2,0.3,3,0.3c0.5,0,0.9,0,1.4,0c0.6,0,1.1,0,1.7,0h151.8
		c0.6,0,1.1,0,1.7,0c0.5,0,0.9,0,1.4,0c1.1,0,2-0.1,3-0.3c1.1-0.1,2-0.4,2.9-0.8c0.9-0.4,1.7-1,2.4-1.6c0.8-0.7,1.4-1.4,1.8-2.2
		c0.5-0.8,0.8-1.6,0.9-2.6c0.2-1,0.3-1.8,0.3-2.7c0-0.4,0-0.8,0-1.2c0-0.5,0-1,0-1.5V16.4c0-0.5,0-1,0-1.5c0-0.4,0-0.8,0-1.2
		c0-1-0.2-1.8-0.3-2.7c-0.2-1-0.5-1.8-0.9-2.6c-0.5-0.8-1.1-1.5-1.8-2.2c-0.8-0.7-1.5-1.2-2.4-1.6c-0.9-0.4-1.8-0.7-2.9-0.8
		c-1.1-0.1-2-0.3-3-0.3c-0.5,0-0.9,0-1.4,0C167.7,3.3,167.1,3.3,166.5,3.3z"/>
	<path class="st1" d="M13.1,56.9c-0.5,0-0.9,0-1.4,0c-0.9,0-1.8,0-2.9-0.3C8,56.5,7.1,56.2,6.3,56c-0.8-0.4-1.5-0.8-2.1-1.4
		C3.6,54,3,53.4,2.7,52.7c-0.5-0.7-0.6-1.4-0.8-2.3c-0.2-1-0.3-1.9-0.3-2.6c0-0.3,0-1.2,0-1.2V14.9c0,0,0-1,0-1.2
		c0-0.7,0-1.6,0.3-2.6c0.3-0.7,0.5-1.5,0.9-2.2c0.5-0.7,0.9-1.4,1.5-1.9c0.6-0.5,1.4-1,2.1-1.4C7.2,5.1,8.1,5,9,4.8
		c0.9-0.3,2-0.3,2.7-0.3h1.4h155.1h1.4c0.8,0,1.8,0,2.9,0.3c0.9,0.1,1.7,0.4,2.6,0.7c0.8,0.4,1.5,0.8,2.1,1.4
		c0.6,0.5,1.2,1.2,1.5,1.9c0.5,0.7,0.6,1.5,0.8,2.2c0.2,0.8,0.3,1.8,0.3,2.6c0,0.4,0,0.8,0,1.2c0,0.5,0,1,0,1.5V45c0,0.5,0,1,0,1.5
		c0,0.4,0,0.8,0,1.2c0,0.8-0.2,1.6-0.3,2.6c-0.2,0.8-0.5,1.6-0.8,2.3c-0.5,0.7-0.9,1.4-1.5,1.9c-0.6,0.5-1.4,1.1-2.1,1.4
		c-0.8,0.4-1.5,0.5-2.6,0.7c-0.9,0.1-2,0.1-2.9,0.3c-0.5,0-0.9,0-1.4,0h-1.7H13.1z"/>
	<path class="st2" d="M37.8,31.2c0-3.8,3.5-5.6,3.6-5.8c-2-2.6-5-2.9-6-3c-2.6-0.3-5,1.4-6.3,1.4c-1.4,0-3.3-1.4-5.4-1.4
		c-2.7,0-5.3,1.5-6.8,3.7C14,30.6,16.1,37.5,19,41.2c1.4,1.8,3,3.8,5.1,3.8c2.1-0.1,2.9-1.2,5.4-1.2S32.7,45,35,45
		c2.3,0,3.6-1.8,5-3.7c1.7-2.1,2.3-4.1,2.3-4.2C42.2,37.2,37.8,35.7,37.8,31.2z"/>
	<path class="st2" d="M33.6,20.1c1.1-1.2,2-3,1.7-4.8c-1.7,0-3.6,1-4.8,2.3c-1.1,1.1-2,2.9-1.7,4.7C30.6,22.3,32.6,21.3,33.6,20.1z"
		/>
	<path class="st2" d="M64.2,40.5h-7.1l-1.7,4.7h-3l6.8-17h3l6.8,17h-3L64.2,40.5z M57.9,38.4h5.7l-2.9-7.5h-0.2L57.9,38.4z"/>
	<path class="st2" d="M83.7,39c0,3.8-2.3,6.3-5.7,6.3c-2,0-3.5-0.8-4.2-2.2v6.2h-2.9V32.8h2.7v2.1c0.8-1.4,2.4-2.2,4.4-2.2
		C81.3,32.5,83.7,35.1,83.7,39z M80.7,39c0-2.5-1.4-4.1-3.6-4.1c-2.1,0-3.6,1.6-3.6,4.1c0,2.5,1.5,4.1,3.6,4.1
		C79.3,43.1,80.7,41.4,80.7,39z"/>
	<path class="st2" d="M98.6,39c0,3.8-2.3,6.3-5.7,6.3c-2,0-3.5-0.8-4.2-2.2v6.2h-2.9V32.8h2.7v2.1c0.8-1.4,2.4-2.2,4.4-2.2
		C96.4,32.5,98.6,35.1,98.6,39z M95.8,39c0-2.5-1.4-4.1-3.6-4.1c-2.1,0-3.6,1.6-3.6,4.1c0,2.5,1.5,4.1,3.6,4.1
		C94.4,43.1,95.8,41.4,95.8,39z"/>
	<path class="st2" d="M108.6,40.3c0.2,1.6,2,2.7,4.5,2.7c2.4,0,4.1-1.1,4.1-2.6c0-1.4-1.1-2.1-3.5-2.6l-2.4-0.5
		c-3.5-0.8-5-2.2-5-4.5c0-2.9,2.9-4.9,6.8-4.9c3.9,0,6.6,2.1,6.8,4.9H117c-0.2-1.6-1.7-2.7-3.9-2.7c-2.3,0-3.8,1.1-3.8,2.6
		c0,1.2,1.1,1.9,3.5,2.5l2.1,0.4c3.8,0.8,5.4,2.2,5.4,4.7c0,3.2-2.9,5.2-7.2,5.2c-4.2,0-6.9-1.9-7.1-5.1H108.6z"/>
	<path class="st2" d="M126.1,29.8v2.9h2.6v2.1h-2.6v6.9c0,1.1,0.5,1.5,1.7,1.5c0.3,0,0.8,0,0.9,0v2.1c-0.3,0.1-0.9,0.1-1.5,0.1
		c-2.7,0-3.8-1-3.8-3.3v-7.1h-2v-2.1h2v-2.9h2.7V29.8z"/>
	<path class="st2" d="M130.3,39c0-3.8,2.6-6.3,6.5-6.3c3.9,0,6.5,2.5,6.5,6.3c0,4-2.6,6.3-6.5,6.3C132.7,45.3,130.3,42.8,130.3,39z
		 M140.4,39c0-2.7-1.4-4.2-3.6-4.2c-2.3,0-3.6,1.5-3.6,4.2c0,2.7,1.4,4.2,3.6,4.2C139.1,43.2,140.4,41.6,140.4,39z"/>
	<path class="st2" d="M145.5,32.7h2.7v2.2c0.5-1.4,1.7-2.2,3.3-2.2c0.5,0,0.8,0,0.9,0.1v2.3c-0.2-0.1-0.8-0.1-1.2-0.1
		c-1.8,0-2.9,1.1-2.9,2.9v7.4h-2.9V32.7z"/>
	<path class="st2" d="M165.5,41.4c-0.3,2.2-2.9,3.8-5.9,3.8c-3.9,0-6.5-2.5-6.5-6.3s2.4-6.4,6.3-6.4c3.8,0,6.2,2.3,6.2,6.2v0.8H156
		v0.1c0,2.1,1.5,3.6,3.6,3.6c1.5,0,2.7-0.7,3.2-1.8H165.5z M156,37.7h6.8c0-1.9-1.4-3.2-3.3-3.2S156.1,36,156,37.7z"/>
	<path class="st2" d="M53.8,19.4c0-2.6,1.5-4.2,4.1-4.2c2,0,3.5,1.2,3.8,2.9h-1.4c-0.3-1-1.2-1.6-2.4-1.6c-1.7,0-2.6,1.2-2.6,3.2
		c0,1.9,1.1,3.2,2.6,3.2c1.2,0,2.1-0.5,2.4-1.5h1.4c-0.3,1.6-1.7,2.7-3.8,2.7C55.5,23.6,53.8,22,53.8,19.4z"/>
	<path class="st2" d="M63.2,20.3c0-2.1,1.2-3.2,3.2-3.2s3.2,1.2,3.2,3.2c0,2.1-1.2,3.2-3.2,3.2C64.4,23.6,63.2,22.4,63.2,20.3z
		 M68.2,20.3c0-1.4-0.6-2.1-1.8-2.1s-1.8,0.8-1.8,2.1c0,1.4,0.6,2.2,1.8,2.2S68.2,21.7,68.2,20.3z"/>
	<path class="st2" d="M71.3,17.3h1.4v1h0.2c0.3-0.7,1.1-1.1,2-1.1c1.5,0,2.4,0.8,2.4,2.3v4h-1.4v-3.7c0-1-0.5-1.5-1.5-1.5
		c-1.1,0-1.7,0.5-1.7,1.5v3.6h-1.4V17.3z"/>
	<path class="st2" d="M81.7,17.2c1.5,0,2.6,0.7,2.7,1.8h-1.4c-0.2-0.4-0.6-0.7-1.4-0.7c-0.8,0-1.4,0.3-1.4,0.8
		c0,0.4,0.3,0.5,1.1,0.8l1.1,0.3c1.4,0.3,2,0.8,2,1.6c0,1.1-1.2,1.9-2.9,1.9c-1.7,0-2.7-0.7-2.7-1.8h1.4c0.2,0.4,0.6,0.8,1.5,0.8
		c0.9,0,1.4-0.3,1.4-0.8c0-0.4-0.3-0.5-1.1-0.7L80.8,21c-1.4-0.3-2-0.8-2-1.8C79,18,80.2,17.2,81.7,17.2z"/>
	<path class="st2" d="M86.3,16.2l1.5-1.9h1.5l-1.8,1.9H86.3z M86.4,17.3h1.4v6.2h-1.4V17.3z"/>
	<path class="st2" d="M89.7,24h1.4c0.2,0.4,0.8,0.7,1.7,0.7c1.1,0,1.8-0.5,1.8-1.2v-1.2h-0.2c-0.5,0.7-1.2,1.1-2.1,1.1
		c-1.7,0-2.9-1.2-2.9-3c0-1.9,1.1-3.2,2.9-3.2c0.9,0,1.8,0.4,2.1,1.1h0.2v-1h1.4v6.2c0,1.4-1.2,2.3-3.2,2.3
		C90.9,25.8,89.9,25.1,89.7,24z M94.6,20.3c0-1.2-0.8-2.1-1.8-2.1c-1.2,0-1.8,0.8-1.8,2.1c0,1.2,0.6,2.1,1.8,2.1
		C93.8,22.4,94.6,21.6,94.6,20.3z"/>
	<path class="st2" d="M103.8,23.5h-1.4v-1h-0.2c-0.3,0.7-1.1,1.1-2.1,1.1c-1.5,0-2.4-0.8-2.4-2.3v-4h1.4V21c0,1,0.5,1.5,1.4,1.5
		c1.1,0,1.7-0.5,1.7-1.5v-3.6h1.4v6H103.8z"/>
	<path class="st2" d="M111.6,21.8c-0.3,1.1-1.4,1.8-3,1.8c-2,0-3.2-1.2-3.2-3.2s1.2-3.3,3.2-3.3c2,0,3,1.2,3,3.2v0.4h-4.8
		c0,1.1,0.8,1.8,1.8,1.8c0.8,0,1.4-0.3,1.7-0.7H111.6z M106.9,19.8h3.5c0-1-0.8-1.6-1.7-1.6C107.7,18.3,106.9,18.8,106.9,19.8z"/>
	<path class="st2" d="M113.6,14.9h1.4v8.6h-1.4V14.9z"/>
	<path class="st2" d="M116.7,20.3c0-2.1,1.2-3.2,3.2-3.2c2,0,3.2,1.2,3.2,3.2c0,2.1-1.2,3.2-3.2,3.2
		C117.9,23.6,116.7,22.4,116.7,20.3z M121.7,20.3c0-1.4-0.6-2.1-1.8-2.1c-1.2,0-1.8,0.8-1.8,2.1c0,1.4,0.6,2.2,1.8,2.2
		C121.1,22.5,121.7,21.7,121.7,20.3z"/>
	<path class="st2" d="M134.4,21.8c-0.3,1.1-1.4,1.8-3,1.8c-2,0-3.2-1.2-3.2-3.2s1.2-3.3,3.2-3.3s3,1.2,3,3.2v0.4h-4.8
		c0,1.1,0.8,1.8,1.8,1.8c0.8,0,1.4-0.3,1.7-0.7H134.4z M129.7,19.8h3.5c0-1-0.8-1.6-1.7-1.6C130.5,18.3,129.7,18.8,129.7,19.8z"/>
	<path class="st2" d="M136.2,17.3h1.4v1h0.2c0.3-0.7,1.1-1.1,2-1.1c1.5,0,2.4,0.8,2.4,2.3v4h-1.4v-3.7c0-1-0.5-1.5-1.5-1.5
		c-1.1,0-1.7,0.5-1.7,1.5v3.6h-1.4V17.3z"/>
	<path class="st2" d="M153.5,21.8c-0.3,1.1-1.4,1.8-3,1.8c-2,0-3.2-1.2-3.2-3.2s1.2-3.3,3.2-3.3s3,1.2,3,3.2v0.4h-4.8
		c0,1.1,0.8,1.8,1.8,1.8c0.8,0,1.4-0.3,1.7-0.7H153.5z M148.9,19.8h3.5c0-1-0.8-1.6-1.7-1.6C149.6,18.3,148.9,18.8,148.9,19.8z"/>
	<path class="st2" d="M155.5,14.9h1.4v8.6h-1.4V14.9z"/>
</g>
</svg>
