<svg width="181" height="61" viewBox="0 0 181 61" fill="none" xmlns="http://www.w3.org/2000/svg">
<g clip-path="url(#clip0_1166_1341)">
<path d="M165.717 0H14.2989C13.8473 0 13.2453 0 12.6432 0C12.1917 0 11.7401 0 11.2886 0C10.235 0 9.33194 0.151706 8.2783 0.303411C7.2247 0.455117 6.32161 0.758529 5.41853 1.21365C4.51544 1.66876 3.76287 2.27559 3.01029 3.03411C2.25772 3.79264 1.65566 4.55117 1.20412 5.46141C0.752572 6.37164 0.451544 7.43358 0.30103 8.34382C0.150514 9.40576 0 10.4677 0 11.3779C0 11.833 0 12.2882 0 12.7433C0 13.3501 0 13.8052 0 14.412V46.1185C0 46.7254 0 47.1805 0 47.7873C0 48.2424 0 48.6975 0 49.1527C0 50.2146 0.150514 51.1248 0.30103 52.1868C0.451544 53.2487 0.752572 54.159 1.20412 55.0692C1.65566 56.1311 2.25772 56.8897 3.01029 57.6482C3.76287 58.4067 4.51544 59.0135 5.41853 59.4687C6.32161 59.9238 7.2247 60.2272 8.2783 60.3789C9.33194 60.5306 10.235 60.6823 11.2886 60.6823C11.7401 60.6823 12.1917 60.6823 12.6432 60.6823C13.2453 60.6823 13.6968 60.6823 14.2989 60.6823H165.717C166.319 60.6823 166.771 60.6823 167.372 60.6823C167.824 60.6823 168.275 60.6823 168.727 60.6823C169.78 60.6823 170.683 60.5306 171.737 60.3789C172.791 60.2272 173.694 59.9238 174.597 59.4687C175.5 59.0135 176.252 58.4067 177.005 57.6482C177.758 56.8897 178.36 56.1311 178.811 55.2209C179.263 54.3107 179.564 53.4004 179.715 52.3385C179.865 51.2765 180.015 50.3663 180.015 49.3044C180.015 48.8493 180.015 48.3941 180.015 47.939C180.015 47.3322 180.015 46.8771 180.015 46.2703V14.412C180.015 13.8052 180.015 13.3501 180.015 12.7433C180.015 12.2882 180.015 11.833 180.015 11.3779C180.015 10.316 179.865 9.40576 179.715 8.34382C179.564 7.28188 179.263 6.37164 178.811 5.46141C178.36 4.55117 177.758 3.79264 177.005 3.03411C176.252 2.27559 175.5 1.66876 174.597 1.21365C173.694 0.758529 172.791 0.455117 171.737 0.303411C170.683 0.151706 169.78 0 168.727 0C168.275 0 167.824 0 167.372 0C166.921 0 166.319 0 165.717 0Z" fill="#B7B7B7"/>
<path d="M12.6432 59.3169C12.1917 59.3169 11.7401 59.3169 11.2886 59.3169C10.3855 59.3169 9.48244 59.3169 8.4288 59.0134C7.52569 58.8617 6.62263 58.5583 5.87006 58.2549C5.11748 57.7998 4.36491 57.3447 3.76285 56.7379C3.16079 56.131 2.55874 55.3725 2.25771 54.614C1.80616 53.8554 1.65565 53.0969 1.50513 52.035C1.35462 50.973 1.2041 49.9111 1.2041 49.1526C1.2041 48.8492 1.2041 47.7872 1.2041 47.7872V12.7432C1.2041 12.7432 1.2041 11.6812 1.2041 11.3778C1.2041 10.6193 1.2041 9.55737 1.50513 8.49543C1.80616 7.7369 1.95667 6.82664 2.40822 6.06811C2.85976 5.30958 3.31131 4.55106 3.91336 3.94423C4.51543 3.33741 5.268 2.88229 6.02057 2.42717C6.77314 1.97206 7.67622 1.82035 8.57933 1.66865C9.48244 1.36523 10.536 1.36523 11.2886 1.36523H12.6432H167.372H168.727C169.48 1.36523 170.533 1.36523 171.586 1.66865C172.489 1.82035 173.242 2.12376 174.146 2.42717C174.898 2.88229 175.651 3.33741 176.252 3.94423C176.855 4.55106 177.457 5.30958 177.758 6.06811C178.209 6.82664 178.36 7.7369 178.511 8.49543C178.661 9.40566 178.811 10.4676 178.811 11.3778C178.811 11.833 178.811 12.2881 178.811 12.7432C178.811 13.35 178.811 13.8051 178.811 14.412V46.1185C178.811 46.7253 178.811 47.1804 178.811 47.7872C178.811 48.2423 178.811 48.6975 178.811 49.1526C178.811 50.0628 178.661 50.973 178.511 52.035C178.36 52.9452 178.059 53.8554 177.758 54.614C177.306 55.3725 176.855 56.131 176.252 56.7379C175.651 57.3447 174.898 57.9515 174.146 58.2549C173.392 58.71 172.64 58.8617 171.586 59.0134C170.683 59.1651 169.63 59.1651 168.727 59.3169C168.275 59.3169 167.824 59.3169 167.372 59.3169H165.717H12.6432Z" fill="#000001"/>
<path d="M37.3277 30.796C37.3277 26.5483 40.7896 24.5761 40.94 24.4244C38.9834 21.542 35.973 21.2386 34.9195 21.0868C32.3607 20.7834 29.9525 22.6039 28.5978 22.6039C27.2432 22.6039 25.2865 21.0868 23.1793 21.0868C20.4701 21.0868 17.9113 22.7556 16.4061 25.1829C13.5464 30.1892 15.6536 37.7745 18.5133 41.8705C19.868 43.8427 21.5236 46.1183 23.6309 46.1183C25.7381 45.9666 26.4906 44.7529 29.0494 44.7529C31.6082 44.7529 32.2102 46.1183 34.4679 46.1183C36.7256 46.1183 38.0802 44.1461 39.4349 42.0222C41.0906 39.7467 41.6926 37.4711 41.6926 37.3194C41.6926 37.4711 37.3277 35.8023 37.3277 30.796Z" fill="white"/>
<path d="M33.113 18.5079C34.1665 17.1426 35.0696 15.1704 34.7686 13.1982C33.113 13.1982 31.1563 14.2602 29.9521 15.7772C28.8985 16.9909 27.9954 18.9631 28.2965 20.9352C30.1026 20.9352 32.0593 19.8733 33.113 18.5079Z" fill="white"/>
<path d="M63.6679 41.112H56.5937L54.9381 46.27H51.9277L58.7009 27.4585H61.7112L68.4843 46.27H65.4741L63.6679 41.112ZM57.3462 38.8364H63.0658L60.206 30.4926H60.0555L57.3462 38.8364Z" fill="white"/>
<path d="M83.0835 39.4434C83.0835 43.6912 80.8259 46.4219 77.3645 46.4219C75.4077 46.4219 73.9024 45.5116 73.1498 43.9946V50.8213H70.29V32.6167H72.9993V34.8922C73.7517 33.3752 75.4077 32.4649 77.3645 32.4649C80.6759 32.3132 83.0835 35.1956 83.0835 39.4434ZM80.0736 39.4434C80.0736 36.7127 78.7191 34.8922 76.4615 34.8922C74.3539 34.8922 72.8488 36.7127 72.8488 39.4434C72.8488 42.1741 74.3539 43.9946 76.4615 43.9946C78.7191 43.9946 80.0736 42.1741 80.0736 39.4434Z" fill="white"/>
<path d="M97.9854 39.4434C97.9854 43.6912 95.7271 46.4219 92.2657 46.4219C90.3089 46.4219 88.8035 45.5116 88.0513 43.9946V50.8213H85.1914V32.6167H87.9005V34.8922C88.6535 33.3752 90.3089 32.4649 92.2657 32.4649C95.7271 32.3132 97.9854 35.1956 97.9854 39.4434ZM95.1255 39.4434C95.1255 36.7127 93.771 34.8922 91.5127 34.8922C89.4058 34.8922 87.9005 36.7127 87.9005 39.4434C87.9005 42.1741 89.4058 43.9946 91.5127 43.9946C93.771 43.9946 95.1255 42.1741 95.1255 39.4434Z" fill="white"/>
<path d="M107.919 40.9605C108.069 42.781 109.876 43.9946 112.435 43.9946C114.843 43.9946 116.498 42.781 116.498 41.1122C116.498 39.5951 115.445 38.8366 113.036 38.2298L110.629 37.623C107.166 36.7127 105.661 35.1957 105.661 32.6167C105.661 29.4309 108.521 27.1553 112.435 27.1553C116.348 27.1553 119.057 29.4309 119.207 32.6167H116.348C116.198 30.7962 114.692 29.5826 112.435 29.5826C110.176 29.5826 108.672 30.7962 108.672 32.465C108.672 33.8303 109.725 34.5889 112.133 35.1957L114.241 35.6508C118.004 36.561 119.659 38.0781 119.659 40.8088C119.659 44.298 116.799 46.5736 112.435 46.5736C108.22 46.5736 105.51 44.4497 105.36 40.9605H107.919Z" fill="white"/>
<path d="M125.379 29.2791V32.4649H127.938V34.7405H125.379V42.3257C125.379 43.5394 125.83 43.9945 127.034 43.9945C127.336 43.9945 127.787 43.9945 127.938 43.9945V46.2701C127.636 46.4218 127.034 46.4218 126.433 46.4218C123.724 46.4218 122.67 45.3599 122.67 42.7809V34.8922H120.713V32.6166H122.67V29.4308H125.379V29.2791Z" fill="white"/>
<path d="M129.593 39.4433C129.593 35.1955 132.152 32.4648 136.065 32.4648C139.979 32.4648 142.537 35.1955 142.537 39.4433C142.537 43.8428 139.979 46.4218 136.065 46.4218C132.002 46.4218 129.593 43.6911 129.593 39.4433ZM139.677 39.4433C139.677 36.4092 138.323 34.7404 136.065 34.7404C133.808 34.7404 132.453 36.4092 132.453 39.4433C132.453 42.4774 133.808 44.1462 136.065 44.1462C138.323 44.1462 139.677 42.3257 139.677 39.4433Z" fill="white"/>
<path d="M144.795 32.4648H147.505V34.8921C147.956 33.3751 149.16 32.4648 150.816 32.4648C151.267 32.4648 151.568 32.4648 151.719 32.6166V35.1955C151.568 35.0438 150.966 35.0438 150.514 35.0438C148.708 35.0438 147.655 36.2575 147.655 38.2297V46.4218H144.795V32.4648Z" fill="white"/>
<path d="M164.663 42.1741C164.362 44.6014 161.803 46.4219 158.793 46.4219C154.879 46.4219 152.32 43.6912 152.32 39.4434C152.32 35.1956 154.729 32.3132 158.642 32.3132C162.405 32.3132 164.814 34.8922 164.814 39.14V40.0502H155.18V40.2019C155.18 42.4775 156.685 44.1463 158.793 44.1463C160.298 44.1463 161.502 43.3878 161.954 42.1741H164.663ZM155.18 38.0781H161.954C161.954 35.9542 160.599 34.5888 158.642 34.5888C156.685 34.5888 155.331 36.1059 155.18 38.0781Z" fill="white"/>
<path d="M53.2822 17.7493C53.2822 14.8669 54.7874 13.0464 57.3461 13.0464C59.3028 13.0464 60.8079 14.4117 61.1089 16.2322H59.7543C59.4533 15.1703 58.5502 14.4117 57.3461 14.4117C55.6904 14.4117 54.7874 15.7771 54.7874 17.901C54.7874 20.0249 55.8409 21.3902 57.3461 21.3902C58.5502 21.3902 59.4533 20.7834 59.7543 19.7214H61.1089C60.8079 21.5419 59.4533 22.7556 57.3461 22.7556C54.9378 22.4521 53.2822 20.6317 53.2822 17.7493Z" fill="white"/>
<path d="M62.6143 18.8115C62.6143 16.5359 63.8184 15.3223 65.7751 15.3223C67.7318 15.3223 68.9359 16.6876 68.9359 18.8115C68.9359 21.0871 67.7318 22.3007 65.7751 22.3007C63.8184 22.4524 62.6143 21.0871 62.6143 18.8115ZM67.5812 18.8115C67.5812 17.2944 66.9792 16.5359 65.7751 16.5359C64.571 16.5359 63.9689 17.4461 63.9689 18.8115C63.9689 20.3286 64.571 21.2388 65.7751 21.2388C66.9792 21.2388 67.5812 20.3286 67.5812 18.8115Z" fill="white"/>
<path d="M70.7417 15.474H72.0963V16.5359H72.2468C72.5478 15.7774 73.3004 15.3223 74.2032 15.3223C75.7085 15.3223 76.6115 16.2325 76.6115 17.9013V22.3007H75.257V18.2047C75.257 17.1427 74.8054 16.5359 73.7517 16.5359C72.6984 16.5359 72.0963 17.1427 72.0963 18.2047V22.149H70.7417V15.474Z" fill="white"/>
<path d="M81.1274 15.3223C82.632 15.3223 83.6858 16.0808 83.8365 17.2944H82.482C82.3312 16.8393 81.8797 16.5359 81.1274 16.5359C80.3744 16.5359 79.7729 16.8393 79.7729 17.4461C79.7729 17.9013 80.0737 18.053 80.8259 18.3564L81.8797 18.6598C83.2343 18.9632 83.8365 19.57 83.8365 20.4803C83.8365 21.6939 82.632 22.6041 80.9767 22.6041C79.3206 22.6041 78.2676 21.8456 78.2676 20.632H79.6221C79.7729 21.0871 80.2244 21.5422 81.1274 21.5422C82.0305 21.5422 82.482 21.2388 82.482 20.632C82.482 20.1769 82.1805 20.0251 81.4282 19.8734L80.2244 19.57C78.8691 19.2666 78.2676 18.6598 78.2676 17.5979C78.4176 16.2325 79.6221 15.3223 81.1274 15.3223Z" fill="white"/>
<path d="M85.6431 14.2601L87.1484 12.1362H88.6537L86.8469 14.2601H85.6431ZM85.7938 15.4738H87.1484V22.3005H85.7938V15.4738Z" fill="white"/>
<path d="M89.1052 22.9076H90.4598C90.6098 23.3627 91.2121 23.6661 92.1151 23.6661C93.1689 23.6661 93.9212 23.0593 93.9212 22.3007V20.9354H93.7712C93.3196 21.6939 92.5666 22.149 91.6636 22.149C90.0083 22.149 88.8037 20.7837 88.8037 18.8115C88.8037 16.6876 89.8575 15.3223 91.6636 15.3223C92.5666 15.3223 93.4696 15.7774 93.7712 16.5359H93.9212V15.474H95.2757V22.3007C95.2757 23.8178 94.0719 24.8797 92.1151 24.8797C90.309 24.8797 89.2552 24.1212 89.1052 22.9076ZM93.9212 18.8115C93.9212 17.4461 93.1689 16.5359 92.1151 16.5359C90.9113 16.5359 90.309 17.4461 90.309 18.8115C90.309 20.1768 90.9113 21.0871 92.1151 21.0871C93.1689 21.0871 93.9212 20.1768 93.9212 18.8115Z" fill="white"/>
<path d="M103.103 22.3009H101.748V21.2389H101.597C101.296 21.9975 100.543 22.4526 99.4896 22.4526C97.9851 22.4526 97.082 21.5424 97.082 19.8736V15.4741H98.4366V19.5702C98.4366 20.6321 98.8881 21.2389 99.7911 21.2389C100.845 21.2389 101.446 20.6321 101.446 19.5702V15.6258H102.801V22.3009H103.103Z" fill="white"/>
<path d="M110.93 20.4803C110.629 21.6939 109.575 22.4524 107.919 22.4524C105.963 22.4524 104.758 21.0871 104.758 18.9632C104.758 16.8393 105.963 15.3223 107.919 15.3223C109.876 15.3223 110.93 16.6876 110.93 18.8115V19.2666H106.113C106.113 20.4803 106.866 21.2388 107.919 21.2388C108.672 21.2388 109.274 20.9354 109.575 20.4803H110.93ZM106.264 18.2047H109.726C109.726 17.1427 108.973 16.3842 108.07 16.3842C107.016 16.5359 106.264 17.1427 106.264 18.2047Z" fill="white"/>
<path d="M112.886 12.7432H114.241V22.3006H112.886V12.7432Z" fill="white"/>
<path d="M116.047 18.8115C116.047 16.5359 117.251 15.3223 119.207 15.3223C121.164 15.3223 122.369 16.6876 122.369 18.8115C122.369 21.0871 121.164 22.3007 119.207 22.3007C117.251 22.4524 116.047 21.0871 116.047 18.8115ZM121.014 18.8115C121.014 17.2944 120.412 16.5359 119.207 16.5359C118.004 16.5359 117.401 17.4461 117.401 18.8115C117.401 20.3286 118.004 21.2388 119.207 21.2388C120.412 21.2388 121.014 20.3286 121.014 18.8115Z" fill="white"/>
<path d="M133.658 20.4803C133.356 21.6939 132.302 22.4524 130.647 22.4524C128.69 22.4524 127.486 21.0871 127.486 18.9632C127.486 16.8393 128.69 15.3223 130.647 15.3223C132.604 15.3223 133.658 16.6876 133.658 18.8115V19.2666H128.841C128.841 20.4803 129.593 21.2388 130.647 21.2388C131.399 21.2388 132.002 20.9354 132.302 20.4803H133.658ZM128.991 18.2047H132.453C132.453 17.1427 131.701 16.3842 130.798 16.3842C129.744 16.5359 128.991 17.1427 128.991 18.2047Z" fill="white"/>
<path d="M135.463 15.474H136.818V16.5359H136.968C137.269 15.7774 138.022 15.3223 138.925 15.3223C140.43 15.3223 141.333 16.2325 141.333 17.9013V22.3007H139.979V18.2047C139.979 17.1427 139.527 16.5359 138.473 16.5359C137.419 16.5359 136.818 17.1427 136.818 18.2047V22.149H135.463V15.474Z" fill="white"/>
<path d="M152.773 20.4803C152.471 21.6939 151.418 22.4524 149.762 22.4524C147.805 22.4524 146.602 21.0871 146.602 18.9632C146.602 16.8393 147.805 15.3223 149.762 15.3223C151.719 15.3223 152.773 16.6876 152.773 18.8115V19.2666H147.956C147.956 20.4803 148.708 21.2388 149.762 21.2388C150.514 21.2388 151.117 20.9354 151.418 20.4803H152.773ZM148.107 18.2047H151.568C151.568 17.1427 150.816 16.3842 149.913 16.3842C148.859 16.5359 148.107 17.1427 148.107 18.2047Z" fill="white"/>
<path d="M154.729 12.7432H156.084V22.3006H154.729V12.7432Z" fill="white"/>
</g>
<defs>
<clipPath id="clip0_1166_1341">
<rect width="180.166" height="60.6823" fill="white"/>
</clipPath>
</defs>
</svg>
