<svg width="500" height="500" viewBox="0 0 500 500" fill="none" xmlns="http://www.w3.org/2000/svg">
<path d="M249.949 500C216.581 500 184.189 493.548 153.593 480.751C123.922 468.33 97.2279 450.532 74.23 427.895C51.078 404.99 32.8029 378.266 20.0205 348.425C6.77618 317.238 0 284.117 0 249.973C0 215.83 6.77618 182.762 20.1232 151.575C32.9055 121.734 51.1294 95.0102 74.3326 72.1045C97.2793 49.4139 123.973 31.6163 153.696 19.2494C184.189 6.45231 216.632 0 249.949 0C283.265 0 315.708 6.45231 346.304 19.2494C375.975 31.6701 402.669 49.4677 425.667 72.1045C448.819 95.0102 467.094 121.734 479.877 151.575C493.224 182.708 500 215.83 500 249.973C500 284.117 493.224 317.185 479.877 348.371C467.094 378.213 448.871 404.936 425.667 427.842C402.721 450.532 376.027 468.33 346.304 480.697C315.76 493.494 283.316 500 249.949 500ZM249.949 107.538C168.737 107.538 102.669 171.47 102.669 249.973C102.669 328.476 168.737 392.408 249.949 392.408C331.16 392.408 397.279 328.53 397.279 249.973C397.279 171.416 331.212 107.538 249.949 107.538Z" fill="#004D80"/>
</svg>
