<svg id="Capa_1" data-name="Capa 1" xmlns="http://www.w3.org/2000/svg" viewBox="0 0 1000 1000"><defs><style>.cls-1{fill:#d0e3ed;opacity:0.34;}.cls-1,.cls-10,.cls-3,.cls-4,.cls-5,.cls-6,.cls-7,.cls-9{fill-rule:evenodd;}.cls-2,.cls-3{fill:#294f7c;}.cls-4{fill:#d3da62;}.cls-5{fill:#8e8e2f;}.cls-6{fill:#fff;}.cls-7,.cls-8{fill:#4bade9;}.cls-9{fill:#d4db62;}.cls-10{fill:#b6c4e2;}</style></defs><path class="cls-1" d="M773.26,687.42h84.31c45.38,0,82.5,35.91,82.5,79.79h0c0,43.89-37.12,79.79-82.5,79.79H144.69C71.22,847,11.1,788.86,11.1,717.8h0c0-71.06,60.12-129.2,133.59-129.2h0c31.07,0,56.49-24.59,56.49-54.63h0c0-30.05-25.42-54.63-56.49-54.63h-68c-32.3,0-58.72-25.56-58.72-56.8h0c0-31.24,26.42-56.8,58.72-56.8h86c12.58,0,22.87-9.95,22.87-22.11h0c0-12.16-10.29-22.11-22.87-22.11H147.52c-8.68,0-15.78-6.87-15.78-15.26h0c0-8.39,7.1-15.26,15.78-15.26H247c20.95,0,23.28,23.93,76.17,23.93H445.78c11.33,0,20.59,9,20.59,19.91h0c0,11-9.26,19.91-20.59,19.91H426c-16.41,0-29.83,13-29.83,28.85h0c0,15.86,13.42,28.85,29.83,28.85h59.51c80.36,0,91.71,20.31,105.78,60.7s87.16,43.65,87.16,43.65h99.95c24.72,0,45,19.57,45,43.49h0c0,23.91-20.24,43.48-45,43.48h-5.15c-23.78,0-43.24,18.82-43.24,41.82h0c0,23,19.46,41.82,43.24,41.82Zm-670-365.9a15.27,15.27,0,1,0-15.78-15.26A15.52,15.52,0,0,0,103.24,321.52Z"/><rect class="cls-2" x="74.58" y="845.9" width="853.58" height="11.62" rx="5.81"/><rect class="cls-2" x="42.8" y="845.9" width="23.48" height="11.62" rx="5.81"/><path class="cls-3" d="M988.19,857.52H953.08a5.83,5.83,0,0,1-5.81-5.81h0a5.83,5.83,0,0,1,5.81-5.81h35.11a5.83,5.83,0,0,1,5.81,5.81h0A5.82,5.82,0,0,1,988.19,857.52Z"/><path class="cls-4" d="M112.14,707.4c16.23-8.62,20.35,10.15,14,25.69S87.49,800.91,85.8,821.64c-.66,8-2.15,7.16-3.44,1.52C76,795.06,89.8,719.28,112.14,707.4Z"/><path class="cls-5" d="M77.77,636.19c-18.61-16.75-30.24,6.7-27,29.33S79.52,767.93,74.92,795.89c-1.78,10.84.49,10.17,4,3.15C96.69,764,103.39,659.26,77.77,636.19Z"/><path class="cls-6" d="M74.53,803.66c.4,1,1.28.52,2.47-1.21C96.4,737.84,66.18,641.31,66.09,641a1,1,0,0,0-1.93.59C64.26,641.9,94.88,739.76,74.53,803.66Z"/><path class="cls-4" d="M37.13,689.87c-18-7.84-20.87,12.52-12.84,28.58s46.93,69.12,50.46,91.09c1.37,8.52,2.89,7.46,3.79,1.34C83,780.37,62,700.68,37.13,689.87Z"/><path class="cls-6" d="M76.39,815.43c.56.67,1.09.07,1.54-1.52C76.3,761,29.76,696.57,29.62,696.37a.79.79,0,1,0-1.29.92C28.48,697.5,75.65,762.76,76.39,815.43Z"/><polygon class="cls-7" points="62.52 805.01 97.16 805.01 106.21 813.17 98.82 841.63 79.84 841.63 60.86 841.63 53.47 813.17 62.52 805.01"/><rect class="cls-8" x="50.61" y="793.11" width="58.47" height="18.76" rx="2.87"/><polygon class="cls-6" points="106.21 813.17 104.69 819.02 54.99 819.02 53.47 813.17 106.21 813.17"/><path class="cls-7" d="M104,144.08Zm4.86-18.51a9.34,9.34,0,1,1-2.74,6.61,9.33,9.33,0,0,1,2.74-6.61Zm2-9.27a16.61,16.61,0,0,0-3.67,1.56,16.24,16.24,0,0,0-3.21,2.43.59.59,0,0,1-.69.08L99,117.86l0,0a1.14,1.14,0,0,0-.79-.09,1.12,1.12,0,0,0-.65.5l0,0-3.06,5.3a1.12,1.12,0,0,0-.1.82,1.07,1.07,0,0,0,.5.65l0,0,4.31,2.49a.58.58,0,0,1,.27.63h0a17.77,17.77,0,0,0-.37,2,17,17,0,0,0,0,4,18,18,0,0,0,.37,2,.58.58,0,0,1-.3.65l-4.31,2.49h0a1.06,1.06,0,0,0-.5.66,1.1,1.1,0,0,0,.1.81l3.08,5.33h0a1.07,1.07,0,0,0,1.47.39h0l4.32-2.5a.59.59,0,0,1,.68.09,16.58,16.58,0,0,0,3.21,2.42,17,17,0,0,0,3.69,1.57.56.56,0,0,1,.42.55v5a1.09,1.09,0,0,0,1.08,1.08h6.15a1.08,1.08,0,0,0,1.07-1.08v-5a.58.58,0,0,1,.44-.56,16.15,16.15,0,0,0,3.67-1.56,16.58,16.58,0,0,0,3.21-2.42.59.59,0,0,1,.72-.07L132,146.5a1.08,1.08,0,0,0,.82.11,1.05,1.05,0,0,0,.65-.5l0,0,3.06-5.3h0a1.05,1.05,0,0,0,.1-.81,1.08,1.08,0,0,0-.49-.66l-4.35-2.5a.6.6,0,0,1-.27-.64h0a18,18,0,0,0,.37-2,17,17,0,0,0,0-4,17.77,17.77,0,0,0-.37-2,.58.58,0,0,1,.31-.65l4.31-2.49a1,1,0,0,0,.49-.65,1.08,1.08,0,0,0-.1-.82l0,0-3.06-5.3h0a1.07,1.07,0,0,0-1.47-.39h0l-4.34,2.51a.58.58,0,0,1-.7-.1,16.78,16.78,0,0,0-3.2-2.41,17,17,0,0,0-3.69-1.57.58.58,0,0,1-.42-.55v-5a1.09,1.09,0,0,0-.31-.76,1.11,1.11,0,0,0-.76-.31H112.4a1.07,1.07,0,0,0-.76.31,1.06,1.06,0,0,0-.32.76v5A.58.58,0,0,1,110.88,116.3Z"/><path class="cls-9" d="M267.84,209.79A22,22,0,0,1,303.78,217a22.06,22.06,0,0,1,0,16.84,22,22,0,0,1-11.94,11.93,22,22,0,0,1-16.84,0,22,22,0,0,1-11.94-11.94,22,22,0,0,1,4.78-24Zm7.93-2.9a20,20,0,1,0,21.79,32.61,20,20,0,0,0-6.49-32.61,20.13,20.13,0,0,0-15.3,0Zm-2.43-16.21a34.35,34.35,0,0,0-4.06,1.44,36,36,0,0,0-7.58,4.39,35.32,35.32,0,0,0-3.35,2.86,2.32,2.32,0,0,1-2.76.34c-3.23-1.87-6.63-3.72-9.8-5.67a1.48,1.48,0,0,0-.48-.15,1.65,1.65,0,0,0-.54.05,1.25,1.25,0,0,0-.49.24,1.38,1.38,0,0,0-.36.4c-2.36,3.57-4.73,8.18-6.91,12a1.19,1.19,0,0,0-.17.51,1.29,1.29,0,0,0,0,.55,1.54,1.54,0,0,0,.24.5,1.44,1.44,0,0,0,.41.36c2.91,1.92,6.66,3.85,9.74,5.63a2.32,2.32,0,0,1,1,1.09,1.92,1.92,0,0,1,.15.48l.2.07-.23.9c-.17.72-.33,1.43-.46,2.15s-.23,1.41-.33,2.17-.15,1.47-.2,2.19-.06,1.45-.06,2.22,0,1.51.06,2.21.11,1.46.2,2.19.21,1.48.33,2.18.29,1.42.46,2.14a2.25,2.25,0,0,1-.14,1.52,2.31,2.31,0,0,1-1,1.08l-8.63,5h0l-1,.59a1.3,1.3,0,0,0-.41.36,1.4,1.4,0,0,0-.24.49,1.34,1.34,0,0,0,0,.56,1.28,1.28,0,0,0,.17.51l6.39,11.07h0l.52.89a1.42,1.42,0,0,0,.36.41,1.4,1.4,0,0,0,.49.24,1.46,1.46,0,0,0,.55,0,1.34,1.34,0,0,0,.51-.17c3.09-2,6.58-3.8,9.77-5.64a2.3,2.3,0,0,1,2.74.33h0a36.16,36.16,0,0,0,7,5.3,35,35,0,0,0,3.92,2,33.22,33.22,0,0,0,4.14,1.46,2.33,2.33,0,0,1,1.67,2.23v11.26a1.32,1.32,0,0,0,.1.53,1.35,1.35,0,0,0,.31.45,1.39,1.39,0,0,0,.45.31,1.32,1.32,0,0,0,.53.1h13.82a1.32,1.32,0,0,0,.53-.1,1.44,1.44,0,0,0,.46-.31,1.48,1.48,0,0,0,.3-.45,1.32,1.32,0,0,0,.11-.53V262.31a2.33,2.33,0,0,1,1.77-2.25,36.29,36.29,0,0,0,4.06-1.45,33.78,33.78,0,0,0,3.9-1.95,37.12,37.12,0,0,0,3.68-2.43,35.42,35.42,0,0,0,3.35-2.87,2.37,2.37,0,0,1,1.39-.63,2.3,2.3,0,0,1,1.48.37l9.64,5.57a1.4,1.4,0,0,0,.51.17,1.5,1.5,0,0,0,.56,0,1.54,1.54,0,0,0,.5-.24,1.39,1.39,0,0,0,.35-.41c2.29-4,4.62-8,6.91-12a1.49,1.49,0,0,0,.18-.51,1.51,1.51,0,0,0-.05-.56,1.36,1.36,0,0,0-.24-.5,1.31,1.31,0,0,0-.39-.35l-9.76-5.63a2.32,2.32,0,0,1-1-1.09,2.4,2.4,0,0,1-.12-.38l-.26,0,.26-1c.17-.72.33-1.43.46-2.14s.24-1.42.33-2.18.16-1.47.2-2.19.06-1.44.06-2.21,0-1.51-.06-2.22-.11-1.45-.2-2.19-.2-1.49-.33-2.18-.29-1.42-.46-2.14a2.32,2.32,0,0,1,.14-1.52,2.41,2.41,0,0,1,1-1.08l9.66-5.57a1.26,1.26,0,0,0,.4-.36,1.23,1.23,0,0,0,.24-.5,1.47,1.47,0,0,0,.05-.55,1.36,1.36,0,0,0-.18-.51c-2.36-3.51-4.72-8.19-6.91-12a1.35,1.35,0,0,0-.35-.4,1.36,1.36,0,0,0-.5-.24,1.47,1.47,0,0,0-.55-.05,1.36,1.36,0,0,0-.51.18l-9.76,5.63a2.27,2.27,0,0,1-1.47.29,2.3,2.3,0,0,1-1.32-.65,36.16,36.16,0,0,0-3.34-2.85,36.39,36.39,0,0,0-7.58-4.38,37.34,37.34,0,0,0-4.13-1.46,2.23,2.23,0,0,1-1.21-.83,2.28,2.28,0,0,1-.47-1.39V177.17a1.32,1.32,0,0,0-.11-.53,1.38,1.38,0,0,0-.31-.46,1.44,1.44,0,0,0-.45-.31,1.51,1.51,0,0,0-.53-.1H276.51a1.51,1.51,0,0,0-.53.1,1.77,1.77,0,0,0-.46.31,1.42,1.42,0,0,0-.4,1v11.26a2.33,2.33,0,0,1-1.78,2.25Zm-4.86-.43a39.57,39.57,0,0,0-4.12,2.06,38.4,38.4,0,0,0-7.42,5.59.35.35,0,0,1-.16.08.33.33,0,0,1-.17,0l-9.84-5.68a3.46,3.46,0,0,0-1.23-.39,3.55,3.55,0,0,0-1.3.1,3.28,3.28,0,0,0-1.2.59,3.39,3.39,0,0,0-.88,1c-2.38,3.86-4.64,8-6.91,12a3.3,3.3,0,0,0-.43,1.27,3.36,3.36,0,0,0,.09,1.34,3.28,3.28,0,0,0,.59,1.2,3.34,3.34,0,0,0,1,.89c3.13,1.94,6.54,3.78,9.75,5.63a.24.24,0,0,1,.11.13.25.25,0,0,1,0,.17l-.22.91h0q-.15.66-.27,1.35c-.14.78-.26,1.55-.35,2.3s-.16,1.52-.21,2.31-.07,1.58-.07,2.34,0,1.53.07,2.33.12,1.57.21,2.31.21,1.52.35,2.3.31,1.53.49,2.27a.32.32,0,0,1,0,.17.26.26,0,0,1-.12.13c-3.59,1.92-7.22,4.17-10.77,6.22l.13.15-.11.14a3.28,3.28,0,0,0-.59,1.2,3.46,3.46,0,0,0,.34,2.62l7.42,12.86.14-.09a2.11,2.11,0,0,0,.23.19,3.47,3.47,0,0,0,1.2.6,3.76,3.76,0,0,0,1.34.09,3.49,3.49,0,0,0,1.24-.41c3.25-1.72,6.59-3.81,9.8-5.66a.22.22,0,0,1,.16,0,.29.29,0,0,1,.16.07,37.35,37.35,0,0,0,7.42,5.59,36.47,36.47,0,0,0,4.15,2.07,35.43,35.43,0,0,0,4.37,1.55.3.3,0,0,1,.14.1.22.22,0,0,1,.05.17v11.26a3.41,3.41,0,0,0,.27,1.31,3.52,3.52,0,0,0,1.86,1.86,3.4,3.4,0,0,0,1.31.26h13.82a3.43,3.43,0,0,0,3.17-2.12,3.41,3.41,0,0,0,.27-1.31V262.31a.29.29,0,0,1,.05-.17.31.31,0,0,1,.15-.1l0,0a37.57,37.57,0,0,0,8.46-3.6,38.4,38.4,0,0,0,7.42-5.59.23.23,0,0,1,.17-.07.22.22,0,0,1,.17,0l9.75,5.63a3.48,3.48,0,0,0,1.27.43,3.76,3.76,0,0,0,1.34-.09,3.47,3.47,0,0,0,1.2-.6,3.39,3.39,0,0,0,.87-1c2.56-4.12,5-8.64,7.43-12.87l-.14-.08a1.65,1.65,0,0,0,.06-.32,3.36,3.36,0,0,0-.09-1.34,3.28,3.28,0,0,0-.59-1.2,3.39,3.39,0,0,0-1-.88l-9.76-5.64a.22.22,0,0,1-.11-.12.28.28,0,0,1,0-.18l.25-1h0c.09-.4.17-.81.25-1.23.14-.77.26-1.54.35-2.3s.17-1.52.21-2.31.07-1.57.07-2.33,0-1.54-.07-2.34-.12-1.56-.21-2.31-.21-1.52-.35-2.3-.3-1.53-.49-2.26a.37.37,0,0,1,0-.18.27.27,0,0,1,.13-.13l9.74-5.62a3.44,3.44,0,0,0,1-.89,3.28,3.28,0,0,0,.59-1.2,3.34,3.34,0,0,0,.09-1.34,3.42,3.42,0,0,0-.41-1.24c-2.32-4.3-5-8.64-7.44-12.89l-.14.08-.23-.19a3.28,3.28,0,0,0-1.2-.59,3.36,3.36,0,0,0-1.34-.09,3.29,3.29,0,0,0-1.27.42l-.72.41h0l-9,5.22a.28.28,0,0,1-.17,0,.3.3,0,0,1-.16-.08l0,0a38,38,0,0,0-3.54-3,36.87,36.87,0,0,0-3.86-2.56,38.08,38.08,0,0,0-8.52-3.62.33.33,0,0,1-.14-.1.24.24,0,0,1-.05-.16V177.17a3.37,3.37,0,0,0-.27-1.31,3.2,3.2,0,0,0-.75-1.12,3.4,3.4,0,0,0-1.11-.75,3.37,3.37,0,0,0-1.31-.26H276.51a3.4,3.4,0,0,0-1.31.26,3.55,3.55,0,0,0-1.12.75,3.43,3.43,0,0,0-1,2.43v11.26a.34.34,0,0,1-.05.17.29.29,0,0,1-.15.09l-.05,0A37.72,37.72,0,0,0,268.48,190.25Z"/><path class="cls-7" d="M703.18,346ZM708,327.46a9.34,9.34,0,1,1-2.74,6.61,9.33,9.33,0,0,1,2.74-6.61Zm2-9.27a16.61,16.61,0,0,0-3.67,1.56,16.24,16.24,0,0,0-3.21,2.43.57.57,0,0,1-.69.08l-4.34-2.51h0a1.08,1.08,0,0,0-1.44.41l0,0-3.06,5.29a1.08,1.08,0,0,0-.1.82,1,1,0,0,0,.5.65l0,0,4.31,2.49a.58.58,0,0,1,.27.63h0a17.77,17.77,0,0,0-.37,2,17,17,0,0,0,0,4,18,18,0,0,0,.37,2,.58.58,0,0,1-.3.65L694,341.2h0a1.06,1.06,0,0,0-.5.66,1.08,1.08,0,0,0,.1.82l3.08,5.32h0a1,1,0,0,0,.65.5,1.12,1.12,0,0,0,.82-.1l0,0,4.31-2.49a.59.59,0,0,1,.69.08,16.19,16.19,0,0,0,3.21,2.42,16.52,16.52,0,0,0,3.69,1.57.58.58,0,0,1,.42.55v5a1.09,1.09,0,0,0,1.07,1.08h6.16a1.09,1.09,0,0,0,1.07-1.08v-5a.58.58,0,0,1,.44-.56,16.45,16.45,0,0,0,6.88-4,.59.59,0,0,1,.72-.07l4.31,2.5a1.12,1.12,0,0,0,.82.1,1,1,0,0,0,.65-.5l0,0,3.06-5.3h0a1.1,1.1,0,0,0,.1-.81,1.06,1.06,0,0,0-.5-.66L731,338.7a.6.6,0,0,1-.27-.64h0a18,18,0,0,0,.37-2,17,17,0,0,0,0-4,17.77,17.77,0,0,0-.37-2,.58.58,0,0,1,.31-.65l4.3-2.49a1,1,0,0,0,.5-.65,1.12,1.12,0,0,0-.1-.82l0,0-3.06-5.29h0a1,1,0,0,0-.65-.5,1,1,0,0,0-.82.1h0l-4.34,2.51a.58.58,0,0,1-.7-.1,17.2,17.2,0,0,0-3.2-2.41,16.5,16.5,0,0,0-3.69-1.56.58.58,0,0,1-.42-.56v-5a1.08,1.08,0,0,0-1.07-1.07h-6.16a1.08,1.08,0,0,0-1.07,1.07v5A.57.57,0,0,1,710.06,318.19Z"/><path class="cls-9" d="M902.35,440.49a22,22,0,1,1-4.78,7.16,22.1,22.1,0,0,1,4.78-7.16Zm7.93-2.9a20.13,20.13,0,1,0,7.65-1.51,20,20,0,0,0-7.65,1.51Zm-2.43-16.21a36.24,36.24,0,0,0-4.06,1.44,37.32,37.32,0,0,0-3.9,1.95,36.08,36.08,0,0,0-3.68,2.44,35.32,35.32,0,0,0-3.35,2.86,2.32,2.32,0,0,1-2.76.34c-3.23-1.87-6.64-3.72-9.8-5.67a1.25,1.25,0,0,0-.48-.14,1.4,1.4,0,0,0-.54,0,1.25,1.25,0,0,0-.49.24,1.19,1.19,0,0,0-.36.41c-2.36,3.57-4.73,8.18-6.91,12a1.19,1.19,0,0,0-.17.51,1.46,1.46,0,0,0,0,.55,1.57,1.57,0,0,0,.25.5,1.39,1.39,0,0,0,.4.36c2.92,1.92,6.66,3.85,9.75,5.63a2.32,2.32,0,0,1,1,1.09,2.06,2.06,0,0,1,.15.48l.2.07-.23.91c-.18.71-.33,1.43-.46,2.14s-.24,1.42-.33,2.17-.16,1.47-.2,2.19-.06,1.45-.06,2.22,0,1.51.06,2.21.11,1.46.2,2.19.2,1.49.33,2.18.29,1.43.46,2.14a2.32,2.32,0,0,1-.14,1.52,2.29,2.29,0,0,1-1.05,1.08l-8.63,5h0l-1,.59a1.26,1.26,0,0,0-.4.36,1.42,1.42,0,0,0-.25.49,1.52,1.52,0,0,0,0,.56,1.23,1.23,0,0,0,.17.51L877.91,486h0l.52.89a1.16,1.16,0,0,0,.36.4,1.27,1.27,0,0,0,.49.25,1.46,1.46,0,0,0,.55,0,1.34,1.34,0,0,0,.51-.17c3.09-1.94,6.58-3.8,9.77-5.64a2.26,2.26,0,0,1,1.42-.29,2.29,2.29,0,0,1,1.32.62h0a37,37,0,0,0,3.36,2.86,34.79,34.79,0,0,0,3.67,2.43,34.12,34.12,0,0,0,3.92,2,35.44,35.44,0,0,0,4.13,1.47,2.3,2.3,0,0,1,1.68,2.22v11.26a1.32,1.32,0,0,0,.11.53,1.39,1.39,0,0,0,.31.45,1.29,1.29,0,0,0,.45.31,1.32,1.32,0,0,0,.53.1h13.82a1.32,1.32,0,0,0,.53-.1,1.44,1.44,0,0,0,.46-.31,1.54,1.54,0,0,0,.3-.45,1.32,1.32,0,0,0,.1-.53V493a2.29,2.29,0,0,1,.51-1.43,2.27,2.27,0,0,1,1.27-.81,36.29,36.29,0,0,0,4.06-1.45,33.78,33.78,0,0,0,3.9-1.95,35.86,35.86,0,0,0,3.67-2.43,34.33,34.33,0,0,0,3.36-2.87,2.32,2.32,0,0,1,2.87-.26l9.64,5.57a1.4,1.4,0,0,0,.51.17,1.5,1.5,0,0,0,.56,0,1.38,1.38,0,0,0,.5-.25,1.36,1.36,0,0,0,.35-.4c2.29-4,4.62-8,6.91-12a1.29,1.29,0,0,0,.17-.5,1.34,1.34,0,0,0,0-.56,1.54,1.54,0,0,0-.24-.5,1.31,1.31,0,0,0-.39-.35l-9.76-5.63a2.32,2.32,0,0,1-1-1.09,1.77,1.77,0,0,1-.12-.37l-.26-.06.26-1c.17-.71.33-1.43.46-2.14s.24-1.42.33-2.17.16-1.47.2-2.2.06-1.44.06-2.21,0-1.51-.06-2.22-.11-1.45-.2-2.19-.21-1.49-.33-2.18-.28-1.42-.46-2.13a2.28,2.28,0,0,1,.14-1.53,2.41,2.41,0,0,1,1-1.08l9.66-5.57a1.41,1.41,0,0,0,.64-.86,1.29,1.29,0,0,0,0-.55,1.4,1.4,0,0,0-.17-.51c-2.36-3.51-4.72-8.19-6.91-12a1.41,1.41,0,0,0-.35-.41,1.36,1.36,0,0,0-.5-.24,1.29,1.29,0,0,0-.55,0,1.4,1.4,0,0,0-.51.17l-9.76,5.63a2.34,2.34,0,0,1-1.47.3,2.43,2.43,0,0,1-1.32-.65,35.93,35.93,0,0,0-3.34-2.85,35.19,35.19,0,0,0-3.66-2.43,38.72,38.72,0,0,0-3.92-2,38.08,38.08,0,0,0-4.13-1.46,2.23,2.23,0,0,1-1.21-.83,2.28,2.28,0,0,1-.47-1.39V407.87a1.32,1.32,0,0,0-.1-.53,1.25,1.25,0,0,0-.31-.45,1.17,1.17,0,0,0-.45-.31,1.32,1.32,0,0,0-.53-.11H911a1.32,1.32,0,0,0-.53.11,1.41,1.41,0,0,0-.46.3,1.43,1.43,0,0,0-.41,1v11.26a2.29,2.29,0,0,1-.49,1.43,2.38,2.38,0,0,1-1.28.82ZM903,421a39.57,39.57,0,0,0-4.12,2.06,38.4,38.4,0,0,0-7.42,5.59.27.27,0,0,1-.16.08.33.33,0,0,1-.17,0c-3.28-1.89-6.57-3.78-9.84-5.68a3.46,3.46,0,0,0-1.23-.39,3.55,3.55,0,0,0-1.3.1,3.28,3.28,0,0,0-1.2.59,3.52,3.52,0,0,0-.88,1c-2.38,3.86-4.64,8-6.92,12a3.46,3.46,0,0,0-.42,1.27,3.34,3.34,0,0,0,.09,1.34,3.41,3.41,0,0,0,1.59,2.09c3.14,1.94,6.55,3.78,9.76,5.63a.28.28,0,0,1,.11.13.25.25,0,0,1,0,.17l-.22.91h0c-.1.45-.19.89-.27,1.35-.14.78-.26,1.55-.35,2.3s-.16,1.52-.21,2.31-.07,1.58-.07,2.34,0,1.54.07,2.33.12,1.57.21,2.31.21,1.52.35,2.3.31,1.53.49,2.27a.32.32,0,0,1,0,.17.26.26,0,0,1-.12.13c-3.59,1.92-7.23,4.17-10.77,6.22l.13.15-.11.14a3.5,3.5,0,0,0-.68,2.55,3.36,3.36,0,0,0,.43,1.27l7.42,12.86.14-.09a2.11,2.11,0,0,0,.23.19,3.47,3.47,0,0,0,1.2.6,3.76,3.76,0,0,0,1.34.09,3.49,3.49,0,0,0,1.24-.41c3.24-1.73,6.59-3.8,9.8-5.66a.27.27,0,0,1,.16,0,.39.39,0,0,1,.16.07,39.29,39.29,0,0,0,3.54,3,37.77,37.77,0,0,0,3.88,2.57A40.11,40.11,0,0,0,903,491.2a38.37,38.37,0,0,0,4.37,1.55.26.26,0,0,1,.14.09.22.22,0,0,1,.05.17v11.26a3.49,3.49,0,0,0,1,2.43,3.43,3.43,0,0,0,2.42,1h13.82a3.37,3.37,0,0,0,1.31-.26,3.35,3.35,0,0,0,1.86-1.86,3.41,3.41,0,0,0,.27-1.31V493a.28.28,0,0,1,.05-.16.31.31,0,0,1,.15-.1h0a38,38,0,0,0,12.34-6.17,39.29,39.29,0,0,0,3.54-3,.28.28,0,0,1,.16-.07.23.23,0,0,1,.18,0l9.75,5.63a3.48,3.48,0,0,0,1.27.43,3.76,3.76,0,0,0,1.34-.09,3.47,3.47,0,0,0,1.2-.6,3.39,3.39,0,0,0,.87-1c2.56-4.12,5-8.63,7.42-12.86l-.13-.08a1.91,1.91,0,0,0,.06-.33,3.31,3.31,0,0,0-.09-1.33,3.25,3.25,0,0,0-.59-1.21,3.31,3.31,0,0,0-1-.88l-9.75-5.63a.28.28,0,0,1-.12-.31l.25-1h0c.09-.4.17-.81.25-1.22.14-.78.26-1.55.35-2.3s.16-1.53.21-2.32.07-1.57.07-2.33,0-1.54-.07-2.33-.12-1.57-.21-2.32-.21-1.52-.35-2.3-.31-1.53-.49-2.26a.37.37,0,0,1,0-.18.27.27,0,0,1,.13-.13l9.74-5.62a3.44,3.44,0,0,0,1-.89,3.45,3.45,0,0,0,.68-2.53,3.6,3.6,0,0,0-.41-1.25c-2.32-4.3-5-8.63-7.44-12.89l-.14.08-.23-.19a3.28,3.28,0,0,0-1.2-.59,3.55,3.55,0,0,0-1.34-.09,3.29,3.29,0,0,0-1.27.42l-.72.41h0l-9,5.22a.24.24,0,0,1-.18,0,.28.28,0,0,1-.15-.08l0,0A38.51,38.51,0,0,0,937,423a38.21,38.21,0,0,0-4.15-2.07,39.06,39.06,0,0,0-4.37-1.55.28.28,0,0,1-.14-.1.18.18,0,0,1-.05-.16V407.87a3.37,3.37,0,0,0-.27-1.31,3.29,3.29,0,0,0-.75-1.12,3.4,3.4,0,0,0-1.11-.75,3.37,3.37,0,0,0-1.31-.26H911a3.4,3.4,0,0,0-1.31.26,3.55,3.55,0,0,0-1.12.75,3.43,3.43,0,0,0-1,2.43v11.26a.34.34,0,0,1-.05.17.24.24,0,0,1-.15.09l0,0A37.72,37.72,0,0,0,903,421Z"/><path class="cls-3" d="M113.57,280.6a1.61,1.61,0,0,0-3.21,0v3.77h-3.77a1.61,1.61,0,0,0,0,3.21h3.77v3.77a1.61,1.61,0,1,0,3.21,0v-3.77h3.77a1.61,1.61,0,1,0,0-3.21h-3.77Z"/><path class="cls-3" d="M391.27,188a1.61,1.61,0,1,0-3.21,0v3.77h-3.77a1.61,1.61,0,0,0,0,3.21h3.77v3.77a1.61,1.61,0,0,0,3.21,0V195H395a1.61,1.61,0,1,0,0-3.21h-3.77Z"/><path class="cls-3" d="M538.36,177.09a1.6,1.6,0,1,0-3.2,0v3.77h-3.77a1.61,1.61,0,1,0,0,3.21h3.77v3.77a1.6,1.6,0,1,0,3.2,0v-3.77h3.77a1.61,1.61,0,1,0,0-3.21h-3.77Z"/><path class="cls-3" d="M856.36,254.09a1.6,1.6,0,0,0-3.2,0v3.77h-3.77a1.61,1.61,0,1,0,0,3.21h3.77v3.77a1.6,1.6,0,1,0,3.2,0v-3.77h3.77a1.61,1.61,0,1,0,0-3.21h-3.77Z"/><path class="cls-3" d="M316.36,493.09a1.6,1.6,0,0,0-3.2,0v3.77h-3.77a1.61,1.61,0,1,0,0,3.21h3.77v3.77a1.6,1.6,0,1,0,3.2,0v-3.77h3.77a1.61,1.61,0,1,0,0-3.21h-3.77Z"/><path class="cls-3" d="M890.76,629.59a1.61,1.61,0,0,0-3.21,0v3.78h-3.77a1.6,1.6,0,1,0,0,3.2h3.77v3.77a1.61,1.61,0,1,0,3.21,0v-3.77h3.77a1.6,1.6,0,0,0,0-3.2h-3.77Z"/><path class="cls-3" d="M159.7,631.05a1.6,1.6,0,0,0-3.2,0v3.78h-3.78a1.6,1.6,0,1,0,0,3.2h3.78v3.77a1.6,1.6,0,1,0,3.2,0V638h3.77a1.6,1.6,0,1,0,0-3.2H159.7Z"/><path class="cls-3" d="M115.25,384.11a1.61,1.61,0,0,0-3.21,0v3.77h-3.77a1.61,1.61,0,0,0,0,3.21H112v3.77a1.61,1.61,0,1,0,3.21,0v-3.77H119a1.61,1.61,0,0,0,0-3.21h-3.77Z"/><path class="cls-2" d="M140.2,805.52v-69.6L252.33,576h89.92V733.28h27.09v72.24H342.25v41.39H258V805.52ZM264.74,671.2l-40.63,62.08h40.63Z"/><path class="cls-2" d="M620.86,805.52v-69.6L733,576h89.93V733.28H850v72.24H822.91v41.39H738.63V805.52ZM745.4,671.2l-40.63,62.08H745.4Z"/><path class="cls-8" d="M475.51,780.3a126.32,126.32,0,0,1-48.37-17.9,131.27,131.27,0,0,1-36.83-34.6,135.93,135.93,0,0,1-21.63-46.91,140.95,140.95,0,0,1,16.07-105.63,135.3,135.3,0,0,1,34.56-38.39,129.72,129.72,0,0,1,45.43-22.14,127.22,127.22,0,0,1,99.82,15.14,131,131,0,0,1,36.83,34.6A135.93,135.93,0,0,1,623,611.38,140.54,140.54,0,0,1,607,717a135.3,135.3,0,0,1-34.56,38.39A129.53,129.53,0,0,1,527,777.51,126.22,126.22,0,0,1,475.51,780.3Zm31.93-210.62a77.31,77.31,0,1,0,64.77,88A77.35,77.35,0,0,0,507.44,569.68Z"/><path class="cls-8" d="M672.88,415.46c-3.63-13.24-13.32-24.59-23.6-33.28-4.57-3.88-9.69-8.08-15.25-10.37-6.59-2.7-14.26-2.47-21.21-1.76a101.32,101.32,0,0,0-31.29,8.85,26.55,26.55,0,0,0-7.34,3.84c-1.71,1-3.33,2.07-4.89,3.16-.5.7-1,1.41-1.46,2.15-.11.18-.21.36-.31.54a1,1,0,0,0,.48.36,28.86,28.86,0,0,0-2.87,4.72,31.74,31.74,0,0,0-1.55,6.76c-1.05,9,.06,18,.19,27.09.29,19.26-6.34,37.47-17.91,52.82A121,121,0,0,1,500.58,517c-3.71,1.72-7.51,3.27-11.38,4.62,24.9.74,48-24.63,60.54-43a117.09,117.09,0,0,0,18.11-41.53,69.53,69.53,0,0,0,1.24-19.52,52,52,0,0,0-.8-6.29c-.62-12.73,7.61-26.91,21.74-26.38,13.64.52,23.29,13.93,30.43,23.93,2.33,3.26,4.57,6.48,6.9,9.59-3.09,12.4-6.27,24.63-11.86,36.25a151.4,151.4,0,0,1-24,35.84,93.89,93.89,0,0,1-34.75,24.15,96.61,96.61,0,0,1-21.91,5.47c-8.64,1.29-17.77-.06-26.19,2.16a.83.83,0,0,0,0,1.52c8.27,2.67,18.23,1.86,26.8,1.21A104.21,104.21,0,0,0,559,520.47c14.19-4.56,26.49-13.73,36.7-24.38a117,117,0,0,0,24.39-39.37c4.34-11.32,8.26-23.15,9.6-35.27a66.34,66.34,0,0,0,13.35,13.09c6.87,4.9,17.53,10.4,25.92,6.14C678.42,435.89,675.06,423.41,672.88,415.46Zm-3.83,14.32c-2.63,11.46-17.52,3.52-23.71-.37s-10.84-9-15.17-14.67c0-.27,0-.54,0-.82,0-.67-.62-.84-1.13-.64C619.92,401,612.53,386.83,598.61,380c-.51-.25-1-.46-1.53-.66a93.57,93.57,0,0,1,16.43-3.55c16.35-1.93,29.84,5.19,40.72,16.79C663.22,402.15,672.2,416,669.05,429.78Z"/><path class="cls-8" d="M517.49,505.28a11.89,11.89,0,0,0-5-2.48c-3.3-3.07-6.38-5.17-8.18-9.57-1.69-4.14-1.6-8.9-1.43-13.29.29-7.48,1.25-15,2.2-22.38,1.55-12.15,4-25.4-.74-37.15-5.1-12.61-18.63-17.26-31.11-18.83-8.05-1-28.09-3.38-35.85,4-6.38,1.53-11.24,6.64-15.63,11.25-14.76,15.49-24,36.53-44.27,46-2.79,1.3-3.48,5-.53,6.67,15.36,8.67,33.42,5.75,48.95-.86a94.73,94.73,0,0,0,22.35-13.58,68.13,68.13,0,0,0,9.14-8.5c1.9,9.77,3.18,19.74,5.86,29.29,3.17,11.28,9.44,27.28,22.64,29.39a86.76,86.76,0,0,0-12.18,3.43c-1.54.57-1.61,3.07.18,3.36,6.69,1.09,13.6-1.09,20.19-2.08a91.33,91.33,0,0,1,11.67-1.16c3.48-.08,6.6,1.2,10,1.35C518.25,510.27,519.21,506.77,517.49,505.28Zm-70-56.54a75.64,75.64,0,0,1-21.76,13.57c-12.1,5.09-26.49,7.3-39.17,3.31,6.23-4.63,10.78-10.56,15.72-17,5.83-7.65,11.54-15.43,17.56-22.93,4.6-5.74,10-12.76,17.79-14,8.77-1.33,13.82,13.26,15.82,19.22,1,2.85,1.75,5.75,2.45,8.68C453.11,442.64,450.55,445.94,447.49,448.74Zm41.16,56a1.47,1.47,0,0,0-.53-2.05c-29.14-19.32-16-63.38-35-89.37a22.94,22.94,0,0,0-5.64-5.52,55,55,0,0,1,9.38-.82,101,101,0,0,1,23.76,2.64c13.13,3.22,19.25,12.26,19.87,25.28.6,12.59-2.44,25.15-3.3,37.67-.66,9.66-1.34,22.4,5.2,30-1.65.18-3.25.42-4.69.64C494.77,503.61,491.72,504.11,488.65,504.7Z"/><path class="cls-4" d="M875.53,840.11c6.9-10,21.36-26.64,49-43.21,43.74-26.21,76.87-60.94,62.31-81.49-14.29-20.16-78.34,18.79-131.53,116.14A116.46,116.46,0,0,0,875.53,840.11Z"/><path class="cls-6" d="M867,831.22a26.69,26.69,0,0,1,8.62,1.18.56.56,0,0,0,.32-1.07,29.31,29.31,0,0,0-8.28-1.24c.94-1.6,1.89-3.18,2.83-4.74,1.93,0,8.16-.17,10.5,0a.56.56,0,0,0,.06-1.11c-2.15-.12-7.43,0-9.88,0q2.67-4.37,5.33-8.47a128.37,128.37,0,0,1,14.07,1.06.56.56,0,0,0,.15-1.1,131.18,131.18,0,0,0-13.52-1.06q2.68-4.14,5.37-8a181.92,181.92,0,0,1,20.1,1.51.56.56,0,0,0,.15-1.1,183.09,183.09,0,0,0-19.49-1.51c2.35-3.41,4.7-6.67,7-9.81,2.68-.12,13.78-.4,22.12,2.27a.55.55,0,0,0,.7-.36.57.57,0,0,0-.36-.7c-7.76-2.49-17.84-2.46-21.62-2.35q4.32-5.76,8.55-10.92c3.66.21,18.35,1.32,25.23,6.19a.56.56,0,1,0,.64-.91c-6.67-4.72-20.26-6-25-6.34q4.5-5.46,8.9-10.29a116.51,116.51,0,0,1,24.31,8.58.55.55,0,0,0,.74-.24.56.56,0,0,0-.24-.75,116.17,116.17,0,0,0-24-8.53c1.74-1.9,3.46-3.72,5.16-5.48,2.55.52,13.42,3,27.8,10a.55.55,0,1,0,.48-1,129.68,129.68,0,0,0-27.36-9.91q6.06-6.2,11.79-11.29c3.23,1.07,19.57,6.6,28.17,12.07a.56.56,0,0,0,.76-.17.55.55,0,0,0-.17-.77c-8.25-5.25-23.46-10.53-27.8-12q3.34-2.94,6.53-5.54a163.12,163.12,0,0,1,27,12.09.54.54,0,0,0,.76-.2.56.56,0,0,0-.2-.76,164.52,164.52,0,0,0-26.53-12c5-4,9.67-7.39,14-10.24,2.73.64,15.07,3.73,24.34,9.11a.56.56,0,0,0,.76-.2.54.54,0,0,0-.2-.76c-8.52-5-19.57-8-23.63-9,1.79-1.16,3.51-2.22,5.16-3.2a86,86,0,0,1,21,5.35.55.55,0,0,0,.72-.32.55.55,0,0,0-.32-.71,90.18,90.18,0,0,0-19.84-5.25c13.31-7.68,21.58-9.64,21.65-9.65a.84.84,0,0,0-.41-1.62,64,64,0,0,0-10,3.66,50.29,50.29,0,0,1,4.83-5.59.55.55,0,0,0-.58-.94c-1,.61-5.07,5.76-6.46,7.54-2.56,1.2-5.47,2.68-8.7,4.51l5.49-10.9a.55.55,0,0,0-.25-.75.55.55,0,0,0-.74.25l-6.24,12.41q-3.33,1.93-7,4.35l5.92-12.92a.56.56,0,0,0-1-.47l-6.66,14.56c-3.69,2.49-7.62,5.34-11.76,8.62l5.13-13.39a.56.56,0,0,0-.32-.72.55.55,0,0,0-.72.32l-5.81,15.18c-1.89,1.53-3.82,3.14-5.78,4.85l4.34-12.07a.55.55,0,1,0-1-.38l-5,14q-5.48,4.86-11.26,10.68l3.28-11.78a.56.56,0,0,0-.39-.69.56.56,0,0,0-.68.39l-3.82,13.72q-2.28,2.35-4.62,4.88l1.84-9a.57.57,0,0,0-.44-.66.55.55,0,0,0-.65.43l-2.2,10.81q-4.33,4.76-8.79,10.1l1.72-10a.56.56,0,0,0-1.1-.19l-2,11.93q-3.88,4.75-7.85,10l1.12-8.91a.56.56,0,0,0-.48-.62.55.55,0,0,0-.62.48l-1.36,10.85Q885.8,799,882.32,804l.06-8a.56.56,0,0,0-.55-.56.55.55,0,0,0-.56.55l-.07,9.68q-2.51,3.66-5,7.52l-.87-6.85a.55.55,0,0,0-1.1.14l1,8.16q-2.33,3.6-4.65,7.36l-.8-4.43a.56.56,0,1,0-1.1.2l1,5.65c-1.15,1.89-2.31,3.82-3.46,5.78l-1.84-3.64a.56.56,0,0,0-1,.51l2.16,4.27c-.94,1.61-1.88,3.23-2.82,4.89l1.53.68Q865.64,833.54,867,831.22Z"/><path class="cls-7" d="M882.14,848.2c7.39-4.67,20.43-10.93,40.12-13.74,33.42-4.76,63.25-18.46,61-36.73-2.18-17.6-49.56-10.82-108.52,36.93l7.37,13.49Z"/><path class="cls-10" d="M974.23,800.46a1.15,1.15,0,0,0,0-2.3,81.65,81.65,0,0,0-10.13.85l5.45-3.68a.76.76,0,1,0-.85-1.26l-8.1,5.47c-3,.48-6.34,1.14-10.06,2l5.73-5.47a.76.76,0,0,0,0-1.08.77.77,0,0,0-1.09,0l-7.67,7.34c-3.86,1-8,2.25-12.48,3.81l4.79-4.93a.76.76,0,0,0-1.09-1.07l-7,7.2c-4.63,1.74-9.51,3.81-14.55,6.28l4-5.21a.77.77,0,0,0-.13-1.07.76.76,0,0,0-1.07.13l-6,7.74c-4.73,2.43-9.6,5.21-14.53,8.39l1.66-3.54a.77.77,0,0,0-1.39-.66l-2.71,5.79c-3.74,2.49-7.53,5.21-11.32,8.19l1.52-3.6a.76.76,0,0,0-.41-1,.77.77,0,0,0-1,.4l-2.61,6.2q-2.78,2.25-5.55,4.69l1.13,2.06q2.77-2.45,5.54-4.71c1.89.12,6.42.5,8.32,1.5a.75.75,0,0,0,1-.31.77.77,0,0,0-.31-1c-1.69-.88-5-1.33-7.31-1.54,1.47-1.17,2.92-2.29,4.38-3.38,1.86.31,6.41,1.2,9.45,2.92a.76.76,0,1,0,.75-1.33,31.52,31.52,0,0,0-8.53-2.84q4.51-3.28,9-6.12c2.55,1.05,10.6,4.47,13.76,7.07a.76.76,0,1,0,1-1.18c-3-2.44-9.87-5.5-13.15-6.89q4.77-3,9.4-5.47c2.54,1,10.82,4.33,16.27,8.65a.77.77,0,1,0,.95-1.2c-4.91-3.89-12-7-15.45-8.39,1.53-.81,3-1.57,4.55-2.3a73.94,73.94,0,0,1,19.82,9.92.76.76,0,0,0,1.06-.17.77.77,0,0,0-.16-1.07,75.74,75.74,0,0,0-18.75-9.63A164.86,164.86,0,0,1,936,808.24c2.92,1.81,14.22,8.91,19.16,13.61a.76.76,0,0,0,1-1.11c-4.57-4.35-14.35-10.63-18.34-13.14,3.67-1.24,7.15-2.26,10.4-3.1,2.63,2,12.31,9.41,14.56,11.35a.76.76,0,0,0,1.07-.07.77.77,0,0,0-.07-1.08c-2.06-1.78-10.17-8-13.67-10.68,4.25-1,8.07-1.79,11.35-2.31,2.35,2,8,7,9.35,8.31a.76.76,0,0,0,1.08,0,.78.78,0,0,0,0-1.08c-1.18-1.18-5.76-5.18-8.45-7.53A83.22,83.22,0,0,1,974.23,800.46Z"/></svg>