<svg width="516" height="456" viewBox="0 0 516 456" fill="none" xmlns="http://www.w3.org/2000/svg">
<path d="M0 395.137L79.412 313.827L45.65 318.106C128.866 378.494 211.607 313.827 198.53 214.211C153.593 214.211 127.44 197.806 127.44 171.178C127.44 154.298 138.614 135.992 161.202 116.496L135.524 118.398C242.278 243.216 363.298 294.332 515.227 254.865C488.836 115.07 391.592 24.7258 212.796 0C230.628 100.567 256.781 143.124 354.026 189.485V139.796C298.39 112.217 278.18 80.3587 268.432 44.9343L256.306 52.78C362.109 72.0375 446.752 138.369 462.207 234.657L474.808 218.728C333.578 237.034 259.635 189.723 145.509 66.8071C101.524 100.092 83.2162 138.369 83.2162 170.703C83.2162 222.532 123.398 253.439 191.635 253.439L158.349 228.713C161.677 302.653 111.034 318.106 54.4472 273.648L0 329.28V395.137ZM54.2094 182.352C37.0906 174.745 18.7831 167.137 0 160.004V209.218C18.7831 216.35 37.0906 223.721 54.2094 232.279V182.352ZM232.054 261.522V319.057C284.837 358.286 332.152 403.22 380.417 456H439.382C373.76 377.068 305.998 314.302 232.054 261.522ZM391.592 299.8V361.614C407.997 378.494 424.403 395.85 441.284 414.394H498.822C464.346 371.837 429.396 332.133 391.592 299.8Z" fill="#0090CC"/>
</svg>
