<svg width="50" height="50" viewBox="0 0 50 50" fill="none" xmlns="http://www.w3.org/2000/svg">
<path d="M24.6565 49.6675C38.274 49.6675 49.3131 38.5491 49.3131 24.8338C49.3131 11.1185 38.274 0 24.6565 0C11.0391 0 0 11.1185 0 24.8338C0 38.5491 11.0391 49.6675 24.6565 49.6675Z" fill="#00AEEF"/>
<path fill-rule="evenodd" clip-rule="evenodd" d="M17.8647 13.2079C17.3671 12.0587 16.8438 12.0357 16.3696 12.0166C15.9827 12 15.5392 12 15.0969 12C14.6535 12 13.9336 12.1722 13.3255 12.8623C12.7162 13.5523 11 15.2208 11 18.615C11 22.0092 13.3808 25.2886 13.7125 25.7491C14.0441 26.2083 18.3082 33.396 25.0598 36.1601C30.6715 38.4574 31.8139 38.0007 33.0313 37.8859C34.2488 37.7711 36.9612 36.2175 37.5152 34.6078C38.0693 32.9967 38.0693 31.6166 37.9034 31.3283C37.7376 31.0413 37.2941 30.8679 36.6295 30.5235C35.9649 30.1791 32.6997 28.5094 32.0903 28.2798C31.481 28.0502 31.0388 27.9354 30.5953 28.6255C30.153 29.3155 28.8803 30.8679 28.4922 31.3283C28.1052 31.7888 27.717 31.8462 27.0524 31.5018C26.3878 31.1561 24.2478 30.4278 21.7098 28.0782C19.7344 26.2504 18.4015 23.9927 18.0146 23.3013C17.6276 22.6113 17.9728 22.2375 18.3057 21.8944C18.6042 21.5857 18.9703 21.0895 19.302 20.6865C19.6337 20.2834 19.7442 19.9964 19.9654 19.5359C20.1865 19.0754 20.0759 18.6724 19.9101 18.328C19.7455 17.9823 18.4543 14.5715 17.8647 13.2079Z" fill="white"/>
</svg>
