<svg width="120" height="120" viewBox="0 0 120 120" fill="none" xmlns="http://www.w3.org/2000/svg">
<circle cx="60" cy="60" r="60" fill="#D1DD48"/>
<g clip-path="url(#clip0_561:2032)">
<path d="M47.2407 65.073C47.2407 65.9247 47.8102 66.3395 48.3481 67.0345C48.9809 67.826 49.1597 68.76 48.7421 69.7131C48.5278 70.1652 48.2561 70.5876 47.9336 70.97C47.6172 71.3737 47.6046 71.6619 47.9953 72.0418C48.8844 72.9046 49.8099 73.75 50.5693 74.7204C51.8571 76.3637 53.5008 77.1251 55.5305 77.5526C60.4348 78.58 58.7373 77.7267 62.2906 81.2254C62.5932 81.5077 62.9604 81.7116 63.36 81.819C65.5907 82.4396 67.8324 83.0206 70.0726 83.6111C70.5187 83.7298 70.9664 83.8375 71.4964 83.9704C71.6214 83.934 70.9506 83.9705 71.4964 83.961C72.0928 83.961 72.4203 83.847 72.732 83.8834C73.4059 83.9087 73.2794 83.847 73.86 83.972C73.8726 84.5356 73.86 83.3594 73.86 84.0211C75.268 83.5937 76.5368 83.2517 77.7739 82.8211C79.1598 82.3462 80.3257 82.5473 81.3999 83.5873C82.384 84.5372 83.4771 85.3778 84.4801 86.3119C84.9421 86.7409 85.2379 86.6934 85.6414 86.2517C86.2742 85.5504 86.9181 84.8269 87.6553 84.2428C89.2484 82.9763 90.1755 81.4771 89.7436 79.3668C89.7404 79.3405 89.7404 79.3139 89.7436 79.2876C89.8084 77.6396 90.87 76.5964 92.5121 76.5726C93.5135 76.56 94.5165 76.5995 95.518 76.5489C95.7695 76.5362 96.1508 76.3272 96.2299 76.1151C96.7409 74.8486 97.1886 73.5505 97.6537 72.2603C97.7011 72.1102 97.7093 71.9505 97.6775 71.7964C97.418 70.5584 97.1459 69.3236 96.8785 68.0888C96.7931 67.693 96.6207 67.4951 96.1619 67.6139C94.4549 68.0571 92.7368 68.4545 91.0377 68.9247C90.8035 68.9896 90.5267 69.36 90.4998 69.6133C90.4426 70.2979 90.4347 70.9857 90.476 71.6714C90.5219 73.0803 89.8875 74.0128 88.5998 74.57C85.7521 75.8027 82.9097 77.0534 80.0726 78.322C78.7975 78.8919 77.6822 78.7272 76.6523 77.7774C75.8027 76.9858 74.912 76.2449 73.8679 75.3204L70.071 70.7294C70.071 70.7294 68.625 69.6402 68.1821 65.5147C67.7249 61.2688 67.4733 60.873 67.0272 56.6256C66.9117 55.5174 66.6127 54.6356 65.6919 53.9343C64.8011 53.2316 63.9713 52.4547 63.2113 51.6119C62.5301 50.8888 61.9311 50.0924 61.4252 49.2373C60.5393 47.6827 59.7562 46.0711 58.962 44.4626C58.7373 44.0083 58.4874 43.7344 57.9447 43.8199C54.9768 44.2853 52.4756 43.3196 50.2719 41.3629C49.7055 40.8579 49.0284 40.4764 48.3988 40.0442C48.2137 39.9176 48.0127 39.8115 47.6884 39.6184L45.328 38.545C45.3438 37.85 45.0686 37.6078 44.3978 37.6173C42.8158 37.6411 41.2337 37.6569 39.6517 37.6173C38.8652 37.6193 38.082 37.516 37.323 37.3102C34.6572 36.4902 32.02 35.5799 29.3638 34.725C27.4194 34.0918 25.5257 33.3445 23.3837 33.5123C21.4726 33.6627 21.4568 33.544 21.4662 35.4374C21.4662 36.3746 21.4061 37.2912 21.8902 38.1983C22.9075 40.098 23.7982 42.0722 24.7505 44.0114C25.3217 45.175 25.2078 46.2515 24.3851 47.2536C24.1494 47.5386 23.9421 47.8489 23.689 48.1148C23.341 48.479 23.3283 48.7703 23.6447 49.2024C26.7692 53.4562 29.9886 57.6277 33.8061 61.2957C33.9643 61.454 34.2522 61.481 34.48 61.568C34.4199 61.3242 34.4231 61.0361 34.287 60.8445C33.1163 59.187 31.876 57.5754 30.7544 55.8863C30.3797 55.2934 30.1579 54.6167 30.1089 53.9169C30.0456 53.0604 30.218 52.185 30.3082 51.319C30.4237 50.2109 31.0613 49.4763 32.0801 49.1027C33.0989 48.7291 34.0656 48.9191 34.8502 49.7011C35.2737 50.1355 35.6745 50.5915 36.051 51.0673C39.0569 54.7654 42.4835 58.1232 45.1065 62.1364C45.1224 62.1601 45.2015 62.1459 45.3138 62.1538C45.3138 61.8641 46.3073 64.0424 46.3073 63.7606" fill="white"/>
<path d="M100 72.5727C99.4727 73.9743 98.9453 75.3758 98.418 76.7774C97.8658 78.2624 97.0147 78.8703 95.4438 78.8845C94.5483 78.8845 93.6513 78.9114 92.7543 78.8845C92.2117 78.8623 91.9854 79.0428 92.0123 79.6001C92.0471 80.284 92.0123 80.971 92.0218 81.6581C92.0388 82.1067 91.959 82.5537 91.7878 82.9687C91.6166 83.3836 91.3581 83.7568 91.0299 84.0628C89.6899 85.3705 88.3847 86.7129 87.0542 88.0301C85.7886 89.2855 84.3316 89.3314 82.9773 88.1646C81.9379 87.2702 80.8811 86.3947 79.894 85.4449C79.3608 84.9335 78.8751 84.8639 78.198 85.095C76.7536 85.5858 75.2966 86.056 73.8174 86.4153C73.1117 86.5967 72.3736 86.6119 71.6611 86.4596C68.5951 85.705 65.5449 84.8903 62.5106 84.0153C61.8129 83.8143 61.0187 83.4407 60.5916 82.8945C59.0665 80.9441 57.0985 79.9689 54.6906 79.703C53.93 79.6243 53.1814 79.4564 52.46 79.2027C51.8145 78.9668 51.1279 78.6597 50.6422 78.1911C49.0697 76.6729 47.5746 75.0708 46.0543 73.4909C44.8963 72.2814 44.7887 70.9848 45.8486 69.6629C46.4308 68.9442 46.3802 68.4788 45.9088 67.692C42.3745 61.795 37.7407 56.7686 33.3142 51.5792C33.1105 51.3822 32.8955 51.1972 32.6703 51.0251C32.577 51.6805 32.5279 52.1523 32.4362 52.6161C32.2226 53.6958 32.5311 54.5697 33.2272 55.4372C34.3837 56.8715 35.4199 58.4024 36.4941 59.9031C37.3516 61.1047 37.2282 62.1337 36.135 63.1137C35.9973 63.2372 35.8597 63.3591 35.7173 63.4762C34.5118 64.4846 33.5025 64.4102 32.3951 63.3179C28.6336 59.5813 25.206 55.5226 22.1514 51.1882C21.922 50.8716 21.6657 50.5645 21.4395 50.2383C20.6659 49.1302 20.5805 47.8637 21.5344 46.8964C22.6418 45.7882 22.5896 44.8257 21.8619 43.5371C20.8035 41.6643 19.9445 39.6791 19 37.7413V33.1504C19.6217 31.6053 20.7845 31.1778 22.4093 31.0401C25.8391 30.7488 28.8655 32.0501 31.9869 33.0364C33.9929 33.6696 35.9831 34.3567 37.9875 34.9963C38.364 35.111 38.7552 35.1702 39.1487 35.172C40.783 35.1894 42.4172 35.2211 44.053 35.1641C45.0568 35.1293 46.0418 35.4418 46.8422 36.049C49.1815 37.7155 51.5424 39.3514 53.9249 40.9566C54.3162 41.2003 54.7634 41.3393 55.2238 41.3603C56.1951 41.4205 57.1744 41.3872 58.1489 41.3761C59.3813 41.3635 60.2546 41.9096 60.8131 43.0067C61.6848 44.7212 62.5438 46.4421 63.4662 48.1281C63.808 48.7431 64.234 49.3074 64.7318 49.8046C65.7728 50.851 66.8644 51.8483 67.9607 52.8362C68.6538 53.4561 69.0811 54.3198 69.1536 55.2473C69.6682 59.8309 70.2035 64.4123 70.7593 68.9917C70.8248 69.3188 70.9967 69.6149 71.2482 69.8339C73.5247 71.8746 75.8139 73.9041 78.1316 75.8988C78.2697 75.9907 78.4268 76.0503 78.5911 76.0734C78.7554 76.0964 78.9227 76.0822 79.0808 76.0318C81.8894 74.836 84.6844 73.6075 87.4656 72.3463C87.7171 72.2323 87.9481 71.8223 87.9797 71.5294C88.0557 70.825 87.9908 70.1046 88.0082 69.3954C88.0462 67.9136 88.7913 66.9448 90.2009 66.5822C92.0361 66.1105 93.8749 65.6545 95.7174 65.2144C97.252 64.8503 98.6553 65.721 99.0397 67.2551C99.3719 68.6039 99.6836 69.9558 100.003 71.3078L100 72.5727ZM47.1428 65.0134C47.1428 65.8651 47.7139 66.2878 48.2502 66.9749C48.8735 67.7664 49.0618 68.7004 48.6425 69.6535C48.4288 70.1055 48.1577 70.528 47.8357 70.9104C47.5193 71.3141 47.5066 71.6023 47.8974 71.9822C48.7849 72.845 49.712 73.6904 50.4713 74.6608C51.7591 76.3041 53.4028 77.0655 55.4326 77.493C60.329 78.5204 58.6394 77.6655 62.191 81.1658C62.4941 81.4476 62.8611 81.6513 63.2605 81.7594C65.4927 82.38 67.7345 82.961 69.973 83.5515C70.4192 83.6702 70.8685 83.7763 71.3969 83.9108C71.5234 83.8744 70.8527 83.9109 71.3969 83.9014C71.9917 83.8934 72.3208 83.7874 72.6324 83.8238C73.3064 83.8491 73.1798 83.7874 73.7588 83.9124C73.7731 84.476 73.7588 83.2982 73.7588 83.9615C75.1669 83.5341 76.4356 83.1921 77.6728 82.7615C79.0571 82.2866 80.2246 82.4876 81.2972 83.5277C82.2812 84.4776 83.3744 85.3182 84.3774 86.2523C84.8394 86.6813 85.1352 86.6338 85.5386 86.1921C86.1715 85.4908 86.8154 84.7673 87.5542 84.1832C89.1457 82.9167 90.0727 81.4159 89.6424 79.3072C89.6385 79.281 89.6385 79.2543 89.6424 79.228C89.7089 77.58 90.7704 76.5368 92.4126 76.513C93.414 76.5004 94.417 76.5399 95.4184 76.4893C95.67 76.4766 96.0512 76.2676 96.1303 76.0539C96.6429 74.7874 97.0906 73.4909 97.5542 72.1991C97.6032 72.0499 97.6114 71.8903 97.5779 71.7368C97.32 70.4988 97.0463 69.264 96.7869 68.0292C96.7015 67.6318 96.5274 67.4355 96.0702 67.5543C94.3632 67.9975 92.6436 68.3949 90.9445 68.8651C90.7119 68.93 90.435 69.3004 90.4066 69.5537C90.3507 70.2384 90.3433 70.9261 90.3844 71.6118C90.4303 73.0207 89.7943 73.9531 88.5081 74.5104C85.6605 75.7431 82.8176 76.9938 79.9794 78.2624C78.7043 78.8323 77.5889 78.6676 76.5606 77.7178C75.7111 76.9262 74.8204 76.1853 73.7762 75.2608L69.9794 70.6698C69.9794 70.6698 68.5334 69.5806 68.0904 65.4551C67.6332 61.2092 67.3801 60.8134 66.9355 56.566C66.8201 55.4578 66.5195 54.576 65.6003 53.8747C64.7091 53.1723 63.8793 52.3954 63.1197 51.5523C62.4385 50.8292 61.8394 50.0328 61.3336 49.1777C60.446 47.6231 59.6645 46.0115 58.8704 44.403C58.6457 43.9487 58.3957 43.6748 57.8515 43.7603C54.8852 44.2257 52.384 43.26 50.1802 41.3017C49.6123 40.7983 48.9368 40.4168 48.3071 39.9846C48.1204 39.8564 47.9211 39.7519 47.5968 39.5587L45.2348 38.4854C45.2522 37.7888 44.9769 37.5482 44.3062 37.5577C42.7241 37.5815 41.1421 37.5973 39.5601 37.5577C38.7736 37.5596 37.9904 37.4563 37.2313 37.2506C34.5656 36.4305 31.9284 35.5203 29.2737 34.6654C27.3294 34.0321 25.4341 33.2849 23.2936 33.4527C21.3825 33.6031 21.3667 33.4844 21.3762 35.3762C21.3762 36.315 21.3145 37.23 21.8002 38.1387C22.8159 40.0384 23.7081 42.0125 24.6589 43.9518C25.23 45.1154 25.1177 46.1919 24.2935 47.194C24.0593 47.479 23.8521 47.7893 23.5974 48.0552C23.2509 48.4194 23.2367 48.7106 23.5547 49.1428C26.6776 53.3966 29.8986 57.5681 33.7145 61.2361C33.8727 61.3944 34.1622 61.4213 34.39 61.5084C34.3283 61.2646 34.3315 60.9765 34.197 60.7849C33.0247 59.1274 31.786 57.5158 30.6627 55.8267C30.2888 55.2334 30.0671 54.5569 30.0173 53.8573C29.954 53.0008 30.128 52.1254 30.2182 51.2594C30.3337 50.1513 30.9712 49.4151 31.9901 49.0431C33.0089 48.6711 33.9739 48.861 34.7602 49.6431C35.1837 50.0775 35.5845 50.5335 35.961 51.0093C38.9668 54.7074 42.3919 58.0652 45.0165 62.0783C45.0323 62.1021 45.1098 62.0878 45.2222 62.0942C45.2222 61.806 46.2157 63.9844 46.2157 63.7026L47.1428 65.0134Z" fill="#1C4F80"/>
</g>
<defs>
<clipPath id="clip0_561:2032">
<rect width="81" height="58" fill="white" transform="translate(19 31)"/>
</clipPath>
</defs>
</svg>
