<svg width="120" height="120" viewBox="0 0 120 120" fill="none" xmlns="http://www.w3.org/2000/svg">
<circle cx="60" cy="60" r="60" fill="#D1DD48"/>
<rect x="39" y="26" width="36" height="67" fill="white"/>
<rect x="45" y="33" width="8" height="7" fill="#00AEEF"/>
<rect x="45" y="49" width="8" height="7" fill="#00AEEF"/>
<rect x="45" y="64" width="8" height="7" fill="#00AEEF"/>
<rect x="61" y="33" width="8" height="7" fill="#00AEEF"/>
<rect x="61" y="49" width="8" height="7" fill="#00AEEF"/>
<rect x="61" y="64" width="8" height="7" fill="#00AEEF"/>
<path d="M75.2345 25H38.7645C37.9945 25 37.3701 25.6243 37.3701 26.3944V93.6056C37.3701 94.3757 37.9945 95 38.7645 95H75.2345C76.0045 95 76.6289 94.3757 76.6289 93.6056V26.3944C76.6289 25.6243 76.0045 25 75.2345 25ZM62.7316 92.2112H58.3939V87.9465C58.3939 87.1764 57.7695 86.5521 56.9995 86.5521C56.2295 86.5521 55.6051 87.1764 55.6051 87.9465V92.2112H51.2676V80.5378H62.7316V92.2112ZM73.8403 92.2112H73.8401H65.5202V79.1434C65.5202 78.3732 64.8958 77.749 64.1258 77.749H49.8732C49.1032 77.749 48.4788 78.3732 48.4788 79.1434V92.2112H40.1589V27.7888H73.8403V92.2112Z" fill="#1C4F80"/>
<path d="M53.5764 30.9385H44.9129C44.1429 30.9385 43.5186 31.5627 43.5186 32.3329V40.9963C43.5186 41.7665 44.1429 42.3907 44.9129 42.3907H53.5764C54.3464 42.3907 54.9708 41.7665 54.9708 40.9963V32.333C54.9708 31.5629 54.3464 30.9385 53.5764 30.9385ZM52.182 39.6019H46.3075V33.7274H52.182V39.6019V39.6019Z" fill="#1C4F80"/>
<path d="M69.0871 30.9385H60.4237C59.6537 30.9385 59.0293 31.5627 59.0293 32.3329V40.9963C59.0293 41.7665 59.6536 42.3907 60.4237 42.3907H69.0871C69.8571 42.3907 70.4815 41.7665 70.4815 40.9963V32.333C70.4815 31.5629 69.8571 30.9385 69.0871 30.9385ZM67.6928 39.6019H61.8182V33.7274H67.6928V39.6019Z" fill="#1C4F80"/>
<path d="M53.5764 46.3091H44.9129C44.1429 46.3091 43.5186 46.9333 43.5186 47.7035V56.3669C43.5186 57.1371 44.1429 57.7613 44.9129 57.7613H53.5764C54.3464 57.7613 54.9708 57.1371 54.9708 56.3669V47.7035C54.9708 46.9333 54.3464 46.3091 53.5764 46.3091ZM52.182 54.9725H46.3075V49.098H52.182V54.9725V54.9725Z" fill="#1C4F80"/>
<path d="M69.0871 46.3091H60.4237C59.6537 46.3091 59.0293 46.9333 59.0293 47.7035V56.3669C59.0293 57.1371 59.6536 57.7613 60.4237 57.7613H69.0871C69.8571 57.7613 70.4815 57.1371 70.4815 56.3669V47.7035C70.4815 46.9333 69.8571 46.3091 69.0871 46.3091ZM67.6928 54.9725H61.8182V49.098H67.6928V54.9725Z" fill="#1C4F80"/>
<path d="M53.5764 61.6797H44.9129C44.1429 61.6797 43.5186 62.3039 43.5186 63.0741V71.7375C43.5186 72.5077 44.1429 73.1319 44.9129 73.1319H53.5764C54.3464 73.1319 54.9708 72.5077 54.9708 71.7375V63.0741C54.9708 62.3039 54.3464 61.6797 53.5764 61.6797ZM52.182 70.3431H46.3075V64.4686H52.182V70.3431V70.3431Z" fill="#1C4F80"/>
<path d="M69.0871 61.6797H60.4237C59.6537 61.6797 59.0293 62.3039 59.0293 63.0741V71.7375C59.0293 72.5077 59.6536 73.1319 60.4237 73.1319H69.0871C69.8571 73.1319 70.4815 72.5077 70.4815 71.7375V63.0741C70.4815 62.3039 69.8571 61.6797 69.0871 61.6797ZM67.6928 70.3431H61.8182V64.4686H67.6928V70.3431Z" fill="#1C4F80"/>
<path d="M56.9999 82.2202C56.2299 82.2202 55.6055 82.8445 55.6055 83.6146V83.7543C55.6055 84.5245 56.2299 85.1487 56.9999 85.1487C57.7699 85.1487 58.3943 84.5245 58.3943 83.7543V83.6146C58.3943 82.8446 57.7699 82.2202 56.9999 82.2202Z" fill="#1C4F80"/>
</svg>
