<svg width="297" height="290" viewBox="0 0 297 290" fill="none" xmlns="http://www.w3.org/2000/svg">
<path d="M36.9496 217.044L0 254.897V216.914L31.3858 184.827C60.5039 207.717 86.8918 203.072 90.856 171.476C63.5505 166.371 47.9695 149.971 47.9695 125.454C47.9695 106.805 58.5229 84.7284 83.8782 65.5313C147.229 133.798 189.1 161.63 264.812 154.169C253.272 105.728 210.502 71.6981 156.725 59.2923C163.031 77.1841 175.377 93.3941 204.076 107.628V136.286C148.02 109.547 132.944 85.0026 122.665 27C225.731 41.2607 281.787 93.367 297 173.995C212.392 195.985 144.414 169.216 84.4134 102.466C77.0931 110.645 73.4619 118.418 73.4619 125.728C73.4619 141.085 88.5381 150.547 114.442 150.547C121.421 203.744 81.0483 239.661 36.9496 217.044Z" fill="white" fill-opacity="0.2"/>
<path d="M0 119.283C10.8274 123.397 21.3807 127.785 31.2487 132.173V160.968C21.3807 156.032 10.8274 151.781 0 147.667V119.283Z" fill="white" fill-opacity="0.2"/>
<path d="M133.767 211.018V177.834C176.391 208.275 215.452 244.475 253.279 290H219.289C191.467 259.559 164.193 233.643 133.767 211.018Z" fill="white" fill-opacity="0.2"/>
<path d="M225.731 235.563V199.911C247.523 218.559 267.67 241.459 287.543 266.004H254.376C244.645 255.308 235.188 245.298 225.731 235.563Z" fill="white" fill-opacity="0.2"/>
<path d="M271.561 27.4C275.427 27.4 278.894 28.3 281.961 30.1C285.027 31.8333 287.427 34.2667 289.161 37.4C290.894 40.4667 291.761 43.9333 291.761 47.8C291.761 51.6667 290.894 55.1667 289.161 58.3C287.427 61.4333 285.027 63.9 281.961 65.7C278.894 67.4333 275.427 68.3 271.561 68.3C267.627 68.3 264.127 67.4333 261.061 65.7C257.994 63.9 255.594 61.4333 253.861 58.3C252.127 55.1667 251.261 51.6667 251.261 47.8C251.261 43.9333 252.127 40.4667 253.861 37.4C255.594 34.2667 257.994 31.8333 261.061 30.1C264.127 28.3 267.627 27.4 271.561 27.4ZM271.561 64.3C276.361 64.3 280.227 62.7667 283.161 59.7C286.161 56.6333 287.661 52.6667 287.661 47.8C287.661 42.9333 286.161 38.9667 283.161 35.9C280.227 32.8333 276.361 31.3 271.561 31.3C266.694 31.3 262.794 32.8333 259.861 35.9C256.994 38.9667 255.561 42.9333 255.561 47.8C255.561 52.6667 256.994 56.6333 259.861 59.7C262.794 62.7667 266.694 64.3 271.561 64.3ZM280.561 43.6C280.561 45.2 280.127 46.5667 279.261 47.7C278.461 48.7667 277.327 49.5333 275.861 50L281.461 58.3L275.161 58.4L270.361 50.4H268.661V58.4H263.461V36.9H273.061C275.327 36.9 277.127 37.5 278.461 38.7C279.861 39.9 280.561 41.5333 280.561 43.6ZM268.661 46.1H272.761C273.494 46.1 274.094 45.9 274.561 45.5C275.094 45.1 275.361 44.5333 275.361 43.8C275.361 43.0667 275.094 42.5333 274.561 42.2C274.094 41.8 273.494 41.6 272.761 41.6H268.661V46.1Z" fill="white" fill-opacity="0.2"/>
</svg>
