<svg width="120" height="120" viewBox="0 0 120 120" fill="none" xmlns="http://www.w3.org/2000/svg">
<circle cx="60" cy="60" r="60" fill="#D1DD48"/>
<path d="M74 50H83L90.5 62H74V50Z" fill="white" stroke="black"/>
<path d="M81.5 47L90.5 62V75.5L88 77.5H70V47H81.5Z" fill="#18416D"/>
<rect x="24" y="67" width="45" height="11" rx="3" fill="white"/>
<path d="M83.5 50L90 61.5V62H74V50.5L83.5 50Z" fill="white"/>
<circle cx="34" cy="78" r="6" fill="#C7EEFF"/>
<circle cx="79" cy="78" r="6" fill="#C7EEFF"/>
<path d="M85 67C85 65.8 88.3333 65.5 90 65.5L90.5 69.5C90.3333 69.6667 89.7 70 88.5 70C87 70 85 68.5 85 67Z" fill="white"/>
<rect x="24" y="37" width="45" height="31" rx="3" fill="#00AEEF"/>
<path d="M22 38.9516V75.0806C22 76.1287 22.4163 77.1338 23.1574 77.8749C23.8985 78.6159 24.9036 79.0322 25.9516 79.0322H27.7411C28.0094 80.6092 28.8271 82.0404 30.0494 83.0723C31.2717 84.1041 32.8197 84.6702 34.4193 84.6702C36.019 84.6702 37.567 84.1041 38.7893 83.0723C40.0116 82.0404 40.8293 80.6092 41.0976 79.0322H71.7734C72.0417 80.6092 72.8594 82.0404 74.0817 83.0723C75.304 84.1041 76.852 84.6702 78.4516 84.6702C80.0512 84.6702 81.5993 84.1041 82.8215 83.0723C84.0438 82.0404 84.8615 80.6092 85.1298 79.0322H88.0484C89.0964 79.0322 90.1015 78.6159 90.8426 77.8749C91.5837 77.1338 92 76.1287 92 75.0806V62.0968C92.0009 61.8989 91.9498 61.7042 91.8518 61.5323L82.8195 45.7258C82.7202 45.5537 82.5772 45.4109 82.405 45.3118C82.2327 45.2127 82.0374 45.1607 81.8387 45.1613H70.5484V38.9516C70.5484 37.9036 70.132 36.8985 69.391 36.1574C68.6499 35.4163 67.6448 35 66.5968 35H25.9516C24.9036 35 23.8985 35.4163 23.1574 36.1574C22.4163 36.8985 22 37.9036 22 38.9516ZM88.9248 60.9677H75.0645V50.8064H83.1187L88.9248 60.9677ZM89.7419 68.871H87.4839C87.1844 68.871 86.8972 68.752 86.6855 68.5403C86.4738 68.3285 86.3548 68.0414 86.3548 67.7419C86.3548 67.4425 86.4738 67.1553 86.6855 66.9436C86.8972 66.7318 87.1844 66.6129 87.4839 66.6129H89.7419V68.871ZM73.9355 77.9032C73.9355 77.01 74.2003 76.1369 74.6966 75.3942C75.1928 74.6515 75.8981 74.0727 76.7234 73.7309C77.5486 73.389 78.4566 73.2996 79.3327 73.4739C80.2087 73.6481 81.0134 74.0783 81.645 74.7098C82.2766 75.3414 82.7067 76.1461 82.881 77.0222C83.0552 77.8982 82.9658 78.8063 82.624 79.6315C82.2821 80.4567 81.7033 81.162 80.9606 81.6582C80.218 82.1545 79.3448 82.4193 78.4516 82.4193C77.2539 82.4193 76.1052 81.9435 75.2582 81.0966C74.4113 80.2497 73.9355 79.101 73.9355 77.9032ZM70.5484 47.4194H81.1839L81.8288 48.5484H73.9355C73.636 48.5484 73.3489 48.6673 73.1371 48.8791C72.9254 49.0908 72.8064 49.378 72.8064 49.6774V62.0968C72.8064 62.3962 72.9254 62.6834 73.1371 62.8951C73.3489 63.1068 73.636 63.2258 73.9355 63.2258H89.7419V64.3548H87.4839C86.5855 64.3548 85.724 64.7117 85.0888 65.3469C84.4536 65.9821 84.0968 66.8436 84.0968 67.7419C84.0968 68.6402 84.4536 69.5018 85.0888 70.137C85.724 70.7722 86.5855 71.129 87.4839 71.129H89.7419V75.0806C89.7419 75.5298 89.5635 75.9606 89.2459 76.2782C88.9283 76.5958 88.4975 76.7742 88.0484 76.7742H85.1298C84.8615 75.1972 84.0438 73.7661 82.8215 72.7342C81.5993 71.7023 80.0512 71.1362 78.4516 71.1362C76.852 71.1362 75.304 71.7023 74.0817 72.7342C72.8594 73.7661 72.0417 75.1972 71.7734 76.7742H70.5484V47.4194ZM29.9032 77.9032C29.9032 77.01 30.1681 76.1369 30.6643 75.3942C31.1606 74.6515 31.8659 74.0727 32.6911 73.7309C33.5163 73.389 34.4244 73.2996 35.3004 73.4739C36.1764 73.6481 36.9811 74.0783 37.6127 74.7098C38.2443 75.3414 38.6744 76.1461 38.8487 77.0222C39.023 77.8982 38.9335 78.8063 38.5917 79.6315C38.2499 80.4567 37.6711 81.162 36.9284 81.6582C36.1857 82.1545 35.3126 82.4193 34.4193 82.4193C33.2216 82.4193 32.0729 81.9435 31.226 81.0966C30.379 80.2497 29.9032 79.101 29.9032 77.9032ZM24.2581 68.871H68.2903V76.7742H41.0976C40.8293 75.1972 40.0116 73.7661 38.7893 72.7342C37.567 71.7023 36.019 71.1362 34.4193 71.1362C32.8197 71.1362 31.2717 71.7023 30.0494 72.7342C28.8271 73.7661 28.0094 75.1972 27.7411 76.7742H25.9516C25.5025 76.7742 25.0717 76.5958 24.7541 76.2782C24.4365 75.9606 24.2581 75.5298 24.2581 75.0806V68.871ZM24.2581 38.9516C24.2581 38.5025 24.4365 38.0717 24.7541 37.7541C25.0717 37.4365 25.5025 37.2581 25.9516 37.2581H66.5968C67.0459 37.2581 67.4767 37.4365 67.7943 37.7541C68.1119 38.0717 68.2903 38.5025 68.2903 38.9516V66.6129H24.2581V38.9516Z" fill="#1C4F80"/>
<path d="M34.4388 75.3967C33.9763 75.3967 33.5242 75.5339 33.1396 75.7908C32.7551 76.0478 32.4553 76.413 32.2784 76.8403C32.1014 77.2676 32.055 77.7378 32.1453 78.1914C32.2355 78.6451 32.4582 79.0617 32.7853 79.3888C33.1123 79.7158 33.529 79.9386 33.9826 80.0288C34.4363 80.119 34.9064 80.0727 35.3338 79.8957C35.7611 79.7187 36.1263 79.419 36.3832 79.0344C36.6402 78.6499 36.7774 78.1977 36.7774 77.7352C36.7766 77.1152 36.53 76.5209 36.0916 76.0825C35.6532 75.6441 35.0588 75.3974 34.4388 75.3967Z" fill="#1C4F80"/>
<path d="M78.4839 75.3967C78.0212 75.3959 77.5686 75.5323 77.1835 75.7888C76.7984 76.0452 76.498 76.4101 76.3203 76.8374C76.1427 77.2646 76.0958 77.7349 76.1855 78.1888C76.2753 78.6427 76.4977 79.0598 76.8246 79.3873C77.1514 79.7148 77.5681 79.9379 78.0218 80.0285C78.4756 80.1191 78.946 80.073 79.3735 79.8961C79.8011 79.7192 80.1666 79.4195 80.4237 79.0349C80.6809 78.6502 80.8181 78.1979 80.8181 77.7352C80.8178 77.1159 80.5718 76.5219 80.1343 76.0836C79.6967 75.6452 79.1032 75.3982 78.4839 75.3967Z" fill="#1C4F80"/>
<path d="M65.3629 56.719L65.4565 56.7096L65.6205 57.024H65.5081L65.3629 56.719ZM65.3441 56.1277C65.0115 56.1277 64.7913 56.3577 64.7913 56.6908C64.7913 57.0334 65.0115 57.2633 65.3441 57.2633C65.6861 57.2633 65.925 57.0334 65.925 56.6908C65.925 56.3577 65.6861 56.1277 65.3441 56.1277ZM26 56.7987L27.5648 55.194L26.8995 55.2784C28.5392 56.4703 30.1696 55.194 29.9119 53.2278C29.0265 53.2278 28.5111 52.9041 28.5111 52.3785C28.5111 52.0454 28.7313 51.684 29.1764 51.2993L28.6704 51.3368C30.774 53.8003 33.1586 54.8092 36.1523 54.0302C35.6322 51.2711 33.7161 49.488 30.193 49C30.5444 50.9849 31.0597 51.8248 32.9759 52.7398V51.7591C31.8796 51.2148 31.4814 50.586 31.2893 49.8869L31.0504 50.0417C33.1352 50.4218 34.803 51.731 35.1075 53.6314L35.3558 53.317C32.573 53.6783 31.116 52.7445 28.8672 50.3186C28.0005 50.9755 27.6397 51.731 27.6397 52.3691C27.6397 53.3921 28.4315 54.0021 29.7761 54.0021L29.1202 53.5141C29.1858 54.9734 28.1879 55.2784 27.0729 54.4009L26 55.499V56.7987ZM27.0682 52.5991C26.7309 52.4489 26.3701 52.2987 26 52.158V53.1293C26.3701 53.2701 26.7309 53.4155 27.0682 53.5845V52.5991ZM30.5725 54.1616V55.2972C31.6126 56.0714 32.5449 56.9583 33.4959 58H34.6578C33.3647 56.4421 32.0295 55.2033 30.5725 54.1616ZM33.7161 54.9171V56.1371C34.0394 56.4703 34.3626 56.8128 34.6952 57.1788H35.829C35.1497 56.3389 34.461 55.5553 33.7161 54.9171ZM65.2692 56.6721H65.3816C65.4659 56.6721 65.5268 56.6345 65.5268 56.5688C65.5268 56.5031 65.4706 56.4656 65.3816 56.4656H65.2692V56.6721ZM65.6205 56.5688C65.6205 56.6814 65.5268 56.7612 65.3816 56.7612H65.2692V57.0287H65.1755V56.3811H65.3863C65.5221 56.3764 65.6205 56.4515 65.6205 56.5688ZM65.3441 56.0527C65.733 56.0527 66 56.3107 66 56.6908C66 57.0803 65.733 57.3384 65.3441 57.3384C64.9646 57.3384 64.7163 57.0803 64.7163 56.6908C64.7163 56.3107 64.9599 56.0527 65.3441 56.0527ZM64.2197 53.4202H63.0579V55.6913C63.0579 56.1606 63.2781 56.2732 63.7138 56.2732C63.8543 56.2732 64.0276 56.2638 64.2197 56.245V57.1788C63.9902 57.207 63.77 57.2258 63.5826 57.2258C62.4863 57.2258 62.0178 56.7377 62.0178 55.6913V53.4202H61.1511V52.4067H62.0178V51.4072L63.0579 51.0928V52.4114H64.2197V53.4202ZM59.3614 52.4067H60.4015V57.1788H59.3614V52.4067ZM59.8721 51.7028C59.4833 51.7028 59.2256 51.4447 59.2256 51.0553C59.2256 50.6658 59.4926 50.4077 59.8908 50.4077C60.2703 50.4077 60.528 50.6658 60.528 51.0553C60.5327 51.4447 60.2656 51.7028 59.8721 51.7028ZM55.918 56.3107C56.7566 56.3107 57.4031 55.7195 57.4031 54.8139C57.4031 53.8989 56.7941 53.2982 55.918 53.2982C55.0232 53.2982 54.4048 53.9552 54.4048 54.8139C54.4048 55.635 55.0232 56.3107 55.918 56.3107ZM56.0914 52.3128C57.3985 52.3128 58.4432 53.4015 58.4432 54.8139C58.4432 56.17 57.375 57.3149 56.0914 57.3149C55.3371 57.3149 54.7843 57.0287 54.4048 56.5031V57.1788H53.3928V50.5344H54.4048V53.0918C54.7843 52.5803 55.3371 52.3128 56.0914 52.3128ZM49.926 56.3107C50.8114 56.3107 51.4111 55.6726 51.4111 54.8139C51.4111 53.9552 50.8583 53.2982 49.926 53.2982C49.0686 53.2982 48.4409 53.8801 48.4409 54.8139C48.4409 55.7007 49.0593 56.3107 49.926 56.3107ZM50.09 52.3128C51.4252 52.3128 52.4512 53.3733 52.4512 54.8139C52.4512 56.1981 51.4017 57.3149 50.09 57.3149C49.3732 57.3149 48.8203 57.0287 48.4409 56.5031V57.1788H47.4008V50.5344H48.4409V53.0918C48.8203 52.5803 49.3732 52.3128 50.09 52.3128ZM43.7044 56.3107C44.5805 56.3107 45.1989 55.6538 45.1989 54.8139C45.1989 53.9739 44.6179 53.2982 43.7044 53.2982C42.7814 53.2982 42.1818 53.927 42.1818 54.8139C42.1818 55.6632 42.7721 56.3107 43.7044 56.3107ZM45.1989 52.4067H46.2015V57.1788H45.1989V56.5031C44.8007 57.0287 44.2478 57.3149 43.5404 57.3149C42.1958 57.3149 41.1792 56.1887 41.1792 54.8139C41.1792 53.4015 42.1584 52.3128 43.5404 52.3128C44.2478 52.3128 44.796 52.5803 45.1989 53.0965V52.4067ZM39.427 53.2278C39.6941 52.646 40.1813 52.341 40.884 52.341V53.4484C40.0642 53.4484 39.427 53.8895 39.427 54.7857V57.1835H38.387V52.4067H39.427V53.2278Z" fill="white"/>
</svg>
