<svg width="52" height="52" viewBox="0 0 52 52" fill="none" xmlns="http://www.w3.org/2000/svg">
<g filter="url(#filter0_d_2919_1991)">
<path fill-rule="evenodd" clip-rule="evenodd" d="M42.5252 15.8412V17.2619C41.6813 17.081 40.8718 16.7841 40.1181 16.3836C40.8657 16.7814 41.6738 17.08 42.5249 17.2619V22.5162C39.0687 22.5162 35.8688 21.4136 33.2557 19.5396V33.1617C33.2557 39.976 27.7513 45.5001 20.9613 45.5001C18.4279 45.5001 16.0732 44.7313 14.1171 43.4132C14.1165 43.4126 14.116 43.412 14.1154 43.4114C10.8292 41.1966 8.66675 37.4325 8.66675 33.1615C8.66675 26.3477 14.1713 20.8236 20.9618 20.8237C21.5261 20.8235 22.0897 20.8619 22.6488 20.9386V22.4511C22.5347 22.4534 22.4209 22.4574 22.3076 22.4628C22.4207 22.4574 22.5343 22.4535 22.6482 22.4511V27.7628C22.1101 27.5915 21.5365 27.4985 20.9413 27.4985C17.8351 27.4985 15.3175 30.0255 15.3175 33.1423C15.3175 35.346 16.576 37.2543 18.4111 38.1839C19.4388 39.5374 21.0615 40.4111 22.888 40.4111C23.6751 40.4111 24.4244 40.2488 25.1046 39.9557C24.4245 40.2487 23.6753 40.411 22.8883 40.411C21.0618 40.411 19.4391 39.5373 18.4114 38.184C19.1723 38.5692 20.0316 38.786 20.9417 38.786C24.0415 38.786 26.5548 36.2693 26.5655 33.1615V6.5H33.2559V7.35857C33.2795 7.61524 33.3135 7.87094 33.3578 8.12497H28.5122V8.125H33.3575C33.8218 10.783 35.4055 13.0539 37.6036 14.4304C37.6706 14.5039 37.7388 14.5763 37.8082 14.6476C37.739 14.5763 37.6709 14.5039 37.6039 14.4302C39.0799 15.3549 40.7855 15.8438 42.5252 15.8412Z" fill="#0090CC"/>
</g>
<defs>
<filter id="filter0_d_2919_1991" x="-4.33333" y="-4.33333" width="60.6667" height="60.6667" filterUnits="userSpaceOnUse" color-interpolation-filters="sRGB">
<feFlood flood-opacity="0" result="BackgroundImageFix"/>
<feColorMatrix in="SourceAlpha" type="matrix" values="0 0 0 0 0 0 0 0 0 0 0 0 0 0 0 0 0 0 127 0" result="hardAlpha"/>
<feOffset/>
<feGaussianBlur stdDeviation="2.16667"/>
<feColorMatrix type="matrix" values="0 0 0 0 1 0 0 0 0 1 0 0 0 0 1 0 0 0 1 0"/>
<feBlend mode="normal" in2="BackgroundImageFix" result="effect1_dropShadow_2919_1991"/>
<feBlend mode="normal" in="SourceGraphic" in2="effect1_dropShadow_2919_1991" result="shape"/>
</filter>
</defs>
</svg>
