<svg width="55" height="55" viewBox="0 0 55 55" fill="none" xmlns="http://www.w3.org/2000/svg">
<g clip-path="url(#clip0_1234_1307)">
<path d="M44.6547 45.0331C54.3481 35.27 54.3481 19.4409 44.6547 9.67779C34.9612 -0.0853156 19.245 -0.0853156 9.55155 9.67779C-0.141901 19.4409 -0.141901 35.27 9.55155 45.0331C19.245 54.7963 34.9612 54.7963 44.6547 45.0331Z" fill="#00AEEF"/>
<path d="M28.5055 13.4553H33.5371C34.0274 17.7874 36.5081 20.0687 40.7096 20.6661V25.6434C38.157 25.7586 35.9034 24.9077 33.6924 23.484C33.6613 23.8411 33.6188 24.0995 33.6188 24.3579C33.6188 27.5247 33.6286 30.6915 33.6188 33.8566C33.5927 39.1993 29.7932 43.1001 24.286 43.4639C19.8852 43.7552 15.4745 39.8939 14.7816 35.1421C13.9531 29.4686 18.7135 24.1687 24.3923 24.4435C24.7011 24.4584 25.0067 24.5209 25.3629 24.567V29.6134C25.0933 29.6134 24.827 29.6249 24.5622 29.6134C21.9949 29.4735 19.944 31.2593 19.8509 33.7282C19.7577 36.0786 21.5929 38.1228 23.8808 38.2183C26.4726 38.3171 28.4712 36.4884 28.4843 33.8796C28.5169 27.5478 28.4973 21.2159 28.499 14.8823L28.5055 13.4553Z" fill="white"/>
</g>
<defs>
<clipPath id="clip0_1234_1307">
<rect width="55" height="55" fill="white"/>
</clipPath>
</defs>
</svg>
