<?xml version="1.0" encoding="utf-8"?>
<!-- Generator: Adobe Illustrator 25.0.0, SVG Export Plug-In . SVG Version: 6.00 Build 0)  -->
<svg version="1.1" id="Capa_1" xmlns="http://www.w3.org/2000/svg" xmlns:xlink="http://www.w3.org/1999/xlink" x="0px" y="0px"
	 viewBox="0 0 710 61" style="enable-background:new 0 0 710 61;" xml:space="preserve">
<style type="text/css">
	.st0{fill:#00AEEF;}
	.st1{fill:#1E4D7C;}
</style>
<path class="st0" d="M42.9,60.9l8.7-8.7l-8.7-8.7l-8.7,8.7L42.9,60.9z M41.4,24.2v28h3v-28H41.4z"/>
<path class="st0" d="M164.6,60.9l8.7-8.7l-8.7-8.7l-8.7,8.7L164.6,60.9z M163.1,24.2v28h3v-28H163.1z"/>
<path class="st0" d="M286.6,60.9l8.7-8.7l-8.7-8.7l-8.7,8.7L286.6,60.9z M285.1,24.2v28h3v-28H285.1z"/>
<path class="st0" d="M408.6,60.9l8.7-8.7l-8.7-8.7l-8.7,8.7L408.6,60.9z M407.1,24.2v28h3v-28H407.1z"/>
<path class="st0" d="M530.6,60.9l8.7-8.7l-8.7-8.7l-8.7,8.7L530.6,60.9z M529.1,24.2v28h3v-28H529.1z"/>
<path class="st0" d="M650.7,60.9l8.7-8.7l-8.7-8.7l-8.7,8.7L650.7,60.9z M649.2,24.2v28h3v-28H649.2z"/>
<path class="st0" d="M43,50h609v5H43V50z"/>
<g>
	<path class="st1" d="M372.9,9.2c-0.2-0.3-0.4-0.6-0.8-0.7s-0.7-0.3-1.2-0.3c-0.8,0-1.4,0.3-1.9,0.8s-0.7,1.2-0.7,2
		c0,0.9,0.2,1.6,0.7,2.1s1.2,0.8,2,0.8c0.6,0,1.1-0.1,1.5-0.4c0.4-0.3,0.7-0.7,0.9-1.3h-3v-1.8h5.2v2.2c-0.2,0.6-0.5,1.2-0.9,1.7
		c-0.4,0.5-1,0.9-1.6,1.2S371.8,16,371,16c-1,0-1.8-0.2-2.6-0.6c-0.8-0.4-1.4-1-1.8-1.8S366,11.9,366,11s0.2-1.8,0.6-2.6
		c0.4-0.8,1-1.4,1.8-1.8s1.6-0.6,2.6-0.6c1.2,0,2.2,0.3,3,0.9c0.8,0.6,1.3,1.4,1.6,2.4H372.9z"/>
	<path class="st1" d="M384.8,8.1v7.8h-2.4v-1.1c-0.2,0.3-0.6,0.6-1,0.8c-0.4,0.2-0.9,0.3-1.4,0.3c-0.6,0-1.1-0.1-1.6-0.4
		c-0.5-0.3-0.8-0.7-1.1-1.2s-0.4-1.1-0.4-1.8V8.1h2.4v4.2c0,0.5,0.1,0.9,0.4,1.2c0.3,0.3,0.6,0.4,1.1,0.4c0.5,0,0.8-0.1,1.1-0.4
		c0.3-0.3,0.4-0.7,0.4-1.2V8.1H384.8z"/>
	<path class="st1" d="M386.5,9.8c0.3-0.6,0.7-1.1,1.2-1.4c0.5-0.3,1.1-0.5,1.8-0.5c0.6,0,1,0.1,1.4,0.3c0.4,0.2,0.7,0.5,1,0.9V8.1
		h2.4v7.8h-2.4v-1.1c-0.2,0.4-0.6,0.7-1,0.9c-0.4,0.2-0.9,0.3-1.4,0.3c-0.6,0-1.2-0.2-1.7-0.5s-0.9-0.8-1.2-1.4
		c-0.3-0.6-0.5-1.3-0.5-2.1S386.2,10.5,386.5,9.8z M391.4,10.6c-0.3-0.3-0.7-0.5-1.2-0.5c-0.5,0-0.9,0.2-1.2,0.5
		c-0.3,0.3-0.5,0.8-0.5,1.4s0.2,1.1,0.5,1.4c0.3,0.3,0.7,0.5,1.2,0.5c0.5,0,0.9-0.2,1.2-0.5c0.3-0.3,0.5-0.8,0.5-1.4
		C391.9,11.4,391.7,10.9,391.4,10.6z"/>
	<path class="st1" d="M402.9,8.9c0.5,0.6,0.8,1.4,0.8,2.4v4.6h-2.4v-4.2c0-0.5-0.1-0.9-0.4-1.2c-0.3-0.3-0.6-0.4-1.1-0.4
		s-0.8,0.1-1.1,0.4s-0.4,0.7-0.4,1.2v4.2H396V8.1h2.4v1c0.2-0.3,0.6-0.6,1-0.8c0.4-0.2,0.9-0.3,1.4-0.3C401.7,8,402.4,8.3,402.9,8.9
		z"/>
	<path class="st1" d="M405.4,9.8c0.3-0.6,0.7-1.1,1.2-1.4c0.5-0.3,1.1-0.5,1.8-0.5c0.6,0,1,0.1,1.4,0.3c0.4,0.2,0.7,0.5,1,0.9V8.1
		h2.4v7.8h-2.4v-1.1c-0.2,0.4-0.6,0.7-1,0.9c-0.4,0.2-0.9,0.3-1.4,0.3c-0.6,0-1.2-0.2-1.7-0.5s-0.9-0.8-1.2-1.4
		c-0.3-0.6-0.5-1.3-0.5-2.1S405.1,10.5,405.4,9.8z M410.3,10.6c-0.3-0.3-0.7-0.5-1.2-0.5c-0.5,0-0.9,0.2-1.2,0.5
		c-0.3,0.3-0.5,0.8-0.5,1.4s0.2,1.1,0.5,1.4c0.3,0.3,0.7,0.5,1.2,0.5c0.5,0,0.9-0.2,1.2-0.5c0.3-0.3,0.5-0.8,0.5-1.4
		C410.8,11.4,410.6,10.9,410.3,10.6z"/>
	<path class="st1" d="M417.3,16.9c0,1-0.2,1.7-0.7,2.1s-1.2,0.6-2,0.6h-0.9v-2h0.6c0.3,0,0.4-0.1,0.6-0.2c0.1-0.1,0.2-0.3,0.2-0.5
		V8.1h2.4V16.9z M415.1,6.9c-0.3-0.2-0.4-0.6-0.4-0.9c0-0.4,0.1-0.7,0.4-0.9c0.3-0.2,0.6-0.4,1-0.4c0.4,0,0.7,0.1,1,0.4
		c0.3,0.2,0.4,0.6,0.4,0.9c0,0.4-0.1,0.7-0.4,0.9c-0.3,0.2-0.6,0.4-1,0.4C415.7,7.3,415.4,7.1,415.1,6.9z"/>
	<path class="st1" d="M426.8,8.1v7.8h-2.4v-1.1c-0.2,0.3-0.6,0.6-1,0.8c-0.4,0.2-0.9,0.3-1.4,0.3c-0.6,0-1.1-0.1-1.6-0.4
		c-0.5-0.3-0.8-0.7-1.1-1.2s-0.4-1.1-0.4-1.8V8.1h2.4v4.2c0,0.5,0.1,0.9,0.4,1.2c0.3,0.3,0.6,0.4,1.1,0.4c0.5,0,0.8-0.1,1.1-0.4
		c0.3-0.3,0.4-0.7,0.4-1.2V8.1H426.8z"/>
	<path class="st1" d="M428.5,9.8c0.3-0.6,0.7-1.1,1.2-1.4c0.5-0.3,1.1-0.5,1.8-0.5c0.6,0,1,0.1,1.4,0.3c0.4,0.2,0.7,0.5,1,0.9V8.1
		h2.4v7.8h-2.4v-1.1c-0.2,0.4-0.6,0.7-1,0.9c-0.4,0.2-0.9,0.3-1.4,0.3c-0.6,0-1.2-0.2-1.7-0.5s-0.9-0.8-1.2-1.4
		c-0.3-0.6-0.5-1.3-0.5-2.1S428.2,10.5,428.5,9.8z M433.4,10.6c-0.3-0.3-0.7-0.5-1.2-0.5c-0.5,0-0.9,0.2-1.2,0.5
		c-0.3,0.3-0.5,0.8-0.5,1.4s0.2,1.1,0.5,1.4c0.3,0.3,0.7,0.5,1.2,0.5c0.5,0,0.9-0.2,1.2-0.5c0.3-0.3,0.5-0.8,0.5-1.4
		C433.9,11.4,433.7,10.9,433.4,10.6z"/>
	<path class="st1" d="M442.3,13.9v2h-1.2c-0.9,0-1.5-0.2-2-0.6s-0.7-1.1-0.7-2.1v-3.1h-1v-2h1V6.2h2.4v1.9h1.6v2h-1.6v3.1
		c0,0.2,0.1,0.4,0.2,0.5c0.1,0.1,0.3,0.2,0.6,0.2H442.3z"/>
	<path class="st1" d="M445.2,15.5c-0.6-0.3-1.1-0.8-1.4-1.4c-0.3-0.6-0.5-1.3-0.5-2.1c0-0.8,0.2-1.5,0.5-2.1s0.8-1.1,1.5-1.4
		c0.6-0.3,1.3-0.5,2.1-0.5c0.8,0,1.5,0.2,2.1,0.5c0.6,0.3,1.1,0.8,1.5,1.4c0.4,0.6,0.5,1.3,0.5,2.1s-0.2,1.5-0.5,2.1
		s-0.8,1.1-1.5,1.4S448,16,447.2,16S445.8,15.8,445.2,15.5z M448.4,13.4c0.3-0.3,0.5-0.8,0.5-1.4c0-0.6-0.2-1.1-0.5-1.4
		c-0.3-0.3-0.7-0.5-1.2-0.5c-0.5,0-0.9,0.2-1.2,0.5c-0.3,0.3-0.5,0.8-0.5,1.4c0,0.6,0.2,1.1,0.5,1.4c0.3,0.3,0.7,0.5,1.1,0.5
		S448.1,13.8,448.4,13.4z"/>
</g>
<g>
	<path class="st1" d="M498.8,15.6h-2.4l-4-6.1v6.1H490V5.7h2.4l4,6.1V5.7h2.4V15.6z"/>
	<path class="st1" d="M508.3,7.7v7.8h-2.4v-1.1c-0.2,0.3-0.6,0.6-1,0.8c-0.4,0.2-0.9,0.3-1.4,0.3c-0.6,0-1.1-0.1-1.6-0.4
		c-0.5-0.3-0.8-0.7-1.1-1.2s-0.4-1.1-0.4-1.8V7.7h2.4V12c0,0.5,0.1,0.9,0.4,1.2c0.3,0.3,0.6,0.4,1.1,0.4c0.5,0,0.8-0.1,1.1-0.4
		c0.3-0.3,0.4-0.7,0.4-1.2V7.7H508.3z"/>
	<path class="st1" d="M517.3,12.2h-5.4c0,0.5,0.2,0.9,0.5,1.1s0.6,0.4,1,0.4c0.6,0,1-0.3,1.2-0.8h2.5c-0.1,0.5-0.4,1-0.7,1.4
		c-0.3,0.4-0.8,0.7-1.3,1c-0.5,0.2-1.1,0.4-1.7,0.4c-0.8,0-1.4-0.2-2-0.5c-0.6-0.3-1.1-0.8-1.4-1.4c-0.3-0.6-0.5-1.3-0.5-2.1
		c0-0.8,0.2-1.5,0.5-2.1c0.3-0.6,0.8-1.1,1.4-1.4c0.6-0.3,1.3-0.5,2.1-0.5c0.8,0,1.4,0.2,2,0.5c0.6,0.3,1,0.8,1.4,1.4
		c0.3,0.6,0.5,1.3,0.5,2.1C517.4,11.7,517.3,12,517.3,12.2z M514.9,10.9c0-0.4-0.1-0.7-0.4-1c-0.3-0.2-0.6-0.4-1.1-0.4
		c-0.4,0-0.7,0.1-1,0.3s-0.4,0.6-0.5,1H514.9z"/>
	<path class="st1" d="M522.1,13.3l1.7-5.6h2.5l-2.8,7.8h-3l-2.8-7.8h2.6L522.1,13.3z"/>
	<path class="st1" d="M528.9,15.2c-0.6-0.3-1.1-0.8-1.4-1.4c-0.3-0.6-0.5-1.3-0.5-2.1c0-0.8,0.2-1.5,0.5-2.1s0.8-1.1,1.5-1.4
		c0.6-0.3,1.3-0.5,2.1-0.5c0.8,0,1.5,0.2,2.1,0.5c0.6,0.3,1.1,0.8,1.5,1.4c0.4,0.6,0.5,1.3,0.5,2.1s-0.2,1.5-0.5,2.1
		s-0.8,1.1-1.5,1.4s-1.3,0.5-2.1,0.5S529.5,15.5,528.9,15.2z M532.1,13.1c0.3-0.3,0.5-0.8,0.5-1.4c0-0.6-0.2-1.1-0.5-1.4
		c-0.3-0.3-0.7-0.5-1.2-0.5c-0.5,0-0.9,0.2-1.2,0.5c-0.3,0.3-0.5,0.8-0.5,1.4c0,0.6,0.2,1.1,0.5,1.4c0.3,0.3,0.7,0.5,1.1,0.5
		S531.8,13.4,532.1,13.1z"/>
	<path class="st1" d="M541.7,13.7h3.1v1.8h-5.5V5.7h2.4V13.7z"/>
	<path class="st1" d="M553.3,12.2h-5.4c0,0.5,0.2,0.9,0.5,1.1s0.6,0.4,1,0.4c0.6,0,1-0.3,1.2-0.8h2.5c-0.1,0.5-0.4,1-0.7,1.4
		c-0.3,0.4-0.8,0.7-1.3,1c-0.5,0.2-1.1,0.4-1.7,0.4c-0.8,0-1.4-0.2-2-0.5s-1.1-0.8-1.4-1.4c-0.3-0.6-0.5-1.3-0.5-2.1
		c0-0.8,0.2-1.5,0.5-2.1c0.3-0.6,0.8-1.1,1.4-1.4c0.6-0.3,1.3-0.5,2.1-0.5c0.8,0,1.4,0.2,2,0.5c0.6,0.3,1,0.8,1.4,1.4
		c0.3,0.6,0.5,1.3,0.5,2.1C553.3,11.7,553.3,12,553.3,12.2z M550.9,10.9c0-0.4-0.1-0.7-0.4-1c-0.3-0.2-0.6-0.4-1.1-0.4
		c-0.4,0-0.7,0.1-1,0.3s-0.4,0.6-0.5,1H550.9z"/>
	<path class="st1" d="M556.1,15.2c-0.6-0.3-1.1-0.8-1.4-1.4c-0.3-0.6-0.5-1.3-0.5-2.1c0-0.8,0.2-1.5,0.5-2.1s0.8-1.1,1.5-1.4
		c0.6-0.3,1.3-0.5,2.1-0.5c0.8,0,1.5,0.2,2.1,0.5c0.6,0.3,1.1,0.8,1.5,1.4c0.4,0.6,0.5,1.3,0.5,2.1s-0.2,1.5-0.5,2.1
		s-0.8,1.1-1.5,1.4s-1.3,0.5-2.1,0.5S556.7,15.5,556.1,15.2z M559.3,13.1c0.3-0.3,0.5-0.8,0.5-1.4c0-0.6-0.2-1.1-0.5-1.4
		c-0.3-0.3-0.7-0.5-1.2-0.5c-0.5,0-0.9,0.2-1.2,0.5c-0.3,0.3-0.5,0.8-0.5,1.4c0,0.6,0.2,1.1,0.5,1.4c0.3,0.3,0.7,0.5,1.1,0.5
		S559,13.4,559.3,13.1z M560,5.7l-3.4,1.4V5.5l3.4-1.6V5.7z"/>
	<path class="st1" d="M570.4,8.5c0.5,0.6,0.8,1.4,0.8,2.4v4.6h-2.4v-4.2c0-0.5-0.1-0.9-0.4-1.2c-0.3-0.3-0.6-0.4-1.1-0.4
		s-0.8,0.1-1.1,0.4s-0.4,0.7-0.4,1.2v4.2h-2.4V7.7h2.4v1c0.2-0.3,0.6-0.6,1-0.8c0.4-0.2,0.9-0.3,1.4-0.3
		C569.2,7.7,569.9,8,570.4,8.5z"/>
</g>
<g>
	<path class="st1" d="M632.2,5.6v6.7c0,1-0.3,1.8-0.9,2.4c-0.6,0.6-1.4,0.8-2.4,0.8c-1,0-1.9-0.3-2.5-0.9s-0.9-1.4-0.9-2.5h2.4
		c0,0.4,0.1,0.7,0.3,0.9s0.4,0.3,0.7,0.3c0.3,0,0.5-0.1,0.7-0.3c0.2-0.2,0.2-0.5,0.2-0.8V5.6H632.2z"/>
	<path class="st1" d="M634.1,9.4c0.3-0.6,0.7-1.1,1.2-1.4c0.5-0.3,1.1-0.5,1.8-0.5c0.6,0,1,0.1,1.4,0.3c0.4,0.2,0.7,0.5,1,0.9V7.6
		h2.4v7.8h-2.4v-1.1c-0.2,0.4-0.6,0.7-1,0.9c-0.4,0.2-0.9,0.3-1.4,0.3c-0.6,0-1.2-0.2-1.7-0.5s-0.9-0.8-1.2-1.4
		c-0.3-0.6-0.5-1.3-0.5-2.1S633.8,10,634.1,9.4z M639,10.1c-0.3-0.3-0.7-0.5-1.2-0.5c-0.5,0-0.9,0.2-1.2,0.5
		c-0.3,0.3-0.5,0.8-0.5,1.4s0.2,1.1,0.5,1.4c0.3,0.3,0.7,0.5,1.2,0.5c0.5,0,0.9-0.2,1.2-0.5c0.3-0.3,0.5-0.8,0.5-1.4
		C639.5,10.9,639.4,10.5,639,10.1z"/>
	<path class="st1" d="M646.1,5.1v10.4h-2.4V5.1H646.1z"/>
	<path class="st1" d="M648,6.4c-0.3-0.2-0.4-0.6-0.4-0.9c0-0.4,0.1-0.7,0.4-0.9s0.6-0.4,1-0.4c0.4,0,0.7,0.1,1,0.4s0.4,0.6,0.4,0.9
		c0,0.4-0.1,0.7-0.4,0.9s-0.6,0.4-1,0.4C648.6,6.8,648.2,6.7,648,6.4z M650.2,7.6v7.8h-2.4V7.6H650.2z"/>
	<path class="st1" d="M653.3,15.2c-0.5-0.2-1-0.6-1.3-1c-0.3-0.4-0.5-0.9-0.5-1.4h2.4c0,0.3,0.2,0.5,0.4,0.7
		c0.2,0.2,0.5,0.3,0.8,0.3c0.3,0,0.5-0.1,0.7-0.2c0.2-0.1,0.2-0.3,0.2-0.5c0-0.2-0.1-0.4-0.3-0.5c-0.2-0.1-0.6-0.2-1.1-0.4
		c-0.6-0.1-1-0.3-1.4-0.4c-0.4-0.1-0.7-0.4-1-0.7c-0.3-0.3-0.4-0.7-0.4-1.3c0-0.4,0.1-0.9,0.4-1.2c0.2-0.4,0.6-0.7,1.1-0.9
		s1.1-0.3,1.7-0.3c1,0,1.8,0.2,2.3,0.7c0.6,0.5,0.9,1.1,1,1.9H656c0-0.3-0.2-0.5-0.4-0.6c-0.2-0.2-0.5-0.2-0.8-0.2
		c-0.3,0-0.5,0.1-0.6,0.2c-0.1,0.1-0.2,0.3-0.2,0.4c0,0.2,0.1,0.4,0.4,0.5s0.6,0.2,1.1,0.3c0.6,0.1,1,0.3,1.4,0.4s0.7,0.4,1,0.7
		c0.3,0.3,0.4,0.8,0.4,1.3c0,0.5-0.1,0.9-0.4,1.2s-0.6,0.6-1.1,0.8s-1,0.3-1.7,0.3C654.4,15.5,653.8,15.4,653.3,15.2z"/>
	<path class="st1" d="M659.8,9.4c0.3-0.6,0.8-1.1,1.4-1.4c0.6-0.3,1.3-0.5,2-0.5c1,0,1.8,0.3,2.5,0.8c0.7,0.5,1.1,1.2,1.3,2.2h-2.5
		c-0.2-0.6-0.6-0.9-1.2-0.9c-0.4,0-0.8,0.2-1,0.5c-0.3,0.3-0.4,0.8-0.4,1.5s0.1,1.1,0.4,1.5c0.3,0.3,0.6,0.5,1,0.5
		c0.6,0,1-0.3,1.2-0.9h2.5c-0.2,0.9-0.6,1.6-1.3,2.2c-0.7,0.5-1.5,0.8-2.5,0.8c-0.8,0-1.4-0.2-2-0.5c-0.6-0.3-1.1-0.8-1.4-1.4
		c-0.3-0.6-0.5-1.3-0.5-2.1C659.3,10.7,659.4,10,659.8,9.4z"/>
	<path class="st1" d="M669.7,15.1c-0.6-0.3-1.1-0.8-1.4-1.4c-0.3-0.6-0.5-1.3-0.5-2.1c0-0.8,0.2-1.5,0.5-2.1s0.8-1.1,1.5-1.4
		c0.6-0.3,1.3-0.5,2.1-0.5c0.8,0,1.5,0.2,2.1,0.5c0.6,0.3,1.1,0.8,1.5,1.4c0.4,0.6,0.5,1.3,0.5,2.1s-0.2,1.5-0.5,2.1
		s-0.8,1.1-1.5,1.4s-1.3,0.5-2.1,0.5S670.3,15.4,669.7,15.1z M672.9,13c0.3-0.3,0.5-0.8,0.5-1.4c0-0.6-0.2-1.1-0.5-1.4
		c-0.3-0.3-0.7-0.5-1.2-0.5c-0.5,0-0.9,0.2-1.2,0.5c-0.3,0.3-0.5,0.8-0.5,1.4c0,0.6,0.2,1.1,0.5,1.4c0.3,0.3,0.7,0.5,1.1,0.5
		S672.6,13.3,672.9,13z"/>
</g>
<g>
	<path class="st1" d="M265.5,10.4c-0.3,0.5-0.7,0.9-1.2,1.1c-0.5,0.3-1.2,0.4-2,0.4h-1.5v3.5h-2.4V5.7h3.9c0.8,0,1.4,0.1,2,0.4
		s0.9,0.6,1.2,1.1c0.3,0.5,0.4,1,0.4,1.6C265.9,9.5,265.8,10,265.5,10.4z M263.1,9.8c0.2-0.2,0.3-0.5,0.3-0.9s-0.1-0.7-0.3-0.9
		c-0.2-0.2-0.6-0.3-1-0.3h-1.3v2.5h1.3C262.6,10.1,262.9,10,263.1,9.8z"/>
	<path class="st1" d="M274.9,7.7v7.8h-2.4v-1.1c-0.2,0.3-0.6,0.6-1,0.8c-0.4,0.2-0.9,0.3-1.4,0.3c-0.6,0-1.1-0.1-1.6-0.4
		c-0.5-0.3-0.8-0.7-1.1-1.2c-0.3-0.5-0.4-1.1-0.4-1.8V7.7h2.4V12c0,0.5,0.1,0.9,0.4,1.2c0.3,0.3,0.6,0.4,1.1,0.4
		c0.5,0,0.8-0.1,1.1-0.4c0.3-0.3,0.4-0.7,0.4-1.2V7.7H274.9z"/>
	<path class="st1" d="M283.9,12.2h-5.4c0,0.5,0.2,0.9,0.5,1.1c0.3,0.3,0.6,0.4,1,0.4c0.6,0,1-0.3,1.2-0.8h2.5
		c-0.1,0.5-0.4,1-0.7,1.4c-0.3,0.4-0.8,0.7-1.3,1s-1.1,0.3-1.7,0.3c-0.8,0-1.4-0.2-2-0.5s-1.1-0.8-1.4-1.4c-0.3-0.6-0.5-1.3-0.5-2.1
		c0-0.8,0.2-1.5,0.5-2.1c0.3-0.6,0.8-1.1,1.4-1.4c0.6-0.3,1.3-0.5,2.1-0.5c0.8,0,1.4,0.2,2,0.5c0.6,0.3,1,0.8,1.4,1.4
		c0.3,0.6,0.5,1.3,0.5,2.1C283.9,11.7,283.9,12,283.9,12.2z M281.5,10.9c0-0.4-0.1-0.7-0.4-1c-0.3-0.2-0.6-0.4-1-0.4
		c-0.4,0-0.7,0.1-1,0.4s-0.4,0.6-0.5,1H281.5z"/>
	<path class="st1" d="M288.6,8c0.4-0.2,0.9-0.3,1.4-0.3c0.6,0,1.2,0.2,1.8,0.5c0.5,0.3,0.9,0.8,1.2,1.4c0.3,0.6,0.5,1.3,0.5,2.1
		s-0.2,1.5-0.5,2.1c-0.3,0.6-0.7,1.1-1.2,1.4c-0.5,0.3-1.1,0.5-1.8,0.5c-0.6,0-1-0.1-1.4-0.3c-0.4-0.2-0.7-0.5-1-0.9v1.1h-2.4V5.2
		h2.4v3.7C287.8,8.5,288.1,8.2,288.6,8z M290.5,10.2c-0.3-0.3-0.7-0.5-1.2-0.5c-0.5,0-0.9,0.2-1.2,0.5c-0.3,0.3-0.5,0.8-0.5,1.4
		c0,0.6,0.2,1.1,0.5,1.4c0.3,0.3,0.7,0.5,1.2,0.5s0.9-0.2,1.2-0.5s0.5-0.8,0.5-1.4S290.8,10.6,290.5,10.2z"/>
	<path class="st1" d="M297.1,5.2v10.4h-2.4V5.2H297.1z"/>
	<path class="st1" d="M298.8,9.5c0.3-0.6,0.7-1.1,1.2-1.4c0.5-0.3,1.1-0.5,1.8-0.5c0.6,0,1,0.1,1.4,0.3c0.4,0.2,0.7,0.5,1,0.9V7.7
		h2.4v7.8h-2.4v-1.1c-0.2,0.4-0.6,0.7-1,0.9c-0.4,0.2-0.9,0.3-1.4,0.3c-0.6,0-1.2-0.2-1.7-0.5c-0.5-0.3-0.9-0.8-1.2-1.4
		c-0.3-0.6-0.5-1.3-0.5-2.1S298.5,10.1,298.8,9.5z M303.7,10.2c-0.3-0.3-0.7-0.5-1.2-0.5s-0.9,0.2-1.2,0.5c-0.3,0.3-0.5,0.8-0.5,1.4
		s0.2,1.1,0.5,1.4c0.3,0.4,0.7,0.5,1.2,0.5s0.9-0.2,1.2-0.5c0.3-0.3,0.5-0.8,0.5-1.4C304.2,11,304,10.6,303.7,10.2z"/>
</g>
<g>
	<path class="st1" d="M135.6,7.9v2h3.2v1.8h-3.2v2.2h3.6v1.9h-6V6h6v1.9H135.6z"/>
	<path class="st1" d="M140.8,9.8c0.3-0.6,0.7-1.1,1.2-1.4c0.5-0.3,1.1-0.5,1.8-0.5c0.5,0,1,0.1,1.4,0.3c0.4,0.2,0.8,0.5,1,0.9V5.5
		h2.4v10.4h-2.4v-1.1c-0.2,0.4-0.5,0.7-1,0.9c-0.4,0.2-0.9,0.3-1.4,0.3c-0.6,0-1.2-0.2-1.8-0.5c-0.5-0.3-0.9-0.8-1.2-1.4
		c-0.3-0.6-0.5-1.3-0.5-2.1S140.5,10.4,140.8,9.8z M145.7,10.5c-0.3-0.3-0.7-0.5-1.2-0.5s-0.9,0.2-1.2,0.5c-0.3,0.3-0.5,0.8-0.5,1.4
		s0.2,1.1,0.5,1.4c0.3,0.4,0.7,0.5,1.2,0.5s0.9-0.2,1.2-0.5c0.3-0.3,0.5-0.8,0.5-1.4C146.2,11.3,146,10.9,145.7,10.5z"/>
	<path class="st1" d="M151.8,15.5c-0.6-0.3-1.1-0.8-1.4-1.4c-0.4-0.6-0.5-1.3-0.5-2.1c0-0.8,0.2-1.5,0.5-2.1
		c0.4-0.6,0.8-1.1,1.5-1.4c0.6-0.3,1.3-0.5,2.1-0.5c0.8,0,1.5,0.2,2.1,0.5c0.6,0.3,1.1,0.8,1.5,1.4c0.4,0.6,0.5,1.3,0.5,2.1
		s-0.2,1.5-0.5,2.1c-0.4,0.6-0.8,1.1-1.5,1.4s-1.3,0.5-2.1,0.5S152.4,15.8,151.8,15.5z M155,13.4c0.3-0.3,0.5-0.8,0.5-1.4
		c0-0.6-0.2-1.1-0.5-1.4c-0.3-0.3-0.7-0.5-1.2-0.5c-0.5,0-0.9,0.2-1.2,0.5c-0.3,0.3-0.5,0.8-0.5,1.4c0,0.6,0.2,1.1,0.5,1.4
		c0.3,0.3,0.7,0.5,1.1,0.5C154.3,13.9,154.7,13.7,155,13.4z"/>
	<path class="st1" d="M170.3,6v9.8H168V9.9l-2.2,5.9h-1.9l-2.2-5.9v5.9h-2.4V6h2.8l2.8,6.8l2.7-6.8H170.3z"/>
	<path class="st1" d="M179.4,12.5H174c0,0.5,0.2,0.9,0.5,1.1c0.3,0.3,0.6,0.4,1,0.4c0.6,0,1-0.3,1.2-0.8h2.5c-0.1,0.5-0.4,1-0.7,1.4
		c-0.3,0.4-0.8,0.7-1.3,1s-1.1,0.3-1.7,0.3c-0.8,0-1.4-0.2-2-0.5s-1.1-0.8-1.4-1.4c-0.3-0.6-0.5-1.3-0.5-2.1c0-0.8,0.2-1.5,0.5-2.1
		c0.3-0.6,0.8-1.1,1.4-1.4c0.6-0.3,1.3-0.5,2.1-0.5c0.8,0,1.4,0.2,2,0.5c0.6,0.3,1,0.8,1.4,1.4c0.3,0.6,0.5,1.3,0.5,2.1
		C179.4,12,179.4,12.3,179.4,12.5z M177.1,6l-3.4,1.4V5.8l3.4-1.6V6z M177,11.2c0-0.4-0.1-0.7-0.4-1c-0.3-0.2-0.6-0.4-1-0.4
		c-0.4,0-0.7,0.1-1,0.4s-0.4,0.6-0.5,1H177z"/>
	<path class="st1" d="M185.3,15.8l-1.5-2.2l-1.3,2.2H180l2.6-4L179.9,8h2.7l1.5,2.2l1.3-2.2h2.6l-2.6,3.9l2.7,3.9H185.3z"/>
	<path class="st1" d="M189,15.6c-0.3-0.2-0.4-0.6-0.4-0.9c0-0.4,0.1-0.7,0.4-0.9c0.3-0.3,0.6-0.4,1-0.4c0.4,0,0.7,0.1,1,0.4
		c0.3,0.3,0.4,0.6,0.4,0.9c0,0.4-0.1,0.7-0.4,0.9c-0.3,0.2-0.6,0.4-1,0.4C189.6,15.9,189.3,15.8,189,15.6z"/>
</g>
<g>
	<path class="st1" d="M22,7.8C22.4,7,23,6.4,23.7,6c0.8-0.4,1.6-0.6,2.6-0.6c1.2,0,2.2,0.3,3,0.9c0.8,0.6,1.4,1.5,1.7,2.5h-2.6
		c-0.2-0.4-0.5-0.7-0.8-0.9c-0.4-0.2-0.8-0.3-1.2-0.3c-0.7,0-1.3,0.3-1.8,0.8c-0.5,0.5-0.7,1.2-0.7,2.1c0,0.9,0.2,1.5,0.7,2.1
		c0.5,0.5,1.1,0.8,1.8,0.8c0.5,0,0.9-0.1,1.2-0.3c0.4-0.2,0.6-0.5,0.8-0.9h2.6c-0.3,1.1-0.8,1.9-1.7,2.5c-0.8,0.6-1.8,0.9-3,0.9
		c-1,0-1.8-0.2-2.6-0.6c-0.8-0.4-1.3-1-1.8-1.8c-0.4-0.8-0.6-1.6-0.6-2.6C21.3,9.4,21.5,8.5,22,7.8z"/>
	<path class="st1" d="M38.8,6.1c0.8,0.4,1.4,1,1.8,1.7c0.4,0.7,0.6,1.6,0.6,2.6c0,1-0.2,1.8-0.6,2.6c-0.4,0.7-1,1.3-1.8,1.7
		c-0.8,0.4-1.7,0.6-2.7,0.6h-3.7V5.5h3.7C37.1,5.5,38,5.7,38.8,6.1z M38,12.5c0.5-0.5,0.8-1.2,0.8-2.1S38.5,8.8,38,8.3
		c-0.5-0.5-1.2-0.8-2.1-0.8h-1.1v5.7h1.1C36.8,13.2,37.5,13,38,12.5z"/>
	<path class="st1" d="M53.7,5.5v9.8h-2.4V9.4l-2.2,5.9h-1.9L45,9.4v5.9h-2.4V5.5h2.8l2.8,6.8l2.7-6.8H53.7z"/>
	<path class="st1" d="M61.5,15.3l-2-3l-1.8,3H55l3.2-5l-3.2-4.8h2.8l2,3l1.7-3h2.7l-3.1,5l3.2,4.9H61.5z"/>
</g>
</svg>
