<svg width="120" height="120" viewBox="0 0 120 120" fill="none" xmlns="http://www.w3.org/2000/svg">
<circle cx="60" cy="60" r="60" fill="#D1DD48"/>
<rect x="28" y="35" width="64" height="57" rx="3" fill="white"/>
<rect x="28" y="34" width="64" height="14" rx="2" fill="#00AEEF"/>
<rect x="40" y="28" width="4" height="12" fill="white"/>
<rect x="76" y="28" width="4" height="12" fill="white"/>
<path d="M89.325 93.1081H30.6764C29.6728 93.1081 28.7104 92.7094 28.0008 91.9998C27.2912 91.2903 26.8926 90.3278 26.8926 89.3243V47.6242C26.8926 47.3733 26.9922 47.1327 27.1696 46.9553C27.347 46.7779 27.5876 46.6782 27.8385 46.6782H92.1629C92.4137 46.6782 92.6543 46.7779 92.8317 46.9553C93.0091 47.1327 93.1088 47.3733 93.1088 47.6242V89.3243C93.1088 90.3278 92.7102 91.2903 92.0006 91.9998C91.291 92.7094 90.3285 93.1081 89.325 93.1081ZM28.7845 48.5701V89.3243C28.7845 89.8261 28.9838 90.3073 29.3386 90.6621C29.6934 91.0169 30.1746 91.2162 30.6764 91.2162H89.325C89.8268 91.2162 90.308 91.0169 90.6628 90.6621C91.0176 90.3073 91.2169 89.8261 91.2169 89.3243V48.5701H28.7845Z" fill="#1E4D7C"/>
<path d="M92.1629 48.5702H27.8385C27.5876 48.5702 27.347 48.4705 27.1696 48.2931C26.9922 48.1157 26.8926 47.8751 26.8926 47.6243V37.2188C26.8926 36.2153 27.2912 35.2529 28.0008 34.5433C28.7104 33.8337 29.6728 33.4351 30.6764 33.4351H39.1899C39.4408 33.4351 39.6814 33.5347 39.8588 33.7121C40.0362 33.8895 40.1358 34.1301 40.1358 34.381C40.1358 34.6319 40.0362 34.8725 39.8588 35.0499C39.6814 35.2273 39.4408 35.327 39.1899 35.327H30.6764C30.1746 35.327 29.6934 35.5263 29.3386 35.8811C28.9838 36.2359 28.7845 36.7171 28.7845 37.2188V46.6783H91.2169V37.2188C91.2169 36.7171 91.0176 36.2359 90.6628 35.8811C90.308 35.5263 89.8268 35.327 89.325 35.327H80.8115C80.5606 35.327 80.32 35.2273 80.1426 35.0499C79.9652 34.8725 79.8656 34.6319 79.8656 34.381C79.8656 34.1301 79.9652 33.8895 80.1426 33.7121C80.32 33.5347 80.5606 33.4351 80.8115 33.4351H89.325C90.3285 33.4351 91.291 33.8337 92.0006 34.5433C92.7102 35.2529 93.1088 36.2153 93.1088 37.2188V47.6243C93.1088 47.8751 93.0091 48.1157 92.8317 48.2931C92.6543 48.4705 92.4137 48.5702 92.1629 48.5702Z" fill="#1E4D7C"/>
<path d="M75.1361 35.3269H44.8659C44.615 35.3269 44.3744 35.2273 44.197 35.0499C44.0196 34.8725 43.9199 34.6319 43.9199 34.381C43.9199 34.1301 44.0196 33.8895 44.197 33.7121C44.3744 33.5347 44.615 33.4351 44.8659 33.4351H75.1361C75.387 33.4351 75.6276 33.5347 75.805 33.7121C75.9824 33.8895 76.0821 34.1301 76.0821 34.381C76.0821 34.6319 75.9824 34.8725 75.805 35.0499C75.6276 35.2273 75.387 35.3269 75.1361 35.3269Z" fill="#1E4D7C"/>
<path d="M77.9732 41.0813C76.9697 41.0813 76.0073 40.6826 75.2977 39.973C74.5881 39.2634 74.1895 38.301 74.1895 37.2975V30.6759C74.1895 29.6724 74.5881 28.7099 75.2977 28.0003C76.0073 27.2907 76.9697 26.8921 77.9732 26.8921C78.9768 26.8921 79.9392 27.2907 80.6488 28.0003C81.3584 28.7099 81.757 29.6724 81.757 30.6759V37.2975C81.757 38.301 81.3584 39.2634 80.6488 39.973C79.9392 40.6826 78.9768 41.0813 77.9732 41.0813ZM77.9732 28.784C77.4715 28.784 76.9903 28.9833 76.6355 29.3381C76.2807 29.6929 76.0813 30.1741 76.0813 30.6759V37.2975C76.0813 37.7993 76.2807 38.2805 76.6355 38.6353C76.9903 38.9901 77.4715 39.1894 77.9732 39.1894C78.475 39.1894 78.9562 38.9901 79.311 38.6353C79.6658 38.2805 79.8651 37.7993 79.8651 37.2975V30.6759C79.8651 30.1741 79.6658 29.6929 79.311 29.3381C78.9562 28.9833 78.475 28.784 77.9732 28.784V28.784Z" fill="#1E4D7C"/>
<path d="M42.026 41.0813C41.0224 41.0813 40.06 40.6826 39.3504 39.973C38.6408 39.2634 38.2422 38.301 38.2422 37.2975V30.6759C38.2422 29.6724 38.6408 28.7099 39.3504 28.0003C40.06 27.2907 41.0224 26.8921 42.026 26.8921C43.0295 26.8921 43.9919 27.2907 44.7015 28.0003C45.4111 28.7099 45.8098 29.6724 45.8098 30.6759V37.2975C45.8098 38.301 45.4111 39.2634 44.7015 39.973C43.9919 40.6826 43.0295 41.0813 42.026 41.0813ZM42.026 28.784C41.5242 28.784 41.043 28.9833 40.6882 29.3381C40.3334 29.6929 40.1341 30.1741 40.1341 30.6759V37.2975C40.1341 37.7993 40.3334 38.2805 40.6882 38.6353C41.043 38.9901 41.5242 39.1894 42.026 39.1894C42.5277 39.1894 43.0089 38.9901 43.3637 38.6353C43.7185 38.2805 43.9179 37.7993 43.9179 37.2975V30.6759C43.9179 30.1741 43.7185 29.6929 43.3637 29.3381C43.0089 28.9833 42.5277 28.784 42.026 28.784V28.784Z" fill="#1E4D7C"/>
<path d="M83.1759 62.3705H78.0403C77.5386 62.3705 77.0574 62.1712 76.7026 61.8164C76.3478 61.4616 76.1484 60.9804 76.1484 60.4786V55.3431C76.1484 54.8413 76.3478 54.3601 76.7026 54.0053C77.0574 53.6505 77.5386 53.4512 78.0403 53.4512H83.1759C83.6776 53.4512 84.1589 53.6505 84.5137 54.0053C84.8684 54.3601 85.0678 54.8413 85.0678 55.3431V60.4786C85.0678 60.9804 84.8684 61.4616 84.5137 61.8164C84.1589 62.1712 83.6776 62.3705 83.1759 62.3705ZM78.0403 55.3431V60.4786H83.1759V55.3431H78.0403Z" fill="#1E4D7C"/>
<path d="M69.4718 62.3705H64.3372C63.8354 62.3705 63.3542 62.1712 62.9994 61.8164C62.6446 61.4616 62.4453 60.9804 62.4453 60.4786V55.3431C62.4453 54.8413 62.6446 54.3601 62.9994 54.0053C63.3542 53.6505 63.8354 53.4512 64.3372 53.4512H69.4718C69.9736 53.4512 70.4548 53.6505 70.8096 54.0053C71.1644 54.3601 71.3637 54.8413 71.3637 55.3431V60.4786C71.3637 60.9804 71.1644 61.4616 70.8096 61.8164C70.4548 62.1712 69.9736 62.3705 69.4718 62.3705ZM64.3372 55.3431V60.4786H69.4718V55.3431H64.3372Z" fill="#1E4D7C"/>
<path d="M55.6613 62.3705H50.5267C50.0249 62.3705 49.5437 62.1712 49.1889 61.8164C48.8341 61.4616 48.6348 60.9804 48.6348 60.4786V55.3431C48.6348 54.8413 48.8341 54.3601 49.1889 54.0053C49.5437 53.6505 50.0249 53.4512 50.5267 53.4512H55.6613C56.163 53.4512 56.6442 53.6505 56.999 54.0053C57.3538 54.3601 57.5531 54.8413 57.5531 55.3431V60.4786C57.5531 60.9804 57.3538 61.4616 56.999 61.8164C56.6442 62.1712 56.163 62.3705 55.6613 62.3705ZM55.6613 55.3421H50.5267V60.4777H55.6613V55.3421Z" fill="#1E4D7C"/>
<path d="M83.1759 74.352H78.0403C77.5386 74.352 77.0574 74.1526 76.7026 73.7978C76.3478 73.4431 76.1484 72.9618 76.1484 72.4601V67.3255C76.1484 66.8237 76.3478 66.3425 76.7026 65.9877C77.0574 65.6329 77.5386 65.4336 78.0403 65.4336H83.1759C83.6776 65.4336 84.1589 65.6329 84.5137 65.9877C84.8684 66.3425 85.0678 66.8237 85.0678 67.3255V72.4601C85.0678 72.9618 84.8684 73.4431 84.5137 73.7978C84.1589 74.1526 83.6776 74.352 83.1759 74.352ZM78.0403 67.3255V72.4601H83.1759V67.3255H78.0403Z" fill="#1E4D7C"/>
<path d="M69.4718 74.352H64.3372C63.8354 74.352 63.3542 74.1526 62.9994 73.7978C62.6446 73.4431 62.4453 72.9618 62.4453 72.4601V67.3255C62.4453 66.8237 62.6446 66.3425 62.9994 65.9877C63.3542 65.6329 63.8354 65.4336 64.3372 65.4336H69.4718C69.9736 65.4336 70.4548 65.6329 70.8096 65.9877C71.1644 66.3425 71.3637 66.8237 71.3637 67.3255V72.4601C71.3637 72.9618 71.1644 73.4431 70.8096 73.7978C70.4548 74.1526 69.9736 74.352 69.4718 74.352ZM64.3372 67.3255V72.4601H69.4718V67.3255H64.3372Z" fill="#1E4D7C"/>
<path d="M41.9591 74.352H36.8235C36.3218 74.352 35.8406 74.1526 35.4858 73.7978C35.131 73.4431 34.9316 72.9618 34.9316 72.4601V67.3255C34.9316 66.8237 35.131 66.3425 35.4858 65.9877C35.8406 65.6329 36.3218 65.4336 36.8235 65.4336H41.9591C42.4608 65.4336 42.942 65.6329 43.2968 65.9877C43.6516 66.3425 43.851 66.8237 43.851 67.3255V72.4601C43.851 72.9618 43.6516 73.4431 43.2968 73.7978C42.942 74.1526 42.4608 74.352 41.9591 74.352ZM41.9591 67.3245H36.8235V72.4591H41.9591V67.3245Z" fill="#1E4D7C"/>
<path d="M55.6613 74.352H50.5267C50.0249 74.352 49.5437 74.1526 49.1889 73.7978C48.8341 73.4431 48.6348 72.9618 48.6348 72.4601V67.3255C48.6348 66.8237 48.8341 66.3425 49.1889 65.9877C49.5437 65.6329 50.0249 65.4336 50.5267 65.4336H55.6613C56.163 65.4336 56.6442 65.6329 56.999 65.9877C57.3538 66.3425 57.5531 66.8237 57.5531 67.3255V72.4601C57.5531 72.9618 57.3538 73.4431 56.999 73.7978C56.6442 74.1526 56.163 74.352 55.6613 74.352ZM55.6613 67.3245H50.5267V72.4591H55.6613V67.3245Z" fill="#1E4D7C"/>
<path d="M69.4718 86.3344H64.3372C63.8354 86.3344 63.3542 86.1351 62.9994 85.7803C62.6446 85.4255 62.4453 84.9443 62.4453 84.4425V79.3079C62.4453 78.8061 62.6446 78.3249 62.9994 77.9701C63.3542 77.6153 63.8354 77.416 64.3372 77.416H69.4718C69.9736 77.416 70.4548 77.6153 70.8096 77.9701C71.1644 78.3249 71.3637 78.8061 71.3637 79.3079V84.4425C71.3637 84.9443 71.1644 85.4255 70.8096 85.7803C70.4548 86.1351 69.9736 86.3344 69.4718 86.3344ZM64.3372 79.3079V84.4425H69.4718V79.3079H64.3372Z" fill="#1E4D7C"/>
<path d="M41.9591 86.3344H36.8235C36.3218 86.3344 35.8406 86.1351 35.4858 85.7803C35.131 85.4255 34.9316 84.9443 34.9316 84.4425V79.3079C34.9316 78.8061 35.131 78.3249 35.4858 77.9701C35.8406 77.6153 36.3218 77.416 36.8235 77.416H41.9591C42.4608 77.416 42.942 77.6153 43.2968 77.9701C43.6516 78.3249 43.851 78.8061 43.851 79.3079V84.4425C43.851 84.9443 43.6516 85.4255 43.2968 85.7803C42.942 86.1351 42.4608 86.3344 41.9591 86.3344ZM41.9591 79.306H36.8235V84.4406H41.9591V79.306Z" fill="#1E4D7C"/>
<path d="M55.6613 86.3344H50.5267C50.0249 86.3344 49.5437 86.1351 49.1889 85.7803C48.8341 85.4255 48.6348 84.9443 48.6348 84.4425V79.3079C48.6348 78.8061 48.8341 78.3249 49.1889 77.9701C49.5437 77.6153 50.0249 77.416 50.5267 77.416H55.6613C56.163 77.416 56.6442 77.6153 56.999 77.9701C57.3538 78.3249 57.5531 78.8061 57.5531 79.3079V84.4425C57.5531 84.9443 57.3538 85.4255 56.999 85.7803C56.6442 86.1351 56.163 86.3344 55.6613 86.3344ZM55.6613 79.306H50.5267V84.4406H55.6613V79.306Z" fill="#1E4D7C"/>
<rect x="50" y="55" width="6" height="6" fill="#1E4D7C"/>
<rect x="50" y="67" width="6" height="6" fill="#1E4D7C"/>
<rect x="36" y="67" width="6" height="6" fill="#1E4D7C"/>
<rect x="50" y="79" width="6" height="6" fill="#1E4D7C"/>
<rect x="36" y="79" width="6" height="6" fill="#1E4D7C"/>
<rect x="64" y="55" width="6" height="6" fill="#1E4D7C"/>
<rect x="64" y="67" width="6" height="6" fill="#1E4D7C"/>
<rect x="64" y="79" width="6" height="6" fill="#1E4D7C"/>
<rect x="78" y="55" width="6" height="6" fill="#1E4D7C"/>
<rect x="78" y="67" width="6" height="6" fill="#1E4D7C"/>
</svg>
